G04*
G04 #@! TF.GenerationSoftware,Altium Limited,Altium Designer,20.0.1 (14)*
G04*
G04 Layer_Color=128*
%FSLAX24Y24*%
%MOIN*%
G70*
G01*
G75*
%ADD56C,0.0020*%
D56*
X79572Y46566D02*
X79828D01*
X79700Y46438D02*
Y46694D01*
X81847Y46566D02*
X82103D01*
X81975Y46438D02*
Y46694D01*
X82422Y47944D02*
X82658D01*
X82540Y47825D02*
Y48062D01*
X79017Y47944D02*
X79253D01*
X79135Y47825D02*
Y48062D01*
X82422Y46369D02*
X82658D01*
X82540Y46251D02*
Y46487D01*
X79017Y46369D02*
X79253D01*
X79135Y46251D02*
Y46487D01*
X130537Y40301D02*
X130637D01*
X130587Y40251D02*
Y40351D01*
X90087Y38251D02*
X90187D01*
X90137Y38201D02*
Y38301D01*
X131837Y41601D02*
X131937D01*
X131887Y41551D02*
Y41651D01*
X129641Y38498D02*
X129741D01*
X129691Y38448D02*
Y38548D01*
X119237Y37951D02*
X119337D01*
X119287Y37901D02*
Y38001D01*
X120987Y39151D02*
X121087D01*
X121037Y39101D02*
Y39201D01*
X115687Y40401D02*
X115787D01*
X115737Y40351D02*
Y40451D01*
X134037Y37501D02*
X134137D01*
X134087Y37451D02*
Y37551D01*
X132237Y38151D02*
X132337D01*
X132287Y38101D02*
Y38201D01*
X131737Y41301D02*
X131837D01*
X131787Y41251D02*
Y41351D01*
X11987Y44301D02*
X12087D01*
X12037Y44251D02*
Y44351D01*
X18487Y39701D02*
X18587D01*
X18537Y39651D02*
Y39751D01*
X129087Y39451D02*
X129187D01*
X129137Y39401D02*
Y39501D01*
X122137Y38501D02*
X122237D01*
X122187Y38451D02*
Y38551D01*
X118387Y37951D02*
X118487D01*
X118437Y37901D02*
Y38001D01*
X9737Y44551D02*
X9837D01*
X9787Y44501D02*
Y44601D01*
X36937Y38801D02*
X37037D01*
X36987Y38751D02*
Y38851D01*
X63487Y38751D02*
X63587D01*
X63537Y38701D02*
Y38801D01*
X71537Y38301D02*
X71637D01*
X71587Y38251D02*
Y38351D01*
X71487Y38701D02*
X71587D01*
X71537Y38651D02*
Y38751D01*
X89137Y38251D02*
X89237D01*
X89187Y38201D02*
Y38301D01*
X90087Y38751D02*
X90187D01*
X90137Y38701D02*
Y38801D01*
X90087Y39251D02*
X90187D01*
X90137Y39201D02*
Y39301D01*
X98837Y38751D02*
X98937D01*
X98887Y38701D02*
Y38801D01*
X98837Y38251D02*
X98937D01*
X98887Y38201D02*
Y38301D01*
X97987Y38201D02*
X98087D01*
X98037Y38151D02*
Y38251D01*
X130887Y38601D02*
X130987D01*
X130937Y38551D02*
Y38651D01*
X117087Y41351D02*
X117187D01*
X117137Y41301D02*
Y41401D01*
X120987Y39851D02*
X121087D01*
X121037Y39801D02*
Y39901D01*
X129387Y41451D02*
X129487D01*
X129437Y41401D02*
Y41501D01*
X106937Y37551D02*
X107037D01*
X106987Y37501D02*
Y37601D01*
X107737Y38751D02*
X107837D01*
X107787Y38701D02*
Y38801D01*
X59037Y33401D02*
X59137D01*
X59087Y33351D02*
Y33451D01*
X132987Y39051D02*
X133087D01*
X133037Y39001D02*
Y39101D01*
X132637Y39151D02*
X132737D01*
X132687Y39101D02*
Y39201D01*
X6537Y33751D02*
X6637D01*
X6587Y33701D02*
Y33801D01*
X14137Y33701D02*
X14237D01*
X14187Y33651D02*
Y33751D01*
X8487Y26201D02*
X8587D01*
X8537Y26151D02*
Y26251D01*
X9387Y18701D02*
X9487D01*
X9437Y18651D02*
Y18751D01*
X11287Y11151D02*
X11387D01*
X11337Y11101D02*
Y11201D01*
X7537Y3751D02*
X7637D01*
X7587Y3701D02*
Y3801D01*
X16937Y3751D02*
X17037D01*
X16987Y3701D02*
Y3801D01*
X21587Y33801D02*
X21687D01*
X21637Y33751D02*
Y33851D01*
X17837Y26251D02*
X17937D01*
X17887Y26201D02*
Y26301D01*
X23487Y11201D02*
X23587D01*
X23537Y11151D02*
Y11251D01*
X19787Y18701D02*
X19887D01*
X19837Y18651D02*
Y18751D01*
X26287Y3751D02*
X26387D01*
X26337Y3701D02*
Y3801D01*
X30987Y11251D02*
X31087D01*
X31037Y11201D02*
Y11301D01*
X27337Y18751D02*
X27437D01*
X27387Y18701D02*
Y18801D01*
X25387Y26301D02*
X25487D01*
X25437Y26251D02*
Y26351D01*
X28087Y39751D02*
X28187D01*
X28137Y39701D02*
Y39801D01*
X36537Y33751D02*
X36637D01*
X36587Y33701D02*
Y33801D01*
X29087Y31901D02*
X29187D01*
X29137Y31851D02*
Y31951D01*
X32887Y26251D02*
X32987D01*
X32937Y26201D02*
Y26301D01*
X34737Y18701D02*
X34837D01*
X34787Y18651D02*
Y18751D01*
X40387Y26351D02*
X40487D01*
X40437Y26301D02*
Y26401D01*
X42237Y18851D02*
X42337D01*
X42287Y18801D02*
Y18901D01*
X38537Y11251D02*
X38637D01*
X38587Y11201D02*
Y11301D01*
X45987Y11151D02*
X46087D01*
X46037Y11101D02*
Y11201D01*
X44087Y33701D02*
X44187D01*
X44137Y33651D02*
Y33751D01*
X47837Y26301D02*
X47937D01*
X47887Y26251D02*
Y26351D01*
X49737Y18651D02*
X49837D01*
X49787Y18601D02*
Y18701D01*
X53437Y11201D02*
X53537D01*
X53487Y11151D02*
Y11251D01*
X54487Y3851D02*
X54587D01*
X54537Y3801D02*
Y3901D01*
X57187Y18701D02*
X57287D01*
X57237Y18651D02*
Y18751D01*
X55337Y24401D02*
X55437D01*
X55387Y24351D02*
Y24451D01*
X51587Y31851D02*
X51687D01*
X51637Y31801D02*
Y31901D01*
X62837Y26151D02*
X62937D01*
X62887Y26101D02*
Y26201D01*
X64737Y18701D02*
X64837D01*
X64787Y18651D02*
Y18751D01*
X60987Y11301D02*
X61087D01*
X61037Y11251D02*
Y11351D01*
X68437Y11451D02*
X68537D01*
X68487Y11401D02*
Y11501D01*
X75937D02*
X76037D01*
X75987Y11451D02*
Y11551D01*
X72187Y16801D02*
X72287D01*
X72237Y16751D02*
Y16851D01*
X66587Y31801D02*
X66687D01*
X66637Y31751D02*
Y31851D01*
X54637Y38251D02*
X54737D01*
X54687Y38201D02*
Y38301D01*
X54637Y38751D02*
X54737D01*
X54687Y38701D02*
Y38801D01*
X91087Y11601D02*
X91187D01*
X91137Y11551D02*
Y11651D01*
X70387Y26301D02*
X70487D01*
X70437Y26251D02*
Y26351D01*
X79737Y18751D02*
X79837D01*
X79787Y18701D02*
Y18801D01*
X87237Y16951D02*
X87337D01*
X87287Y16901D02*
Y17001D01*
X94787Y16751D02*
X94887D01*
X94837Y16701D02*
Y16801D01*
X91937Y3801D02*
X92037D01*
X91987Y3751D02*
Y3851D01*
X82537Y3751D02*
X82637D01*
X82587Y3701D02*
Y3801D01*
X83487Y11151D02*
X83587D01*
X83537Y11101D02*
Y11201D01*
X101287Y3801D02*
X101387D01*
X101337Y3751D02*
Y3851D01*
X74087Y33701D02*
X74187D01*
X74137Y33651D02*
Y33751D01*
X72337Y38751D02*
X72437D01*
X72387Y38701D02*
Y38801D01*
X77787Y26301D02*
X77887D01*
X77837Y26251D02*
Y26351D01*
X85387Y26251D02*
X85487D01*
X85437Y26201D02*
Y26301D01*
X92887D02*
X92987D01*
X92937Y26251D02*
Y26351D01*
X99487Y27051D02*
X99587D01*
X99537Y27001D02*
Y27101D01*
X81587Y32001D02*
X81687D01*
X81637Y31951D02*
Y32051D01*
X89087Y31951D02*
X89187D01*
X89137Y31901D02*
Y32001D01*
X96637Y31901D02*
X96737D01*
X96687Y31851D02*
Y31951D01*
X128537Y9401D02*
X128637D01*
X128587Y9351D02*
Y9451D01*
X81187Y38251D02*
X81287D01*
X81237Y38201D02*
Y38301D01*
X80237Y38601D02*
X80337D01*
X80287Y38551D02*
Y38651D01*
X106987Y16951D02*
X107087D01*
X107037Y16901D02*
Y17001D01*
X136037Y3801D02*
X136137D01*
X136087Y3751D02*
Y3851D01*
X105087Y11201D02*
X105187D01*
X105137Y11151D02*
Y11251D01*
X110637Y3751D02*
X110737D01*
X110687Y3701D02*
Y3801D01*
X120987Y3701D02*
X121087D01*
X121037Y3651D02*
Y3751D01*
X128487D02*
X128587D01*
X128537Y3701D02*
Y3801D01*
X109737Y26151D02*
X109837D01*
X109787Y26101D02*
Y26201D01*
X120937D02*
X121037D01*
X120987Y26151D02*
Y26251D01*
X128487Y26151D02*
X128587D01*
X128537Y26101D02*
Y26201D01*
X135937Y26301D02*
X136037D01*
X135987Y26251D02*
Y26351D01*
X107837Y31901D02*
X107937D01*
X107887Y31851D02*
Y31951D01*
X120987Y31901D02*
X121087D01*
X121037Y31851D02*
Y31951D01*
X128537Y31901D02*
X128637D01*
X128587Y31851D02*
Y31951D01*
X136037Y31901D02*
X136137D01*
X136087Y31851D02*
Y31951D01*
X98837Y39751D02*
X98937D01*
X98887Y39701D02*
Y39801D01*
X98837Y39251D02*
X98937D01*
X98887Y39201D02*
Y39301D01*
X98037Y39701D02*
X98137D01*
X98087Y39651D02*
Y39751D01*
X106887Y39701D02*
X106987D01*
X106937Y39651D02*
Y39751D01*
X18487Y39201D02*
X18587D01*
X18537Y39151D02*
Y39251D01*
X18487Y38701D02*
X18587D01*
X18537Y38651D02*
Y38751D01*
X18437Y38201D02*
X18537D01*
X18487Y38151D02*
Y38251D01*
X27237Y39701D02*
X27337D01*
X27287Y39651D02*
Y39751D01*
X27237Y39201D02*
X27337D01*
X27287Y39151D02*
Y39251D01*
X27237Y38701D02*
X27337D01*
X27287Y38651D02*
Y38751D01*
X27187Y38201D02*
X27287D01*
X27237Y38151D02*
Y38251D01*
X36137Y39701D02*
X36237D01*
X36187Y39651D02*
Y39751D01*
X36137Y39201D02*
X36237D01*
X36187Y39151D02*
Y39251D01*
X36137Y38701D02*
X36237D01*
X36187Y38651D02*
Y38751D01*
X36087Y38201D02*
X36187D01*
X36137Y38151D02*
Y38251D01*
X44987Y39701D02*
X45087D01*
X45037Y39651D02*
Y39751D01*
X44987Y39201D02*
X45087D01*
X45037Y39151D02*
Y39251D01*
X44987Y38701D02*
X45087D01*
X45037Y38651D02*
Y38751D01*
X44937Y38201D02*
X45037D01*
X44987Y38151D02*
Y38251D01*
X53787Y39701D02*
X53887D01*
X53837Y39651D02*
Y39751D01*
X53787Y39201D02*
X53887D01*
X53837Y39151D02*
Y39251D01*
X53787Y38701D02*
X53887D01*
X53837Y38651D02*
Y38751D01*
X53737Y38201D02*
X53837D01*
X53787Y38151D02*
Y38251D01*
X62637Y39701D02*
X62737D01*
X62687Y39651D02*
Y39751D01*
X62637Y39201D02*
X62737D01*
X62687Y39151D02*
Y39251D01*
X62637Y38701D02*
X62737D01*
X62687Y38651D02*
Y38751D01*
X62587Y38201D02*
X62687D01*
X62637Y38151D02*
Y38251D01*
X71487Y39701D02*
X71587D01*
X71537Y39651D02*
Y39751D01*
X71487Y39201D02*
X71587D01*
X71537Y39151D02*
Y39251D01*
X80337Y39701D02*
X80437D01*
X80387Y39651D02*
Y39751D01*
X80337Y39201D02*
X80437D01*
X80387Y39151D02*
Y39251D01*
X80287Y38201D02*
X80387D01*
X80337Y38151D02*
Y38251D01*
X89137Y39701D02*
X89237D01*
X89187Y39651D02*
Y39751D01*
X89137Y39201D02*
X89237D01*
X89187Y39151D02*
Y39251D01*
X89137Y38701D02*
X89237D01*
X89187Y38651D02*
Y38751D01*
X98037Y39201D02*
X98137D01*
X98087Y39151D02*
Y39251D01*
X98037Y38701D02*
X98137D01*
X98087Y38651D02*
Y38751D01*
X106837Y38201D02*
X106937D01*
X106887Y38151D02*
Y38251D01*
Y38701D02*
X106987D01*
X106937Y38651D02*
Y38751D01*
X106887Y39201D02*
X106987D01*
X106937Y39151D02*
Y39251D01*
X19187Y39751D02*
X19287D01*
X19237Y39701D02*
Y39801D01*
Y39251D02*
X19337D01*
X19287Y39201D02*
Y39301D01*
X19237Y38751D02*
X19337D01*
X19287Y38701D02*
Y38801D01*
X28137Y39251D02*
X28237D01*
X28187Y39201D02*
Y39301D01*
X28137Y38751D02*
X28237D01*
X28187Y38701D02*
Y38801D01*
X28137Y38251D02*
X28237D01*
X28187Y38201D02*
Y38301D01*
X36937Y39751D02*
X37037D01*
X36987Y39701D02*
Y39801D01*
Y39251D02*
X37087D01*
X37037Y39201D02*
Y39301D01*
X36987Y38251D02*
X37087D01*
X37037Y38201D02*
Y38301D01*
X45787Y39751D02*
X45887D01*
X45837Y39701D02*
Y39801D01*
Y39251D02*
X45937D01*
X45887Y39201D02*
Y39301D01*
X45837Y38751D02*
X45937D01*
X45887Y38701D02*
Y38801D01*
X45837Y38251D02*
X45937D01*
X45887Y38201D02*
Y38301D01*
X54587Y39751D02*
X54687D01*
X54637Y39701D02*
Y39801D01*
Y39251D02*
X54737D01*
X54687Y39201D02*
Y39301D01*
X63437Y39751D02*
X63537D01*
X63487Y39701D02*
Y39801D01*
Y39251D02*
X63587D01*
X63537Y39201D02*
Y39301D01*
X63487Y38251D02*
X63587D01*
X63537Y38201D02*
Y38301D01*
X72287Y39751D02*
X72387D01*
X72337Y39701D02*
Y39801D01*
Y39251D02*
X72437D01*
X72387Y39201D02*
Y39301D01*
X72337Y38251D02*
X72437D01*
X72387Y38201D02*
Y38301D01*
X81137Y39751D02*
X81237D01*
X81187Y39701D02*
Y39801D01*
Y39251D02*
X81287D01*
X81237Y39201D02*
Y39301D01*
X81187Y38751D02*
X81287D01*
X81237Y38701D02*
Y38801D01*
X90037Y39751D02*
X90137D01*
X90087Y39701D02*
Y39801D01*
X107687Y38251D02*
X107787D01*
X107737Y38201D02*
Y38301D01*
Y39251D02*
X107837D01*
X107787Y39201D02*
Y39301D01*
X107737Y39751D02*
X107837D01*
X107787Y39701D02*
Y39801D01*
X6587Y43151D02*
X6687D01*
X6637Y43101D02*
Y43201D01*
X21587Y43051D02*
X21687D01*
X21637Y43001D02*
Y43101D01*
X29087D02*
X29187D01*
X29137Y43051D02*
Y43151D01*
X36587D02*
X36687D01*
X36637Y43101D02*
Y43201D01*
X44087D02*
X44187D01*
X44137Y43151D02*
Y43251D01*
X55337Y43151D02*
X55437D01*
X55387Y43101D02*
Y43201D01*
X62837Y43151D02*
X62937D01*
X62887Y43101D02*
Y43201D01*
X70337D02*
X70437D01*
X70387Y43151D02*
Y43251D01*
X77837Y43201D02*
X77937D01*
X77887Y43151D02*
Y43251D01*
X89037D02*
X89137D01*
X89087Y43201D02*
Y43301D01*
X96537Y43101D02*
X96637D01*
X96587Y43051D02*
Y43151D01*
X104087D02*
X104187D01*
X104137Y43101D02*
Y43201D01*
X111637D02*
X111737D01*
X111687Y43151D02*
Y43251D01*
X120937Y43151D02*
X121037D01*
X120987Y43101D02*
Y43201D01*
X128487D02*
X128587D01*
X128537Y43151D02*
Y43251D01*
X136037Y43151D02*
X136137D01*
X136087Y43101D02*
Y43201D01*
M02*
