M48
;Layer_Color=9474304
;FILE_FORMAT=2:4
INCH,LZ
;TYPE=PLATED
T1F00S00C0.0100
T3F00S00C0.0256
%
T01
X007587Y003751
X011337Y011151
X023537Y011201
X031037Y011251
X026337Y003751
X016987
X038587Y011251
X046037Y011151
X053487Y011201
X061037Y011301
X054537Y003851
X068487Y011451
X075987Y011501
X083537Y011151
X091137Y011601
X091987Y003801
X082587Y003751
X101337Y003801
X105137Y011201
X110687Y003751
X121037Y003701
X128537Y003751
X128587Y009401
X136087Y003801
X135987Y026301
X128537Y026151
X120987Y026201
X109787Y026151
X099537Y027051
X094837Y016751
X107037Y016951
X087287
X079787Y018751
X085437Y026251
X092937Y026301
X077837
X070437
X062887Y026151
X064787Y018701
X072237Y016801
X057237Y018701
X049787Y018651
X047887Y026301
X055387Y024401
X040437Y026351
X032937Y026251
X034787Y018701
X042287Y018851
X027387Y018751
X019837Y018701
X017887Y026251
X025437Y026301
X008537Y026201
X009437Y018701
X006587Y033751
X014187Y033701
X012037Y044301
X009787Y044551
X006637Y043151
X021637Y043051
X019237Y039751
X019287Y039251
Y038751
X018537Y038701
Y039201
Y039701
X018487Y038201
X021637Y033801
X029137Y031901
X028187Y038251
Y038751
Y039251
X028137Y039751
X027287Y039701
Y039201
Y038701
X027237Y038201
X029137Y043101
X036637Y043151
X036987Y039751
X037037Y039251
X036987Y038801
X037037Y038251
X036137Y038201
X036187Y038701
Y039201
Y039701
X036587Y033751
X044137Y033701
X044987Y038201
X045037Y038701
Y039201
Y039701
X045837Y039751
X045887Y039251
Y038751
Y038251
X044137Y043201
X055387Y043151
X054637Y039751
X054687Y039251
Y038751
Y038251
X053787Y038201
X053837Y038701
Y039201
Y039701
X051637Y031851
X059087Y033401
X062637Y038201
X062687Y038701
Y039201
Y039701
X063487Y039751
X063537Y039251
Y038751
Y038251
X062887Y043151
X070387Y043201
X071537Y039701
Y039201
Y038701
X071587Y038301
X072387Y038251
Y038751
Y039251
X072337Y039751
X074137Y033701
X066637Y031801
X077887Y043201
X080387Y039701
Y039201
X080287Y038601
X080337Y038201
X081237Y038251
Y038751
Y039251
X081187Y039751
X089187Y039701
Y039201
Y038701
Y038251
X090137
Y038751
Y039251
X090087Y039751
X089087Y043251
X089137Y031951
X081637Y032001
X096687Y031901
X098037Y038201
X098087Y038701
Y039201
Y039701
X098887Y039751
Y039251
Y038751
Y038251
X096587Y043101
X104137Y043151
X106937Y039701
Y039201
Y038701
X106887Y038201
X106987Y037551
X107737Y038251
X107787Y038751
Y039251
Y039751
X107887Y031901
X121037
Y039151
Y039851
X122187Y038501
X119287Y037951
X118437
X117137Y041351
X115737Y040401
X111687Y043201
X120987Y043151
X128537Y043201
X129437Y041451
X130587Y040301
X130937Y038601
X129691Y038498
X129137Y039451
X132687Y039151
X133037Y039051
X132287Y038151
X134087Y037501
X131787Y041301
X131887Y041601
X136087Y043151
Y031901
X128587
T03
X0797Y046566
X081975
M30
