G04*
G04 #@! TF.GenerationSoftware,Altium Limited,Altium Designer,20.0.1 (14)*
G04*
G04 Layer_Color=16711935*
%FSLAX24Y24*%
%MOIN*%
G70*
G01*
G75*
%ADD13R,0.0446X0.0466*%
%ADD14C,0.0336*%
%ADD15O,0.0474X0.0710*%
%ADD16O,0.0474X0.0907*%
%ADD35R,0.1084X0.1084*%
%ADD36R,0.0466X0.0446*%
%ADD37R,0.0355X0.0296*%
%ADD38R,0.0355X0.0237*%
%ADD39O,0.0178X0.0690*%
%ADD40O,0.0690X0.0178*%
G04:AMPARAMS|DCode=41|XSize=23.7mil|YSize=67.1mil|CornerRadius=7.9mil|HoleSize=0mil|Usage=FLASHONLY|Rotation=90.000|XOffset=0mil|YOffset=0mil|HoleType=Round|Shape=RoundedRectangle|*
%AMROUNDEDRECTD41*
21,1,0.0237,0.0512,0,0,90.0*
21,1,0.0079,0.0671,0,0,90.0*
1,1,0.0159,0.0256,0.0039*
1,1,0.0159,0.0256,-0.0039*
1,1,0.0159,-0.0256,-0.0039*
1,1,0.0159,-0.0256,0.0039*
%
%ADD41ROUNDEDRECTD41*%
G04:AMPARAMS|DCode=42|XSize=47.4mil|YSize=67.1mil|CornerRadius=13.8mil|HoleSize=0mil|Usage=FLASHONLY|Rotation=90.000|XOffset=0mil|YOffset=0mil|HoleType=Round|Shape=RoundedRectangle|*
%AMROUNDEDRECTD42*
21,1,0.0474,0.0394,0,0,90.0*
21,1,0.0197,0.0671,0,0,90.0*
1,1,0.0277,0.0197,0.0098*
1,1,0.0277,0.0197,-0.0098*
1,1,0.0277,-0.0197,-0.0098*
1,1,0.0277,-0.0197,0.0098*
%
%ADD42ROUNDEDRECTD42*%
G04:AMPARAMS|DCode=43|XSize=31.6mil|YSize=43mil|CornerRadius=9.9mil|HoleSize=0mil|Usage=FLASHONLY|Rotation=270.000|XOffset=0mil|YOffset=0mil|HoleType=Round|Shape=RoundedRectangle|*
%AMROUNDEDRECTD43*
21,1,0.0316,0.0232,0,0,270.0*
21,1,0.0118,0.0430,0,0,270.0*
1,1,0.0198,-0.0116,-0.0059*
1,1,0.0198,-0.0116,0.0059*
1,1,0.0198,0.0116,0.0059*
1,1,0.0198,0.0116,-0.0059*
%
%ADD43ROUNDEDRECTD43*%
%ADD44O,0.0816X0.0277*%
G04:AMPARAMS|DCode=45|XSize=67.1mil|YSize=19.8mil|CornerRadius=7mil|HoleSize=0mil|Usage=FLASHONLY|Rotation=270.000|XOffset=0mil|YOffset=0mil|HoleType=Round|Shape=RoundedRectangle|*
%AMROUNDEDRECTD45*
21,1,0.0671,0.0059,0,0,270.0*
21,1,0.0531,0.0198,0,0,270.0*
1,1,0.0139,-0.0030,-0.0266*
1,1,0.0139,-0.0030,0.0266*
1,1,0.0139,0.0030,0.0266*
1,1,0.0139,0.0030,-0.0266*
%
%ADD45ROUNDEDRECTD45*%
G04:AMPARAMS|DCode=46|XSize=29.7mil|YSize=65.1mil|CornerRadius=9.4mil|HoleSize=0mil|Usage=FLASHONLY|Rotation=270.000|XOffset=0mil|YOffset=0mil|HoleType=Round|Shape=RoundedRectangle|*
%AMROUNDEDRECTD46*
21,1,0.0297,0.0463,0,0,270.0*
21,1,0.0108,0.0651,0,0,270.0*
1,1,0.0188,-0.0231,-0.0054*
1,1,0.0188,-0.0231,0.0054*
1,1,0.0188,0.0231,0.0054*
1,1,0.0188,0.0231,-0.0054*
%
%ADD46ROUNDEDRECTD46*%
G04:AMPARAMS|DCode=47|XSize=29.7mil|YSize=65.1mil|CornerRadius=9.4mil|HoleSize=0mil|Usage=FLASHONLY|Rotation=270.000|XOffset=0mil|YOffset=0mil|HoleType=Round|Shape=RoundedRectangle|*
%AMROUNDEDRECTD47*
21,1,0.0297,0.0463,0,0,270.0*
21,1,0.0108,0.0651,0,0,270.0*
1,1,0.0188,-0.0231,-0.0054*
1,1,0.0188,-0.0231,0.0054*
1,1,0.0188,0.0231,0.0054*
1,1,0.0188,0.0231,-0.0054*
%
%ADD47ROUNDEDRECTD47*%
G36*
X37501Y3785D02*
X36150D01*
Y4762D01*
Y3785D01*
X37500D01*
Y2632D01*
Y2727D01*
X37058Y3236D01*
X37066D01*
X37071Y3235D01*
X37085D01*
X37094Y3234D01*
X37103D01*
X37124Y3233D01*
X37146D01*
X37169Y3232D01*
X37474D01*
Y3328D01*
X36906D01*
Y3249D01*
X37282Y2808D01*
X37355Y2727D01*
X37351D01*
X37347Y2728D01*
X37341D01*
X37334Y2729D01*
X37326D01*
X37317Y2730D01*
X37306Y2731D01*
X37284Y2732D01*
X37259Y2733D01*
X37232Y2734D01*
X36885D01*
Y2632D01*
X37500D01*
Y2350D01*
X34575D01*
Y2350D01*
X34288D01*
X34297Y2351D01*
X34308Y2352D01*
X34320Y2353D01*
X34333Y2354D01*
X34349Y2357D01*
X34364Y2360D01*
X34381Y2363D01*
X34397Y2369D01*
X34414Y2374D01*
X34431Y2380D01*
X34448Y2387D01*
X34463Y2396D01*
X34478Y2406D01*
X34479Y2407D01*
X34481Y2409D01*
X34485Y2412D01*
X34490Y2417D01*
X34496Y2422D01*
X34502Y2430D01*
X34509Y2438D01*
X34516Y2448D01*
X34523Y2460D01*
X34530Y2472D01*
X34536Y2486D01*
X34541Y2501D01*
X34546Y2518D01*
X34549Y2536D01*
X34552Y2554D01*
Y2575D01*
X34437Y2558D01*
Y2557D01*
Y2555D01*
X34436Y2552D01*
X34435Y2549D01*
X34432Y2540D01*
X34429Y2528D01*
X34423Y2516D01*
X34417Y2503D01*
X34408Y2491D01*
X34397Y2480D01*
X34396D01*
X34395Y2478D01*
X34392Y2478D01*
X34389Y2475D01*
X34384Y2472D01*
X34379Y2470D01*
X34373Y2467D01*
X34366Y2464D01*
X34357Y2461D01*
X34348Y2458D01*
X34327Y2453D01*
X34303Y2449D01*
X34276Y2447D01*
X34268D01*
X34263Y2448D01*
X34256D01*
X34249Y2449D01*
X34230Y2452D01*
X34210Y2455D01*
X34189Y2462D01*
X34168Y2470D01*
X34151Y2480D01*
X34150D01*
X34149Y2482D01*
X34143Y2486D01*
X34135Y2494D01*
X34126Y2504D01*
X34116Y2517D01*
X34106Y2533D01*
X34097Y2552D01*
X34090Y2572D01*
Y2573D01*
Y2574D01*
X34089Y2577D01*
X34088Y2579D01*
Y2584D01*
X34087Y2589D01*
X34086Y2596D01*
X34085Y2604D01*
X34085Y2614D01*
X34084Y2625D01*
Y2637D01*
X34083Y2651D01*
X34082Y2667D01*
Y2684D01*
Y2702D01*
Y2723D01*
X34083Y2722D01*
X34085Y2719D01*
X34090Y2715D01*
X34095Y2709D01*
X34103Y2701D01*
X34112Y2694D01*
X34123Y2686D01*
X34134Y2677D01*
X34148Y2669D01*
X34162Y2660D01*
X34178Y2653D01*
X34195Y2646D01*
X34213Y2640D01*
X34233Y2635D01*
X34252Y2633D01*
X34274Y2632D01*
X34280D01*
X34287Y2633D01*
X34298Y2634D01*
X34309Y2635D01*
X34324Y2637D01*
X34339Y2641D01*
X34356Y2644D01*
X34373Y2650D01*
X34391Y2657D01*
X34410Y2665D01*
X34428Y2676D01*
X34447Y2687D01*
X34465Y2701D01*
X34481Y2717D01*
X34497Y2734D01*
X34498Y2735D01*
X34500Y2739D01*
X34504Y2745D01*
X34509Y2753D01*
X34514Y2763D01*
X34522Y2775D01*
X34529Y2789D01*
X34536Y2804D01*
X34543Y2822D01*
X34550Y2841D01*
X34557Y2861D01*
X34563Y2883D01*
X34568Y2907D01*
X34572Y2931D01*
X34574Y2957D01*
X34575Y2983D01*
Y2993D01*
X34574Y3000D01*
Y3009D01*
X34573Y3019D01*
X34572Y3031D01*
X34571Y3043D01*
X34569Y3057D01*
X34566Y3072D01*
X34560Y3102D01*
X34551Y3134D01*
X34539Y3166D01*
X34539Y3167D01*
X34538Y3170D01*
X34536Y3174D01*
X34532Y3180D01*
X34529Y3188D01*
X34524Y3196D01*
X34519Y3205D01*
X34513Y3214D01*
X34498Y3235D01*
X34480Y3257D01*
X34459Y3278D01*
X34448Y3287D01*
X34435Y3296D01*
X34434Y3297D01*
X34432Y3298D01*
X34428Y3301D01*
X34423Y3304D01*
X34416Y3307D01*
X34408Y3311D01*
X34399Y3315D01*
X34389Y3320D01*
X34378Y3324D01*
X34366Y3329D01*
X34352Y3332D01*
X34338Y3336D01*
X34308Y3341D01*
X34291Y3342D01*
X34274Y3343D01*
X34268D01*
X34262Y3342D01*
X34253Y3341D01*
X34242Y3340D01*
X34231Y3337D01*
X34217Y3335D01*
X34202Y3330D01*
X34186Y3325D01*
X34170Y3319D01*
X34153Y3311D01*
X34136Y3301D01*
X34119Y3289D01*
X34102Y3276D01*
X34086Y3261D01*
X34071Y3243D01*
Y3328D01*
X33962D01*
Y3343D01*
Y2711D01*
X33963Y2701D01*
Y2687D01*
X33964Y2672D01*
X33965Y2655D01*
X33967Y2637D01*
X33970Y2600D01*
X33977Y2561D01*
X33980Y2544D01*
X33985Y2527D01*
X33989Y2511D01*
X33995Y2497D01*
Y2496D01*
X33997Y2494D01*
X33999Y2491D01*
X34002Y2486D01*
X34005Y2480D01*
X34010Y2474D01*
X34021Y2459D01*
X34035Y2441D01*
X34053Y2423D01*
X34064Y2414D01*
X34076Y2406D01*
X34087Y2398D01*
X34101Y2390D01*
X34101D01*
X34104Y2388D01*
X34108Y2387D01*
X34113Y2384D01*
X34120Y2381D01*
X34128Y2378D01*
X34138Y2374D01*
X34150Y2371D01*
X34161Y2366D01*
X34175Y2362D01*
X34189Y2359D01*
X34205Y2356D01*
X34221Y2354D01*
X34239Y2352D01*
X34257Y2351D01*
X34276Y2350D01*
X33962D01*
Y2350D01*
X28950D01*
Y3785D01*
X35514D01*
D01*
X28951D01*
Y5450D01*
X37501D01*
Y3785D01*
D02*
G37*
G36*
X34278Y3245D02*
X34284Y3244D01*
X34292Y3242D01*
X34301Y3240D01*
X34311Y3238D01*
X34321Y3234D01*
X34332Y3230D01*
X34343Y3225D01*
X34354Y3219D01*
X34366Y3211D01*
X34377Y3203D01*
X34388Y3193D01*
X34399Y3181D01*
X34399Y3180D01*
X34401Y3179D01*
X34404Y3174D01*
X34407Y3170D01*
X34411Y3163D01*
X34416Y3155D01*
X34421Y3145D01*
X34426Y3133D01*
X34432Y3121D01*
X34436Y3106D01*
X34441Y3091D01*
X34445Y3074D01*
X34448Y3056D01*
X34451Y3036D01*
X34453Y3015D01*
X34454Y2991D01*
Y2990D01*
Y2985D01*
Y2978D01*
X34453Y2969D01*
X34452Y2957D01*
X34451Y2945D01*
X34449Y2931D01*
X34447Y2916D01*
X34440Y2883D01*
X34436Y2866D01*
X34431Y2850D01*
X34424Y2833D01*
X34417Y2818D01*
X34409Y2804D01*
X34399Y2792D01*
X34399Y2791D01*
X34397Y2789D01*
X34394Y2786D01*
X34390Y2782D01*
X34384Y2777D01*
X34378Y2772D01*
X34370Y2767D01*
X34362Y2760D01*
X34352Y2755D01*
X34342Y2749D01*
X34319Y2739D01*
X34306Y2734D01*
X34292Y2732D01*
X34278Y2730D01*
X34263Y2729D01*
X34255D01*
X34250Y2730D01*
X34242Y2731D01*
X34234Y2733D01*
X34225Y2734D01*
X34216Y2737D01*
X34205Y2740D01*
X34194Y2744D01*
X34183Y2750D01*
X34171Y2756D01*
X34160Y2763D01*
X34149Y2771D01*
X34138Y2781D01*
X34127Y2792D01*
X34126Y2792D01*
X34125Y2794D01*
X34122Y2798D01*
X34118Y2803D01*
X34115Y2810D01*
X34110Y2818D01*
X34105Y2828D01*
X34100Y2840D01*
X34094Y2852D01*
X34090Y2867D01*
X34085Y2883D01*
X34081Y2900D01*
X34077Y2920D01*
X34075Y2941D01*
X34073Y2964D01*
X34072Y2988D01*
Y2990D01*
Y2993D01*
Y3000D01*
X34073Y3009D01*
X34074Y3019D01*
X34075Y3031D01*
X34076Y3045D01*
X34079Y3060D01*
X34086Y3091D01*
X34091Y3107D01*
X34096Y3122D01*
X34102Y3139D01*
X34110Y3154D01*
X34119Y3168D01*
X34129Y3180D01*
X34130Y3181D01*
X34132Y3183D01*
X34134Y3187D01*
X34139Y3190D01*
X34144Y3196D01*
X34151Y3201D01*
X34159Y3207D01*
X34167Y3213D01*
X34176Y3219D01*
X34187Y3225D01*
X34210Y3236D01*
X34223Y3239D01*
X34236Y3243D01*
X34250Y3245D01*
X34265Y3246D01*
X34272D01*
X34278Y3245D01*
D02*
G37*
%LPC*%
G36*
X30882Y5031D02*
Y4789D01*
X30881Y4790D01*
X30878Y4791D01*
X30872Y4794D01*
X30865Y4797D01*
X30857Y4802D01*
X30847Y4807D01*
X30836Y4813D01*
X30824Y4820D01*
X30798Y4837D01*
X30768Y4856D01*
X30739Y4877D01*
X30710Y4901D01*
X30709Y4902D01*
X30707Y4904D01*
X30703Y4908D01*
X30698Y4913D01*
X30692Y4919D01*
X30685Y4926D01*
X30677Y4934D01*
X30669Y4943D01*
X30652Y4962D01*
X30635Y4984D01*
X30619Y5008D01*
X30612Y5019D01*
X30606Y5031D01*
X30529D01*
Y4067D01*
X30882D01*
Y5031D01*
D02*
G37*
G36*
X35415Y5027D02*
X34812D01*
X35297D01*
Y4683D01*
X35296Y4684D01*
X35293Y4687D01*
X35289Y4692D01*
X35283Y4698D01*
X35276Y4705D01*
X35267Y4713D01*
X35257Y4721D01*
X35245Y4730D01*
X35233Y4739D01*
X35217Y4747D01*
X35202Y4755D01*
X35185Y4762D01*
X35167Y4769D01*
X35148Y4773D01*
X35128Y4777D01*
X35107Y4777D01*
X35096D01*
X35090Y4777D01*
X35084D01*
X35068Y4774D01*
X35049Y4771D01*
X35028Y4767D01*
X35007Y4761D01*
X34985Y4752D01*
X34985D01*
X34983Y4751D01*
X34980Y4749D01*
X34976Y4747D01*
X34971Y4744D01*
X34965Y4741D01*
X34952Y4733D01*
X34937Y4722D01*
X34921Y4710D01*
X34905Y4695D01*
X34891Y4678D01*
X34890Y4678D01*
X34889Y4677D01*
X34887Y4674D01*
X34885Y4670D01*
X34882Y4666D01*
X34878Y4661D01*
X34869Y4647D01*
X34861Y4630D01*
X34851Y4612D01*
X34841Y4590D01*
X34833Y4566D01*
Y4565D01*
X34832Y4563D01*
X34831Y4560D01*
X34829Y4554D01*
X34828Y4548D01*
X34826Y4541D01*
X34824Y4533D01*
X34822Y4523D01*
X34819Y4503D01*
X34815Y4479D01*
X34812Y4452D01*
X34812Y4424D01*
Y4431D01*
Y4051D01*
X35415D01*
D01*
X35118D01*
X35125Y4052D01*
X35134Y4053D01*
X35143Y4055D01*
X35156Y4057D01*
X35169Y4060D01*
X35183Y4064D01*
X35199Y4069D01*
X35214Y4076D01*
X35230Y4084D01*
X35246Y4095D01*
X35262Y4107D01*
X35277Y4120D01*
X35292Y4136D01*
X35306Y4154D01*
Y4067D01*
X35415D01*
Y5027D01*
D02*
G37*
G36*
X33177Y4777D02*
Y4762D01*
X33071D01*
Y4655D01*
X33070Y4656D01*
X33069Y4659D01*
X33068Y4662D01*
X33064Y4667D01*
X33061Y4673D01*
X33057Y4680D01*
X33047Y4695D01*
X33036Y4711D01*
X33023Y4728D01*
X33010Y4743D01*
X33003Y4748D01*
X32997Y4753D01*
X32995Y4754D01*
X32991Y4757D01*
X32984Y4761D01*
X32975Y4766D01*
X32963Y4769D01*
X32950Y4774D01*
X32936Y4777D01*
X32920Y4777D01*
X32914D01*
X32911Y4777D01*
X32905D01*
X32898Y4776D01*
X32891Y4774D01*
X32883Y4773D01*
X32865Y4769D01*
X32845Y4761D01*
X32822Y4752D01*
X32811Y4746D01*
X32799Y4739D01*
X32841Y4630D01*
X32842D01*
X32843Y4631D01*
X32848Y4634D01*
X32857Y4638D01*
X32868Y4643D01*
X32881Y4647D01*
X32896Y4652D01*
X32912Y4654D01*
X32928Y4655D01*
X32934D01*
X32941Y4654D01*
X32951Y4653D01*
X32961Y4649D01*
X32973Y4645D01*
X32986Y4639D01*
X32997Y4631D01*
X32998Y4630D01*
X33002Y4627D01*
X33007Y4621D01*
X33014Y4614D01*
X33021Y4605D01*
X33028Y4595D01*
X33035Y4581D01*
X33040Y4567D01*
Y4566D01*
X33041Y4564D01*
X33042Y4561D01*
X33043Y4556D01*
X33044Y4550D01*
X33046Y4543D01*
X33048Y4536D01*
X33050Y4527D01*
X33053Y4506D01*
X33057Y4483D01*
X33059Y4457D01*
X33060Y4430D01*
Y4067D01*
X33177D01*
Y4777D01*
D02*
G37*
G36*
X33629D02*
X33614D01*
X33606Y4777D01*
X33598D01*
X33588Y4776D01*
X33577Y4775D01*
X33554Y4772D01*
X33530Y4769D01*
X33507Y4763D01*
X33484Y4756D01*
X33483D01*
X33482Y4755D01*
X33479Y4754D01*
X33475Y4753D01*
X33465Y4748D01*
X33453Y4742D01*
X33441Y4735D01*
X33426Y4725D01*
X33414Y4715D01*
X33403Y4703D01*
X33402Y4702D01*
X33399Y4698D01*
X33394Y4691D01*
X33388Y4681D01*
X33383Y4670D01*
X33376Y4656D01*
X33370Y4640D01*
X33366Y4623D01*
Y4621D01*
X33365Y4617D01*
X33364Y4610D01*
X33363Y4604D01*
X33362Y4598D01*
Y4591D01*
X33361Y4583D01*
Y4574D01*
X33360Y4564D01*
Y4554D01*
X33359Y4542D01*
Y4529D01*
Y4514D01*
Y4358D01*
Y4356D01*
Y4351D01*
Y4343D01*
Y4332D01*
Y4319D01*
Y4304D01*
X33358Y4288D01*
Y4271D01*
X33358Y4235D01*
X33357Y4218D01*
Y4201D01*
X33356Y4186D01*
X33355Y4172D01*
X33353Y4160D01*
X33352Y4150D01*
Y4150D01*
Y4149D01*
X33350Y4143D01*
X33349Y4134D01*
X33346Y4124D01*
X33342Y4111D01*
X33336Y4097D01*
X33330Y4082D01*
X33322Y4067D01*
X33445D01*
X33446Y4068D01*
X33448Y4073D01*
X33451Y4081D01*
X33455Y4091D01*
X33459Y4103D01*
X33463Y4118D01*
X33466Y4134D01*
X33469Y4152D01*
X33470Y4151D01*
X33472Y4150D01*
X33475Y4147D01*
X33481Y4143D01*
X33486Y4139D01*
X33493Y4133D01*
X33501Y4128D01*
X33509Y4122D01*
X33529Y4108D01*
X33550Y4096D01*
X33573Y4084D01*
X33596Y4074D01*
X33597D01*
X33598Y4073D01*
X33602Y4072D01*
X33606Y4070D01*
X33612Y4068D01*
X33618Y4067D01*
X33626Y4065D01*
X33634Y4063D01*
X33654Y4059D01*
X33675Y4055D01*
X33699Y4052D01*
X33725Y4051D01*
X33736D01*
X33744Y4052D01*
X33754Y4053D01*
X33764Y4054D01*
X33777Y4056D01*
X33790Y4059D01*
X33819Y4065D01*
X33833Y4069D01*
X33848Y4075D01*
X33862Y4081D01*
X33877Y4089D01*
X33889Y4097D01*
X33902Y4107D01*
X33903Y4108D01*
X33904Y4109D01*
X33907Y4112D01*
X33911Y4117D01*
X33916Y4123D01*
X33920Y4129D01*
X33927Y4137D01*
X33932Y4146D01*
X33937Y4156D01*
X33943Y4166D01*
X33948Y4178D01*
X33953Y4191D01*
X33957Y4204D01*
X33960Y4218D01*
X33961Y4233D01*
X33962Y4249D01*
Y4272D01*
Y4258D01*
X33961Y4268D01*
X33960Y4281D01*
X33957Y4295D01*
X33953Y4311D01*
X33947Y4327D01*
X33939Y4343D01*
Y4344D01*
X33938Y4345D01*
X33935Y4350D01*
X33930Y4357D01*
X33923Y4367D01*
X33914Y4378D01*
X33903Y4389D01*
X33892Y4400D01*
X33878Y4411D01*
X33877Y4412D01*
X33872Y4415D01*
X33864Y4420D01*
X33853Y4425D01*
X33841Y4431D01*
X33827Y4438D01*
X33811Y4444D01*
X33794Y4449D01*
X33792D01*
X33788Y4451D01*
X33779Y4453D01*
X33768Y4455D01*
X33753Y4457D01*
X33735Y4461D01*
X33713Y4464D01*
X33689Y4467D01*
X33688D01*
X33683Y4468D01*
X33676Y4469D01*
X33666Y4470D01*
X33655Y4472D01*
X33640Y4473D01*
X33626Y4476D01*
X33609Y4479D01*
X33575Y4485D01*
X33540Y4491D01*
X33523Y4496D01*
X33507Y4499D01*
X33492Y4504D01*
X33479Y4508D01*
Y4509D01*
Y4512D01*
Y4516D01*
X33478Y4521D01*
Y4531D01*
Y4536D01*
Y4538D01*
Y4539D01*
Y4542D01*
Y4546D01*
X33479Y4550D01*
Y4556D01*
X33480Y4563D01*
X33482Y4579D01*
X33486Y4595D01*
X33492Y4612D01*
X33500Y4628D01*
X33506Y4634D01*
X33512Y4640D01*
X33513Y4641D01*
X33514Y4642D01*
X33516Y4644D01*
X33520Y4646D01*
X33525Y4649D01*
X33531Y4653D01*
X33538Y4656D01*
X33546Y4661D01*
X33555Y4664D01*
X33565Y4668D01*
X33575Y4671D01*
X33588Y4674D01*
X33600Y4677D01*
X33614Y4678D01*
X33630Y4680D01*
X33659D01*
X33666Y4679D01*
X33674Y4678D01*
X33692Y4677D01*
X33713Y4673D01*
X33732Y4668D01*
X33752Y4661D01*
X33761Y4656D01*
X33769Y4651D01*
X33771Y4649D01*
X33775Y4645D01*
X33782Y4637D01*
X33791Y4627D01*
X33796Y4620D01*
X33800Y4612D01*
X33805Y4604D01*
X33810Y4595D01*
X33814Y4585D01*
X33819Y4573D01*
X33823Y4561D01*
X33827Y4547D01*
X33942Y4563D01*
Y4564D01*
X33941Y4567D01*
X33940Y4571D01*
X33939Y4576D01*
X33937Y4582D01*
X33935Y4589D01*
X33929Y4605D01*
X33923Y4625D01*
X33914Y4645D01*
X33903Y4664D01*
X33891Y4682D01*
X33890Y4683D01*
X33889Y4684D01*
X33884Y4689D01*
X33876Y4698D01*
X33864Y4708D01*
X33849Y4720D01*
X33831Y4731D01*
X33811Y4743D01*
X33787Y4753D01*
X33786D01*
X33784Y4753D01*
X33779Y4755D01*
X33775Y4756D01*
X33768Y4759D01*
X33761Y4761D01*
X33752Y4762D01*
X33741Y4765D01*
X33730Y4768D01*
X33718Y4769D01*
X33705Y4772D01*
X33691Y4774D01*
X33662Y4777D01*
X33629Y4777D01*
D02*
G37*
G36*
X37501Y5027D02*
X36924D01*
X37383D01*
Y4479D01*
X37104Y4762D01*
X36951D01*
X37216Y4504D01*
X36924Y4067D01*
X37501D01*
Y5027D01*
D02*
G37*
G36*
X34386Y4777D02*
X34380D01*
X34372Y4777D01*
X34362Y4776D01*
X34350Y4775D01*
X34336Y4772D01*
X34320Y4769D01*
X34303Y4766D01*
X34284Y4761D01*
X34266Y4754D01*
X34246Y4747D01*
X34226Y4737D01*
X34207Y4727D01*
X34188Y4714D01*
X34169Y4700D01*
X34151Y4683D01*
X34151Y4682D01*
X34148Y4678D01*
X34143Y4673D01*
X34137Y4666D01*
X34130Y4656D01*
X34123Y4645D01*
X34114Y4631D01*
X34106Y4615D01*
X34097Y4598D01*
X34089Y4579D01*
X34082Y4557D01*
X34075Y4534D01*
X34068Y4509D01*
X34064Y4483D01*
X34061Y4455D01*
X34060Y4424D01*
Y4439D01*
Y4051D01*
Y4412D01*
X34061Y4402D01*
Y4390D01*
X34062Y4378D01*
X34064Y4363D01*
X34066Y4348D01*
X34068Y4331D01*
X34070Y4314D01*
X34077Y4278D01*
X34088Y4244D01*
X34094Y4228D01*
X34101Y4213D01*
Y4212D01*
X34103Y4209D01*
X34106Y4206D01*
X34109Y4200D01*
X34113Y4194D01*
X34118Y4186D01*
X34124Y4178D01*
X34131Y4169D01*
X34139Y4159D01*
X34148Y4150D01*
X34167Y4130D01*
X34192Y4111D01*
X34218Y4093D01*
X34219D01*
X34222Y4092D01*
X34226Y4090D01*
X34232Y4087D01*
X34239Y4084D01*
X34248Y4080D01*
X34257Y4076D01*
X34268Y4073D01*
X34280Y4068D01*
X34293Y4065D01*
X34322Y4058D01*
X34353Y4053D01*
X34369Y4052D01*
X34386Y4051D01*
X34712Y4051D01*
X34392Y4051D01*
X34400Y4052D01*
X34410Y4053D01*
X34423Y4054D01*
X34437Y4057D01*
X34453Y4059D01*
X34471Y4063D01*
X34489Y4068D01*
X34508Y4074D01*
X34528Y4082D01*
X34547Y4091D01*
X34567Y4101D01*
X34587Y4114D01*
X34605Y4128D01*
X34622Y4144D01*
X34623Y4145D01*
X34626Y4149D01*
X34630Y4154D01*
X34637Y4162D01*
X34643Y4171D01*
X34651Y4183D01*
X34659Y4197D01*
X34667Y4213D01*
X34675Y4232D01*
X34683Y4251D01*
X34691Y4274D01*
X34697Y4298D01*
X34704Y4324D01*
X34708Y4352D01*
X34711Y4382D01*
X34712Y4414D01*
Y4431D01*
Y4428D01*
X34711Y4433D01*
X34710Y4446D01*
X34708Y4462D01*
X34706Y4480D01*
X34703Y4501D01*
X34698Y4522D01*
X34693Y4546D01*
X34686Y4569D01*
X34677Y4593D01*
X34666Y4616D01*
X34655Y4639D01*
X34640Y4661D01*
X34623Y4681D01*
X34605Y4700D01*
X34604Y4701D01*
X34600Y4703D01*
X34596Y4707D01*
X34589Y4712D01*
X34580Y4718D01*
X34570Y4725D01*
X34557Y4731D01*
X34544Y4739D01*
X34529Y4746D01*
X34512Y4753D01*
X34494Y4760D01*
X34474Y4765D01*
X34454Y4770D01*
X34432Y4774D01*
X34410Y4777D01*
X34386Y4777D01*
D02*
G37*
G36*
X36545Y4777D02*
X36538D01*
X36531Y4777D01*
X36521Y4776D01*
X36510Y4775D01*
X36496Y4772D01*
X36480Y4769D01*
X36464Y4766D01*
X36447Y4761D01*
X36428Y4754D01*
X36409Y4746D01*
X36390Y4737D01*
X36371Y4727D01*
X36352Y4713D01*
X36334Y4699D01*
X36317Y4682D01*
X36316Y4681D01*
X36314Y4678D01*
X36309Y4672D01*
X36303Y4664D01*
X36297Y4655D01*
X36289Y4643D01*
X36281Y4629D01*
X36273Y4613D01*
X36265Y4596D01*
X36257Y4575D01*
X36249Y4554D01*
X36242Y4530D01*
X36236Y4504D01*
X36232Y4476D01*
X36229Y4447D01*
X36228Y4415D01*
Y4416D01*
Y4397D01*
X36229Y4391D01*
Y4384D01*
X36748D01*
Y4383D01*
Y4379D01*
X36747Y4373D01*
X36746Y4365D01*
X36744Y4356D01*
X36743Y4345D01*
X36741Y4332D01*
X36737Y4320D01*
X36729Y4291D01*
X36724Y4277D01*
X36719Y4262D01*
X36711Y4248D01*
X36703Y4234D01*
X36694Y4221D01*
X36684Y4209D01*
X36683Y4208D01*
X36681Y4207D01*
X36678Y4204D01*
X36673Y4199D01*
X36668Y4195D01*
X36661Y4191D01*
X36653Y4184D01*
X36644Y4179D01*
X36634Y4174D01*
X36622Y4168D01*
X36611Y4163D01*
X36597Y4158D01*
X36584Y4154D01*
X36570Y4151D01*
X36554Y4150D01*
X36538Y4149D01*
X36532D01*
X36528Y4150D01*
X36521D01*
X36515Y4150D01*
X36500Y4153D01*
X36483Y4157D01*
X36464Y4163D01*
X36446Y4171D01*
X36428Y4183D01*
X36427D01*
X36426Y4184D01*
X36423Y4186D01*
X36420Y4189D01*
X36412Y4198D01*
X36401Y4209D01*
X36396Y4216D01*
X36389Y4224D01*
X36383Y4233D01*
X36377Y4243D01*
X36372Y4254D01*
X36365Y4265D01*
X36360Y4279D01*
X36355Y4292D01*
X36232Y4276D01*
Y4275D01*
X36234Y4272D01*
X36236Y4266D01*
X36238Y4258D01*
X36241Y4249D01*
X36246Y4240D01*
X36250Y4228D01*
X36257Y4216D01*
X36264Y4202D01*
X36271Y4189D01*
X36280Y4175D01*
X36290Y4161D01*
X36300Y4148D01*
X36313Y4134D01*
X36325Y4122D01*
X36340Y4110D01*
X36340Y4109D01*
X36343Y4108D01*
X36348Y4105D01*
X36354Y4101D01*
X36361Y4097D01*
X36371Y4092D01*
X36381Y4086D01*
X36393Y4081D01*
X36407Y4075D01*
X36422Y4070D01*
X36439Y4065D01*
X36456Y4060D01*
X36475Y4057D01*
X36495Y4054D01*
X36516Y4052D01*
X36538Y4051D01*
X36228D01*
X36869D01*
D01*
X36546D01*
X36553Y4052D01*
X36563Y4053D01*
X36577Y4054D01*
X36591Y4057D01*
X36608Y4059D01*
X36626Y4063D01*
X36645Y4068D01*
X36664Y4075D01*
X36685Y4082D01*
X36704Y4091D01*
X36725Y4101D01*
X36744Y4114D01*
X36762Y4129D01*
X36780Y4145D01*
X36781Y4146D01*
X36784Y4150D01*
X36788Y4155D01*
X36794Y4162D01*
X36801Y4172D01*
X36809Y4183D01*
X36817Y4198D01*
X36825Y4213D01*
X36833Y4231D01*
X36841Y4250D01*
X36849Y4272D01*
X36855Y4296D01*
X36861Y4321D01*
X36866Y4348D01*
X36868Y4377D01*
X36869Y4408D01*
Y4416D01*
X36868Y4425D01*
X36868Y4437D01*
X36867Y4452D01*
X36865Y4469D01*
X36862Y4488D01*
X36858Y4508D01*
X36853Y4530D01*
X36847Y4552D01*
X36840Y4574D01*
X36831Y4596D01*
X36821Y4619D01*
X36809Y4641D01*
X36795Y4662D01*
X36779Y4680D01*
X36778Y4681D01*
X36775Y4685D01*
X36770Y4689D01*
X36763Y4695D01*
X36754Y4703D01*
X36743Y4711D01*
X36730Y4720D01*
X36716Y4729D01*
X36700Y4738D01*
X36682Y4747D01*
X36663Y4755D01*
X36642Y4762D01*
X36620Y4769D01*
X36596Y4773D01*
X36571Y4777D01*
X36545Y4777D01*
D02*
G37*
G36*
X31682Y4762D02*
X31558D01*
X31409Y4345D01*
Y4344D01*
X31409Y4342D01*
X31407Y4339D01*
X31405Y4333D01*
X31403Y4327D01*
X31400Y4320D01*
X31398Y4312D01*
X31395Y4302D01*
X31388Y4282D01*
X31380Y4257D01*
X31373Y4232D01*
X31365Y4205D01*
Y4206D01*
X31364Y4207D01*
X31363Y4210D01*
X31362Y4215D01*
X31360Y4220D01*
X31359Y4226D01*
X31356Y4234D01*
X31353Y4242D01*
X31351Y4251D01*
X31347Y4262D01*
X31340Y4284D01*
X31331Y4310D01*
X31321Y4338D01*
X31166Y4762D01*
X31045D01*
X31309Y4067D01*
X31045D01*
D01*
X31682D01*
X31418D01*
X31682Y4762D01*
D02*
G37*
G36*
X36150Y4762D02*
X36025D01*
X35881Y4359D01*
Y4358D01*
X35880Y4356D01*
X35878Y4351D01*
X35877Y4346D01*
X35874Y4339D01*
X35871Y4331D01*
X35868Y4321D01*
X35864Y4310D01*
X35861Y4298D01*
X35856Y4286D01*
X35847Y4258D01*
X35839Y4229D01*
X35830Y4198D01*
Y4199D01*
X35829Y4201D01*
X35828Y4206D01*
X35827Y4212D01*
X35824Y4219D01*
X35822Y4227D01*
X35819Y4237D01*
X35816Y4248D01*
X35812Y4260D01*
X35809Y4272D01*
X35800Y4299D01*
X35791Y4327D01*
X35780Y4356D01*
X35631Y4762D01*
X35514D01*
X35778Y4055D01*
X35779Y4054D01*
X35780Y4050D01*
X35783Y4044D01*
X35786Y4036D01*
X35789Y4027D01*
X35794Y4017D01*
X35798Y4005D01*
X35803Y3993D01*
X35813Y3967D01*
X35824Y3941D01*
X35829Y3928D01*
X35835Y3917D01*
X35840Y3907D01*
X35844Y3898D01*
Y3897D01*
X35846Y3895D01*
X35848Y3893D01*
X35850Y3888D01*
X35857Y3878D01*
X35866Y3865D01*
X35877Y3852D01*
X35889Y3837D01*
X35902Y3824D01*
X35918Y3812D01*
X35919Y3811D01*
X35925Y3808D01*
X35934Y3803D01*
X35944Y3799D01*
X35959Y3794D01*
X35976Y3789D01*
X35993Y3786D01*
X36014Y3785D01*
X36020D01*
X36026Y3786D01*
X36036Y3786D01*
X36047Y3788D01*
X36060Y3791D01*
X36075Y3794D01*
X36090Y3800D01*
X36103Y3910D01*
X36101D01*
X36097Y3909D01*
X36090Y3907D01*
X36080Y3905D01*
X36070Y3903D01*
X36059Y3902D01*
X36047Y3901D01*
X36036Y3900D01*
X36030D01*
X36023Y3901D01*
X36014Y3902D01*
X36004Y3903D01*
X35993Y3905D01*
X35983Y3909D01*
X35974Y3913D01*
X35973Y3914D01*
X35969Y3916D01*
X35966Y3918D01*
X35960Y3923D01*
X35953Y3928D01*
X35947Y3935D01*
X35941Y3942D01*
X35935Y3950D01*
X35934Y3951D01*
X35932Y3953D01*
X35929Y3960D01*
X35926Y3968D01*
X35923Y3973D01*
X35920Y3979D01*
X35918Y3986D01*
X35914Y3994D01*
X35910Y4004D01*
X35907Y4014D01*
X35902Y4026D01*
X35898Y4038D01*
Y4039D01*
X35897Y4040D01*
Y4042D01*
X35895Y4045D01*
X35893Y4054D01*
X35887Y4067D01*
X36150Y4762D01*
D02*
G37*
G36*
X30161Y4201D02*
X30026D01*
Y4067D01*
X30161D01*
Y4201D01*
D02*
G37*
G36*
X32287Y5027D02*
X32169D01*
Y4051D01*
Y4067D01*
X32279D01*
Y4155D01*
X32280Y4154D01*
X32282Y4150D01*
X32286Y4145D01*
X32292Y4139D01*
X32299Y4131D01*
X32307Y4122D01*
X32317Y4113D01*
X32328Y4103D01*
X32342Y4093D01*
X32356Y4084D01*
X32372Y4075D01*
X32390Y4067D01*
X32408Y4061D01*
X32429Y4056D01*
X32450Y4052D01*
X32474Y4051D01*
X32169D01*
X32772D01*
Y4423D01*
X32772Y4431D01*
Y4440D01*
X32771Y4451D01*
X32770Y4463D01*
X32768Y4476D01*
X32766Y4490D01*
X32764Y4505D01*
X32758Y4537D01*
X32750Y4570D01*
X32738Y4602D01*
Y4603D01*
X32737Y4605D01*
X32735Y4610D01*
X32732Y4616D01*
X32729Y4623D01*
X32724Y4631D01*
X32719Y4640D01*
X32713Y4650D01*
X32697Y4670D01*
X32680Y4693D01*
X32658Y4713D01*
X32647Y4723D01*
X32634Y4732D01*
X32633Y4733D01*
X32631Y4734D01*
X32627Y4736D01*
X32622Y4739D01*
X32615Y4743D01*
X32607Y4746D01*
X32598Y4751D01*
X32589Y4755D01*
X32578Y4759D01*
X32565Y4763D01*
X32540Y4770D01*
X32510Y4776D01*
X32495Y4777D01*
X32479Y4777D01*
X32468D01*
X32463Y4777D01*
X32457Y4776D01*
X32441Y4774D01*
X32425Y4771D01*
X32406Y4766D01*
X32386Y4760D01*
X32367Y4751D01*
X32367D01*
X32366Y4750D01*
X32363Y4748D01*
X32359Y4746D01*
X32350Y4740D01*
X32339Y4732D01*
X32326Y4722D01*
X32313Y4711D01*
X32300Y4697D01*
X32287Y4682D01*
Y5027D01*
D02*
G37*
G36*
X29542Y5031D02*
X29534D01*
X29529Y5030D01*
X29522D01*
X29514Y5029D01*
X29506Y5028D01*
X29496Y5027D01*
X29475Y5023D01*
X29452Y5017D01*
X29429Y5010D01*
X29407Y5000D01*
X29406D01*
X29404Y4998D01*
X29402Y4996D01*
X29397Y4994D01*
X29392Y4991D01*
X29386Y4986D01*
X29373Y4976D01*
X29358Y4964D01*
X29342Y4949D01*
X29326Y4930D01*
X29311Y4909D01*
X29310Y4909D01*
X29309Y4907D01*
X29307Y4903D01*
X29304Y4899D01*
X29301Y4893D01*
X29297Y4886D01*
X29293Y4878D01*
X29288Y4869D01*
X29284Y4860D01*
X29279Y4849D01*
X29270Y4825D01*
X29260Y4797D01*
X29251Y4767D01*
Y4766D01*
X29250Y4763D01*
X29249Y4758D01*
X29247Y4752D01*
X29245Y4743D01*
X29244Y4733D01*
X29242Y4720D01*
X29239Y4707D01*
X29237Y4692D01*
X29236Y4675D01*
X29234Y4656D01*
X29232Y4636D01*
X29230Y4614D01*
X29229Y4591D01*
X29228Y4566D01*
Y4524D01*
X29229Y4513D01*
Y4497D01*
X29230Y4481D01*
X29231Y4463D01*
X29233Y4442D01*
X29235Y4421D01*
X29237Y4399D01*
X29243Y4353D01*
X29252Y4308D01*
X29257Y4287D01*
X29263Y4266D01*
Y4265D01*
X29265Y4262D01*
X29267Y4257D01*
X29270Y4249D01*
X29273Y4241D01*
X29278Y4231D01*
X29283Y4220D01*
X29289Y4207D01*
X29304Y4182D01*
X29322Y4156D01*
X29344Y4130D01*
X29355Y4117D01*
X29368Y4107D01*
X29369Y4106D01*
X29371Y4104D01*
X29375Y4101D01*
X29380Y4098D01*
X29386Y4093D01*
X29395Y4089D01*
X29404Y4084D01*
X29415Y4079D01*
X29427Y4074D01*
X29440Y4068D01*
X29454Y4064D01*
X29470Y4059D01*
X29486Y4056D01*
X29504Y4053D01*
X29522Y4051D01*
X29542Y4051D01*
X29228D01*
D01*
X29855D01*
D01*
X29548D01*
X29555Y4051D01*
X29565Y4052D01*
X29576Y4053D01*
X29590Y4056D01*
X29605Y4059D01*
X29621Y4063D01*
X29638Y4068D01*
X29656Y4075D01*
X29674Y4083D01*
X29692Y4092D01*
X29710Y4104D01*
X29728Y4117D01*
X29745Y4132D01*
X29760Y4150D01*
X29761Y4151D01*
X29765Y4155D01*
X29769Y4162D01*
X29775Y4173D01*
X29782Y4185D01*
X29790Y4201D01*
X29798Y4221D01*
X29807Y4243D01*
X29816Y4269D01*
X29824Y4298D01*
X29832Y4330D01*
X29839Y4364D01*
X29846Y4404D01*
X29850Y4446D01*
X29854Y4491D01*
X29855Y4540D01*
Y4556D01*
X29854Y4569D01*
Y4583D01*
X29853Y4600D01*
X29852Y4618D01*
X29850Y4638D01*
X29848Y4660D01*
X29846Y4682D01*
X29840Y4728D01*
X29831Y4773D01*
X29826Y4794D01*
X29820Y4814D01*
Y4815D01*
X29818Y4819D01*
X29816Y4824D01*
X29814Y4831D01*
X29810Y4840D01*
X29806Y4850D01*
X29800Y4861D01*
X29794Y4873D01*
X29780Y4899D01*
X29762Y4926D01*
X29740Y4951D01*
X29729Y4964D01*
X29716Y4975D01*
X29716Y4976D01*
X29713Y4977D01*
X29709Y4980D01*
X29704Y4984D01*
X29697Y4988D01*
X29689Y4992D01*
X29679Y4998D01*
X29668Y5003D01*
X29657Y5008D01*
X29643Y5013D01*
X29629Y5017D01*
X29613Y5022D01*
X29597Y5025D01*
X29579Y5028D01*
X29561Y5030D01*
X29542Y5031D01*
D02*
G37*
G36*
X36767Y3593D02*
X36200D01*
X36649D01*
Y3246D01*
X36648Y3247D01*
X36645Y3251D01*
X36641Y3255D01*
X36634Y3262D01*
X36626Y3269D01*
X36616Y3277D01*
X36605Y3286D01*
X36592Y3295D01*
X36578Y3304D01*
X36563Y3312D01*
X36545Y3320D01*
X36527Y3328D01*
X36507Y3334D01*
X36486Y3338D01*
X36464Y3342D01*
X36441Y3343D01*
X36434D01*
X36428Y3342D01*
X36422D01*
X36414Y3341D01*
X36405Y3340D01*
X36396Y3339D01*
X36374Y3335D01*
X36352Y3329D01*
X36330Y3322D01*
X36307Y3312D01*
X36307D01*
X36305Y3310D01*
X36302Y3308D01*
X36298Y3306D01*
X36288Y3299D01*
X36275Y3290D01*
X36262Y3278D01*
X36249Y3263D01*
X36236Y3246D01*
X36225Y3228D01*
Y3227D01*
X36224Y3225D01*
X36223Y3222D01*
X36222Y3218D01*
X36219Y3213D01*
X36217Y3205D01*
X36216Y3197D01*
X36213Y3188D01*
X36210Y3178D01*
X36208Y3166D01*
X36206Y3154D01*
X36204Y3139D01*
X36203Y3124D01*
X36201Y3108D01*
X36200Y3090D01*
Y2632D01*
X36484D01*
X36318D01*
Y3072D01*
Y3073D01*
Y3075D01*
Y3080D01*
X36319Y3086D01*
Y3093D01*
X36320Y3102D01*
X36323Y3121D01*
X36327Y3142D01*
X36334Y3164D01*
X36344Y3183D01*
X36349Y3192D01*
X36356Y3200D01*
Y3201D01*
X36358Y3202D01*
X36364Y3206D01*
X36373Y3213D01*
X36384Y3221D01*
X36400Y3228D01*
X36419Y3235D01*
X36440Y3239D01*
X36453Y3241D01*
X36474D01*
X36484Y3239D01*
X36497Y3238D01*
X36513Y3234D01*
X36530Y3230D01*
X36546Y3222D01*
X36564Y3213D01*
X36565D01*
X36566Y3213D01*
X36571Y3209D01*
X36579Y3203D01*
X36589Y3194D01*
X36600Y3184D01*
X36611Y3171D01*
X36621Y3156D01*
X36629Y3139D01*
Y3139D01*
X36630Y3138D01*
X36631Y3135D01*
X36632Y3131D01*
X36634Y3126D01*
X36636Y3121D01*
X36637Y3114D01*
X36639Y3106D01*
X36641Y3097D01*
X36643Y3088D01*
X36645Y3078D01*
X36646Y3066D01*
X36648Y3040D01*
X36649Y3012D01*
Y2632D01*
X36767D01*
Y3593D01*
D02*
G37*
G36*
X33188Y3593D02*
X32622D01*
X33070D01*
Y3246D01*
X33069Y3247D01*
X33067Y3251D01*
X33062Y3255D01*
X33055Y3262D01*
X33047Y3269D01*
X33037Y3277D01*
X33027Y3286D01*
X33013Y3295D01*
X32999Y3304D01*
X32984Y3312D01*
X32966Y3320D01*
X32948Y3328D01*
X32929Y3334D01*
X32907Y3338D01*
X32886Y3342D01*
X32862Y3343D01*
X32855D01*
X32849Y3342D01*
X32843D01*
X32835Y3341D01*
X32826Y3340D01*
X32817Y3339D01*
X32796Y3335D01*
X32773Y3329D01*
X32751Y3322D01*
X32729Y3312D01*
X32728D01*
X32726Y3310D01*
X32723Y3308D01*
X32720Y3306D01*
X32709Y3299D01*
X32697Y3290D01*
X32683Y3278D01*
X32670Y3263D01*
X32657Y3246D01*
X32647Y3228D01*
Y3227D01*
X32646Y3225D01*
X32644Y3222D01*
X32643Y3218D01*
X32640Y3213D01*
X32639Y3205D01*
X32637Y3197D01*
X32634Y3188D01*
X32631Y3178D01*
X32630Y3166D01*
X32627Y3154D01*
X32625Y3139D01*
X32624Y3124D01*
X32623Y3108D01*
X32622Y3090D01*
D01*
D01*
Y2632D01*
X32905D01*
X32739D01*
Y3072D01*
Y3073D01*
Y3075D01*
Y3080D01*
X32740Y3086D01*
Y3093D01*
X32741Y3102D01*
X32744Y3121D01*
X32748Y3142D01*
X32755Y3164D01*
X32765Y3183D01*
X32771Y3192D01*
X32778Y3200D01*
Y3201D01*
X32780Y3202D01*
X32785Y3206D01*
X32794Y3213D01*
X32805Y3221D01*
X32821Y3228D01*
X32840Y3235D01*
X32862Y3239D01*
X32874Y3241D01*
X32896D01*
X32905Y3239D01*
X32919Y3238D01*
X32934Y3234D01*
X32951Y3230D01*
X32968Y3222D01*
X32986Y3213D01*
X32986D01*
X32987Y3213D01*
X32993Y3209D01*
X33001Y3203D01*
X33011Y3194D01*
X33021Y3184D01*
X33032Y3171D01*
X33043Y3156D01*
X33051Y3139D01*
Y3139D01*
X33052Y3138D01*
X33052Y3135D01*
X33053Y3131D01*
X33055Y3126D01*
X33057Y3121D01*
X33059Y3114D01*
X33061Y3106D01*
X33062Y3097D01*
X33064Y3088D01*
X33066Y3078D01*
X33068Y3066D01*
X33069Y3040D01*
X33070Y3012D01*
Y2632D01*
X33188D01*
Y3593D01*
D02*
G37*
G36*
X31403Y3343D02*
X31388D01*
X31381Y3342D01*
X31372D01*
X31362Y3341D01*
X31351Y3340D01*
X31328Y3337D01*
X31304Y3334D01*
X31281Y3329D01*
X31259Y3321D01*
X31258D01*
X31256Y3320D01*
X31253Y3320D01*
X31250Y3318D01*
X31240Y3313D01*
X31227Y3307D01*
X31215Y3300D01*
X31201Y3290D01*
X31188Y3280D01*
X31177Y3269D01*
X31177Y3267D01*
X31173Y3263D01*
X31169Y3256D01*
X31162Y3246D01*
X31157Y3235D01*
X31151Y3221D01*
X31144Y3205D01*
X31140Y3188D01*
Y3187D01*
X31139Y3182D01*
X31138Y3175D01*
X31137Y3170D01*
X31136Y3164D01*
Y3156D01*
X31136Y3148D01*
Y3139D01*
X31135Y3130D01*
Y3119D01*
X31134Y3107D01*
Y3094D01*
Y3080D01*
Y2924D01*
Y2922D01*
Y2916D01*
Y2908D01*
Y2898D01*
Y2884D01*
Y2869D01*
X31133Y2853D01*
Y2836D01*
X31132Y2800D01*
X31131Y2784D01*
Y2767D01*
X31130Y2751D01*
X31129Y2737D01*
X31128Y2726D01*
X31127Y2716D01*
Y2715D01*
Y2714D01*
X31125Y2709D01*
X31123Y2700D01*
X31120Y2689D01*
X31116Y2676D01*
X31111Y2662D01*
X31104Y2647D01*
X31096Y2632D01*
X31219D01*
X31220Y2634D01*
X31222Y2638D01*
X31226Y2646D01*
X31229Y2656D01*
X31234Y2668D01*
X31237Y2684D01*
X31241Y2700D01*
X31244Y2718D01*
X31244Y2717D01*
X31246Y2715D01*
X31250Y2712D01*
X31255Y2709D01*
X31260Y2704D01*
X31268Y2699D01*
X31276Y2693D01*
X31284Y2687D01*
X31303Y2674D01*
X31325Y2661D01*
X31347Y2649D01*
X31370Y2639D01*
X31371D01*
X31373Y2638D01*
X31376Y2637D01*
X31381Y2635D01*
X31386Y2634D01*
X31392Y2632D01*
X31400Y2630D01*
X31409Y2628D01*
X31428Y2624D01*
X31450Y2620D01*
X31474Y2618D01*
X31500Y2617D01*
X31096D01*
D01*
X31737D01*
X31510D01*
X31518Y2618D01*
X31528Y2618D01*
X31539Y2619D01*
X31551Y2621D01*
X31565Y2624D01*
X31593Y2630D01*
X31607Y2635D01*
X31623Y2640D01*
X31637Y2646D01*
X31651Y2654D01*
X31664Y2662D01*
X31676Y2672D01*
X31677Y2673D01*
X31679Y2675D01*
X31681Y2677D01*
X31686Y2682D01*
X31690Y2688D01*
X31695Y2694D01*
X31701Y2702D01*
X31706Y2711D01*
X31712Y2721D01*
X31717Y2732D01*
X31723Y2743D01*
X31727Y2756D01*
X31731Y2769D01*
X31734Y2784D01*
X31736Y2799D01*
X31737Y2815D01*
Y2824D01*
X31736Y2833D01*
X31734Y2846D01*
X31731Y2860D01*
X31727Y2876D01*
X31722Y2892D01*
X31714Y2908D01*
Y2909D01*
X31713Y2910D01*
X31709Y2916D01*
X31705Y2923D01*
X31698Y2932D01*
X31689Y2943D01*
X31678Y2955D01*
X31666Y2965D01*
X31653Y2976D01*
X31651Y2977D01*
X31647Y2981D01*
X31639Y2985D01*
X31628Y2990D01*
X31615Y2997D01*
X31601Y3003D01*
X31585Y3009D01*
X31568Y3015D01*
X31566D01*
X31562Y3016D01*
X31554Y3018D01*
X31542Y3020D01*
X31527Y3023D01*
X31509Y3026D01*
X31488Y3029D01*
X31464Y3032D01*
X31462D01*
X31458Y3033D01*
X31450Y3034D01*
X31441Y3035D01*
X31429Y3037D01*
X31415Y3039D01*
X31400Y3041D01*
X31384Y3044D01*
X31350Y3050D01*
X31315Y3056D01*
X31298Y3061D01*
X31282Y3064D01*
X31267Y3069D01*
X31253Y3073D01*
Y3074D01*
Y3077D01*
Y3081D01*
X31252Y3086D01*
Y3097D01*
Y3101D01*
Y3104D01*
Y3105D01*
Y3107D01*
Y3111D01*
X31253Y3115D01*
Y3122D01*
X31254Y3128D01*
X31257Y3144D01*
X31260Y3160D01*
X31267Y3177D01*
X31275Y3193D01*
X31280Y3199D01*
X31286Y3205D01*
X31287Y3206D01*
X31288Y3207D01*
X31291Y3209D01*
X31294Y3212D01*
X31300Y3214D01*
X31305Y3218D01*
X31312Y3221D01*
X31320Y3226D01*
X31329Y3230D01*
X31339Y3233D01*
X31350Y3237D01*
X31362Y3239D01*
X31375Y3242D01*
X31389Y3244D01*
X31404Y3246D01*
X31434D01*
X31441Y3245D01*
X31449Y3244D01*
X31467Y3242D01*
X31487Y3238D01*
X31507Y3233D01*
X31526Y3226D01*
X31535Y3221D01*
X31543Y3216D01*
X31545Y3214D01*
X31549Y3211D01*
X31557Y3203D01*
X31566Y3192D01*
X31570Y3186D01*
X31574Y3178D01*
X31580Y3170D01*
X31584Y3160D01*
X31589Y3150D01*
X31593Y3139D01*
X31598Y3126D01*
X31601Y3113D01*
X31716Y3129D01*
Y3130D01*
X31715Y3132D01*
X31714Y3136D01*
X31714Y3141D01*
X31712Y3147D01*
X31709Y3155D01*
X31704Y3171D01*
X31698Y3190D01*
X31689Y3210D01*
X31678Y3230D01*
X31665Y3247D01*
X31665Y3248D01*
X31664Y3249D01*
X31658Y3254D01*
X31650Y3263D01*
X31639Y3273D01*
X31623Y3285D01*
X31606Y3296D01*
X31585Y3308D01*
X31561Y3318D01*
X31560D01*
X31558Y3319D01*
X31554Y3320D01*
X31549Y3321D01*
X31542Y3324D01*
X31535Y3326D01*
X31526Y3328D01*
X31516Y3330D01*
X31505Y3333D01*
X31492Y3335D01*
X31480Y3337D01*
X31466Y3339D01*
X31436Y3342D01*
X31403Y3343D01*
D02*
G37*
G36*
X35739Y3343D02*
X35733D01*
X35725Y3342D01*
X35715Y3341D01*
X35704Y3340D01*
X35689Y3337D01*
X35673Y3335D01*
X35656Y3331D01*
X35638Y3326D01*
X35619Y3320D01*
X35599Y3312D01*
X35580Y3303D01*
X35560Y3292D01*
X35541Y3279D01*
X35522Y3265D01*
X35505Y3248D01*
X35504Y3247D01*
X35501Y3244D01*
X35497Y3238D01*
X35490Y3231D01*
X35483Y3221D01*
X35476Y3210D01*
X35467Y3197D01*
X35459Y3180D01*
X35450Y3164D01*
X35442Y3144D01*
X35435Y3122D01*
X35428Y3099D01*
X35422Y3074D01*
X35417Y3048D01*
X35415Y3020D01*
X35414Y2990D01*
D01*
D01*
Y2617D01*
Y2977D01*
X35415Y2967D01*
Y2956D01*
X35415Y2943D01*
X35417Y2928D01*
X35419Y2913D01*
X35421Y2896D01*
X35423Y2879D01*
X35431Y2843D01*
X35441Y2809D01*
X35448Y2793D01*
X35455Y2778D01*
Y2777D01*
X35456Y2775D01*
X35459Y2771D01*
X35462Y2766D01*
X35466Y2759D01*
X35472Y2751D01*
X35477Y2743D01*
X35484Y2734D01*
X35492Y2725D01*
X35501Y2716D01*
X35521Y2695D01*
X35545Y2676D01*
X35571Y2659D01*
X35572D01*
X35575Y2657D01*
X35580Y2655D01*
X35585Y2652D01*
X35592Y2649D01*
X35601Y2645D01*
X35610Y2642D01*
X35621Y2638D01*
X35633Y2634D01*
X35646Y2630D01*
X35675Y2623D01*
X35706Y2618D01*
X35722Y2618D01*
X35739Y2617D01*
X36065D01*
D01*
X35745D01*
X35753Y2618D01*
X35763Y2618D01*
X35776Y2619D01*
X35790Y2622D01*
X35806Y2625D01*
X35824Y2628D01*
X35842Y2634D01*
X35861Y2639D01*
X35881Y2647D01*
X35901Y2656D01*
X35920Y2667D01*
X35940Y2679D01*
X35958Y2693D01*
X35976Y2709D01*
X35976Y2710D01*
X35979Y2714D01*
X35984Y2719D01*
X35990Y2727D01*
X35996Y2736D01*
X36004Y2749D01*
X36012Y2762D01*
X36020Y2778D01*
X36028Y2797D01*
X36036Y2817D01*
X36044Y2839D01*
X36051Y2863D01*
X36057Y2890D01*
X36061Y2917D01*
X36064Y2948D01*
X36065Y2980D01*
Y2996D01*
Y2993D01*
X36064Y2998D01*
X36063Y3011D01*
X36061Y3027D01*
X36059Y3046D01*
X36056Y3066D01*
X36051Y3088D01*
X36046Y3111D01*
X36039Y3134D01*
X36030Y3158D01*
X36019Y3181D01*
X36008Y3205D01*
X35993Y3226D01*
X35976Y3246D01*
X35958Y3265D01*
X35957Y3266D01*
X35953Y3269D01*
X35949Y3272D01*
X35942Y3278D01*
X35933Y3283D01*
X35923Y3290D01*
X35910Y3296D01*
X35897Y3304D01*
X35882Y3312D01*
X35865Y3319D01*
X35847Y3325D01*
X35828Y3330D01*
X35807Y3336D01*
X35786Y3339D01*
X35763Y3342D01*
X35739Y3343D01*
D02*
G37*
G36*
X32445Y3328D02*
X32163D01*
X32327D01*
Y2941D01*
Y2941D01*
Y2938D01*
Y2932D01*
Y2926D01*
Y2919D01*
Y2911D01*
X32326Y2891D01*
X32326Y2871D01*
X32325Y2850D01*
X32324Y2841D01*
X32323Y2832D01*
X32321Y2825D01*
X32320Y2817D01*
Y2817D01*
X32319Y2816D01*
Y2813D01*
X32317Y2809D01*
X32315Y2801D01*
X32310Y2791D01*
X32304Y2779D01*
X32296Y2767D01*
X32286Y2755D01*
X32274Y2744D01*
X32272Y2743D01*
X32268Y2741D01*
X32260Y2736D01*
X32249Y2732D01*
X32236Y2726D01*
X32220Y2723D01*
X32203Y2719D01*
X32185Y2718D01*
X32179D01*
X32176Y2719D01*
X32170D01*
X32165Y2720D01*
X32152Y2722D01*
X32136Y2725D01*
X32119Y2730D01*
X32103Y2736D01*
X32085Y2745D01*
X32084D01*
X32083Y2746D01*
X32077Y2751D01*
X32069Y2756D01*
X32059Y2765D01*
X32048Y2775D01*
X32037Y2787D01*
X32027Y2802D01*
X32019Y2818D01*
Y2819D01*
X32018Y2821D01*
X32017Y2824D01*
X32016Y2827D01*
X32014Y2832D01*
X32012Y2838D01*
X32011Y2845D01*
X32009Y2853D01*
X32007Y2862D01*
X32005Y2873D01*
X32004Y2883D01*
X32002Y2896D01*
X32001Y2909D01*
X32000Y2924D01*
X31999Y2939D01*
Y2955D01*
Y3328D01*
X31881D01*
Y2617D01*
Y2632D01*
X31987D01*
Y2734D01*
X31987Y2734D01*
X31990Y2729D01*
X31995Y2724D01*
X32002Y2716D01*
X32010Y2707D01*
X32020Y2697D01*
X32031Y2686D01*
X32045Y2676D01*
X32060Y2665D01*
X32077Y2654D01*
X32094Y2644D01*
X32114Y2635D01*
X32136Y2627D01*
X32159Y2622D01*
X32182Y2618D01*
X32208Y2617D01*
X31881D01*
X32445D01*
X32218D01*
X32224Y2618D01*
X32230D01*
X32245Y2619D01*
X32263Y2622D01*
X32282Y2627D01*
X32302Y2632D01*
X32323Y2640D01*
X32324D01*
X32326Y2641D01*
X32328Y2643D01*
X32332Y2644D01*
X32341Y2649D01*
X32353Y2656D01*
X32366Y2665D01*
X32379Y2675D01*
X32392Y2686D01*
X32402Y2699D01*
X32403Y2701D01*
X32407Y2705D01*
X32411Y2713D01*
X32416Y2723D01*
X32422Y2736D01*
X32428Y2751D01*
X32433Y2767D01*
X32438Y2786D01*
Y2788D01*
X32439Y2792D01*
X32440Y2801D01*
X32441Y2813D01*
X32442Y2820D01*
Y2828D01*
X32443Y2838D01*
X32444Y2848D01*
Y2858D01*
X32445Y2870D01*
Y3328D01*
D02*
G37*
G36*
X34949Y3343D02*
X34938D01*
X34933Y3342D01*
X34926D01*
X34911Y3340D01*
X34893Y3337D01*
X34873Y3333D01*
X34853Y3328D01*
X34833Y3320D01*
X34832D01*
X34830Y3319D01*
X34828Y3317D01*
X34824Y3315D01*
X34815Y3311D01*
X34803Y3304D01*
X34791Y3296D01*
X34778Y3286D01*
X34765Y3274D01*
X34754Y3261D01*
X34754Y3259D01*
X34750Y3254D01*
X34746Y3246D01*
X34740Y3236D01*
X34734Y3223D01*
X34728Y3208D01*
X34722Y3192D01*
X34718Y3173D01*
Y3172D01*
X34717Y3167D01*
X34716Y3164D01*
X34715Y3159D01*
Y3153D01*
X34714Y3147D01*
X34713Y3139D01*
X34713Y3131D01*
Y3122D01*
X34712Y3111D01*
Y3100D01*
X34711Y3088D01*
Y2632D01*
X35275D01*
Y3328D01*
X35169D01*
Y3229D01*
X35168Y3230D01*
X35166Y3234D01*
X35161Y3239D01*
X35155Y3246D01*
X35147Y3255D01*
X35138Y3265D01*
X35126Y3275D01*
X35113Y3286D01*
X35099Y3296D01*
X35082Y3307D01*
X35064Y3316D01*
X35044Y3325D01*
X35023Y3332D01*
X35000Y3338D01*
X34975Y3342D01*
X34949Y3343D01*
D02*
G37*
G36*
X33787Y3593D02*
X33669D01*
Y2632D01*
X33787D01*
Y3593D01*
D02*
G37*
G36*
X33485D02*
X33367D01*
Y3457D01*
X33485D01*
Y3328D01*
X33367D01*
Y2632D01*
X33485D01*
Y3593D01*
D02*
G37*
%LPD*%
G36*
X30649Y4816D02*
X30651Y4813D01*
X30655Y4810D01*
X30658Y4807D01*
X30664Y4802D01*
X30677Y4792D01*
X30693Y4779D01*
X30712Y4766D01*
X30734Y4751D01*
X30759Y4736D01*
X30760D01*
X30762Y4734D01*
X30765Y4732D01*
X30771Y4729D01*
X30777Y4726D01*
X30784Y4722D01*
X30800Y4713D01*
X30819Y4703D01*
X30840Y4693D01*
X30862Y4684D01*
X30882Y4675D01*
Y4067D01*
X30647D01*
Y4818D01*
X30648D01*
X30649Y4816D01*
D02*
G37*
G36*
X35130Y4679D02*
X35137Y4678D01*
X35145Y4677D01*
X35153Y4675D01*
X35163Y4672D01*
X35173Y4669D01*
X35183Y4663D01*
X35194Y4658D01*
X35206Y4652D01*
X35217Y4644D01*
X35228Y4635D01*
X35240Y4624D01*
X35250Y4612D01*
X35251Y4612D01*
X35253Y4610D01*
X35256Y4605D01*
X35259Y4600D01*
X35264Y4593D01*
X35268Y4585D01*
X35274Y4575D01*
X35278Y4563D01*
X35283Y4550D01*
X35289Y4536D01*
X35293Y4520D01*
X35298Y4503D01*
X35301Y4484D01*
X35304Y4464D01*
X35306Y4442D01*
X35307Y4419D01*
Y4417D01*
Y4414D01*
Y4407D01*
X35306Y4398D01*
Y4389D01*
X35305Y4377D01*
X35304Y4364D01*
X35302Y4350D01*
X35299Y4321D01*
X35292Y4290D01*
X35289Y4276D01*
X35284Y4263D01*
X35279Y4250D01*
X35273Y4239D01*
X35272Y4238D01*
X35270Y4235D01*
X35267Y4231D01*
X35263Y4224D01*
X35257Y4218D01*
X35250Y4210D01*
X35242Y4202D01*
X35233Y4194D01*
X35223Y4185D01*
X35212Y4177D01*
X35200Y4169D01*
X35186Y4163D01*
X35172Y4157D01*
X35157Y4152D01*
X35140Y4150D01*
X35123Y4149D01*
X35119D01*
X35116Y4150D01*
X35109D01*
X35103Y4150D01*
X35095Y4152D01*
X35086Y4154D01*
X35077Y4157D01*
X35067Y4160D01*
X35056Y4165D01*
X35045Y4170D01*
X35034Y4177D01*
X35022Y4184D01*
X35011Y4193D01*
X35000Y4204D01*
X34989Y4216D01*
X34988Y4216D01*
X34986Y4219D01*
X34984Y4223D01*
X34980Y4228D01*
X34976Y4235D01*
X34971Y4244D01*
X34966Y4254D01*
X34960Y4265D01*
X34956Y4279D01*
X34951Y4293D01*
X34946Y4310D01*
X34942Y4328D01*
X34938Y4347D01*
X34936Y4368D01*
X34934Y4390D01*
X34933Y4414D01*
Y4416D01*
Y4421D01*
Y4428D01*
X34934Y4437D01*
X34935Y4448D01*
X34936Y4461D01*
X34937Y4475D01*
X34940Y4491D01*
X34946Y4523D01*
X34951Y4540D01*
X34956Y4557D01*
X34962Y4573D01*
X34969Y4588D01*
X34977Y4603D01*
X34987Y4615D01*
X34988Y4616D01*
X34990Y4618D01*
X34993Y4621D01*
X34997Y4625D01*
X35002Y4630D01*
X35008Y4636D01*
X35016Y4642D01*
X35024Y4648D01*
X35033Y4654D01*
X35043Y4660D01*
X35065Y4670D01*
X35077Y4674D01*
X35090Y4678D01*
X35103Y4679D01*
X35117Y4680D01*
X35125D01*
X35130Y4679D01*
D02*
G37*
G36*
X34812Y4407D02*
X34813Y4395D01*
X34814Y4380D01*
X34816Y4363D01*
X34819Y4344D01*
X34822Y4323D01*
X34828Y4301D01*
X34833Y4279D01*
X34840Y4256D01*
X34849Y4232D01*
X34860Y4210D01*
X34871Y4189D01*
X34885Y4167D01*
X34901Y4149D01*
X34902Y4148D01*
X34904Y4144D01*
X34910Y4140D01*
X34917Y4133D01*
X34925Y4126D01*
X34936Y4118D01*
X34947Y4109D01*
X34960Y4100D01*
X34975Y4091D01*
X34992Y4083D01*
X35009Y4074D01*
X35027Y4067D01*
X35047Y4060D01*
X35068Y4056D01*
X35090Y4052D01*
X35113Y4051D01*
X34812D01*
Y4416D01*
X34812Y4407D01*
D02*
G37*
G36*
X33482Y4414D02*
X33486Y4413D01*
X33490Y4411D01*
X33498Y4408D01*
X33506Y4406D01*
X33515Y4403D01*
X33527Y4400D01*
X33540Y4397D01*
X33554Y4393D01*
X33570Y4389D01*
X33587Y4385D01*
X33606Y4381D01*
X33626Y4378D01*
X33648Y4374D01*
X33672Y4371D01*
X33672D01*
X33675Y4370D01*
X33679D01*
X33683Y4369D01*
X33689Y4368D01*
X33696Y4366D01*
X33712Y4364D01*
X33729Y4360D01*
X33746Y4356D01*
X33761Y4351D01*
X33768Y4349D01*
X33774Y4347D01*
X33775Y4346D01*
X33779Y4344D01*
X33785Y4341D01*
X33791Y4338D01*
X33799Y4332D01*
X33806Y4325D01*
X33814Y4318D01*
X33821Y4309D01*
X33821Y4308D01*
X33823Y4305D01*
X33826Y4299D01*
X33829Y4293D01*
X33831Y4284D01*
X33834Y4275D01*
X33836Y4265D01*
X33837Y4253D01*
Y4252D01*
Y4251D01*
Y4249D01*
X33836Y4245D01*
X33835Y4237D01*
X33832Y4226D01*
X33828Y4214D01*
X33822Y4200D01*
X33813Y4188D01*
X33802Y4175D01*
X33800Y4175D01*
X33796Y4171D01*
X33787Y4166D01*
X33775Y4160D01*
X33761Y4154D01*
X33743Y4150D01*
X33721Y4146D01*
X33697Y4144D01*
X33690D01*
X33686Y4145D01*
X33680D01*
X33672Y4146D01*
X33656Y4148D01*
X33638Y4151D01*
X33617Y4157D01*
X33597Y4164D01*
X33576Y4174D01*
X33575D01*
X33573Y4175D01*
X33571Y4176D01*
X33567Y4179D01*
X33558Y4186D01*
X33547Y4195D01*
X33533Y4207D01*
X33521Y4220D01*
X33508Y4236D01*
X33498Y4255D01*
Y4256D01*
X33498Y4257D01*
X33497Y4259D01*
X33496Y4262D01*
X33494Y4266D01*
X33492Y4272D01*
X33490Y4277D01*
X33489Y4284D01*
X33487Y4292D01*
X33485Y4300D01*
X33483Y4310D01*
X33482Y4321D01*
X33481Y4332D01*
X33480Y4344D01*
X33479Y4357D01*
Y4372D01*
Y4415D01*
X33480D01*
X33482Y4414D01*
D02*
G37*
G36*
X37383Y4342D02*
Y4067D01*
X37070D01*
X37300Y4422D01*
X37383Y4342D01*
D02*
G37*
G36*
X34400Y4679D02*
X34408Y4678D01*
X34417Y4677D01*
X34427Y4675D01*
X34438Y4672D01*
X34448Y4669D01*
X34461Y4664D01*
X34473Y4659D01*
X34485Y4652D01*
X34498Y4645D01*
X34509Y4636D01*
X34521Y4625D01*
X34532Y4613D01*
X34533Y4612D01*
X34535Y4611D01*
X34538Y4606D01*
X34541Y4601D01*
X34546Y4594D01*
X34551Y4586D01*
X34556Y4575D01*
X34561Y4563D01*
X34567Y4551D01*
X34572Y4536D01*
X34577Y4520D01*
X34581Y4502D01*
X34585Y4482D01*
X34588Y4461D01*
X34589Y4439D01*
X34590Y4414D01*
Y4413D01*
Y4408D01*
Y4402D01*
X34589Y4392D01*
X34589Y4381D01*
X34588Y4369D01*
X34586Y4355D01*
X34583Y4340D01*
X34576Y4307D01*
X34572Y4290D01*
X34566Y4274D01*
X34559Y4257D01*
X34551Y4242D01*
X34542Y4228D01*
X34532Y4215D01*
X34531Y4214D01*
X34530Y4212D01*
X34526Y4208D01*
X34522Y4204D01*
X34516Y4199D01*
X34509Y4194D01*
X34501Y4188D01*
X34492Y4182D01*
X34482Y4175D01*
X34471Y4169D01*
X34459Y4164D01*
X34446Y4159D01*
X34432Y4155D01*
X34417Y4151D01*
X34402Y4150D01*
X34386Y4149D01*
X34382D01*
X34377Y4150D01*
X34372D01*
X34364Y4150D01*
X34356Y4152D01*
X34346Y4154D01*
X34335Y4157D01*
X34324Y4160D01*
X34312Y4165D01*
X34300Y4170D01*
X34288Y4176D01*
X34275Y4184D01*
X34264Y4193D01*
X34252Y4203D01*
X34241Y4215D01*
X34240Y4216D01*
X34238Y4218D01*
X34235Y4222D01*
X34232Y4227D01*
X34227Y4234D01*
X34222Y4243D01*
X34217Y4253D01*
X34211Y4265D01*
X34206Y4279D01*
X34200Y4294D01*
X34195Y4310D01*
X34191Y4329D01*
X34187Y4348D01*
X34184Y4370D01*
X34183Y4393D01*
X34182Y4418D01*
Y4420D01*
Y4423D01*
Y4430D01*
X34183Y4439D01*
X34184Y4450D01*
X34184Y4463D01*
X34186Y4476D01*
X34189Y4491D01*
X34196Y4522D01*
X34200Y4538D01*
X34207Y4555D01*
X34213Y4571D01*
X34221Y4586D01*
X34230Y4600D01*
X34241Y4613D01*
X34242Y4614D01*
X34243Y4616D01*
X34247Y4620D01*
X34251Y4624D01*
X34257Y4629D01*
X34264Y4635D01*
X34272Y4641D01*
X34281Y4647D01*
X34291Y4654D01*
X34302Y4659D01*
X34314Y4665D01*
X34327Y4670D01*
X34341Y4674D01*
X34355Y4678D01*
X34370Y4679D01*
X34386Y4680D01*
X34395D01*
X34400Y4679D01*
D02*
G37*
G36*
X36557Y4679D02*
X36564Y4678D01*
X36572Y4678D01*
X36582Y4676D01*
X36592Y4673D01*
X36613Y4667D01*
X36625Y4662D01*
X36637Y4657D01*
X36648Y4651D01*
X36660Y4644D01*
X36670Y4636D01*
X36681Y4626D01*
X36682Y4625D01*
X36684Y4623D01*
X36686Y4620D01*
X36690Y4616D01*
X36695Y4611D01*
X36699Y4604D01*
X36704Y4596D01*
X36710Y4587D01*
X36715Y4578D01*
X36720Y4567D01*
X36726Y4554D01*
X36730Y4542D01*
X36734Y4528D01*
X36737Y4513D01*
X36740Y4497D01*
X36742Y4481D01*
X36353D01*
Y4482D01*
Y4485D01*
X36354Y4489D01*
X36355Y4496D01*
X36356Y4503D01*
X36357Y4511D01*
X36362Y4530D01*
X36367Y4551D01*
X36375Y4573D01*
X36385Y4594D01*
X36391Y4603D01*
X36397Y4612D01*
X36398Y4612D01*
X36400Y4614D01*
X36404Y4618D01*
X36408Y4622D01*
X36414Y4628D01*
X36420Y4633D01*
X36428Y4639D01*
X36437Y4646D01*
X36447Y4653D01*
X36458Y4659D01*
X36471Y4664D01*
X36483Y4670D01*
X36497Y4674D01*
X36512Y4678D01*
X36528Y4679D01*
X36544Y4680D01*
X36552D01*
X36557Y4679D01*
D02*
G37*
G36*
X32482Y4679D02*
X32488Y4678D01*
X32496Y4677D01*
X32505Y4675D01*
X32514Y4672D01*
X32524Y4669D01*
X32535Y4664D01*
X32546Y4660D01*
X32557Y4654D01*
X32567Y4645D01*
X32579Y4637D01*
X32590Y4628D01*
X32599Y4616D01*
X32600Y4615D01*
X32601Y4613D01*
X32604Y4609D01*
X32607Y4604D01*
X32611Y4597D01*
X32615Y4588D01*
X32621Y4579D01*
X32625Y4567D01*
X32630Y4554D01*
X32635Y4538D01*
X32639Y4521D01*
X32643Y4504D01*
X32647Y4484D01*
X32648Y4462D01*
X32650Y4439D01*
X32651Y4414D01*
Y4412D01*
Y4407D01*
Y4401D01*
X32650Y4392D01*
X32649Y4381D01*
X32648Y4368D01*
X32647Y4354D01*
X32644Y4339D01*
X32638Y4307D01*
X32632Y4290D01*
X32627Y4274D01*
X32621Y4257D01*
X32614Y4242D01*
X32605Y4228D01*
X32595Y4215D01*
X32594Y4214D01*
X32592Y4212D01*
X32590Y4208D01*
X32585Y4204D01*
X32580Y4199D01*
X32573Y4194D01*
X32565Y4188D01*
X32557Y4182D01*
X32538Y4169D01*
X32515Y4159D01*
X32503Y4155D01*
X32491Y4151D01*
X32477Y4150D01*
X32463Y4149D01*
X32456D01*
X32450Y4150D01*
X32443Y4150D01*
X32435Y4152D01*
X32427Y4154D01*
X32417Y4157D01*
X32408Y4159D01*
X32397Y4164D01*
X32386Y4169D01*
X32375Y4175D01*
X32364Y4183D01*
X32353Y4191D01*
X32342Y4200D01*
X32332Y4211D01*
X32331Y4212D01*
X32329Y4214D01*
X32326Y4218D01*
X32323Y4223D01*
X32319Y4230D01*
X32315Y4238D01*
X32309Y4248D01*
X32304Y4259D01*
X32300Y4272D01*
X32294Y4286D01*
X32290Y4302D01*
X32285Y4319D01*
X32283Y4338D01*
X32280Y4358D01*
X32278Y4381D01*
X32277Y4404D01*
Y4406D01*
Y4410D01*
Y4417D01*
X32278Y4427D01*
X32279Y4439D01*
X32280Y4453D01*
X32282Y4467D01*
X32284Y4483D01*
X32291Y4518D01*
X32295Y4535D01*
X32301Y4553D01*
X32307Y4569D01*
X32315Y4585D01*
X32323Y4600D01*
X32333Y4613D01*
X32334Y4614D01*
X32335Y4616D01*
X32338Y4620D01*
X32342Y4624D01*
X32348Y4629D01*
X32354Y4635D01*
X32362Y4641D01*
X32370Y4647D01*
X32380Y4654D01*
X32390Y4659D01*
X32413Y4670D01*
X32426Y4674D01*
X32440Y4678D01*
X32453Y4679D01*
X32468Y4680D01*
X32475D01*
X32482Y4679D01*
D02*
G37*
G36*
X32772Y4051D02*
X32482D01*
X32488Y4052D01*
X32495Y4053D01*
X32504Y4054D01*
X32513Y4055D01*
X32524Y4057D01*
X32548Y4062D01*
X32573Y4071D01*
X32587Y4075D01*
X32600Y4082D01*
X32614Y4089D01*
X32627Y4097D01*
X32628Y4098D01*
X32630Y4099D01*
X32633Y4101D01*
X32639Y4105D01*
X32644Y4110D01*
X32651Y4116D01*
X32658Y4122D01*
X32666Y4130D01*
X32675Y4139D01*
X32684Y4148D01*
X32693Y4158D01*
X32702Y4170D01*
X32711Y4183D01*
X32719Y4195D01*
X32735Y4224D01*
Y4225D01*
X32737Y4228D01*
X32738Y4232D01*
X32741Y4239D01*
X32744Y4247D01*
X32747Y4256D01*
X32750Y4267D01*
X32754Y4279D01*
X32757Y4292D01*
X32761Y4307D01*
X32763Y4323D01*
X32766Y4339D01*
X32769Y4356D01*
X32771Y4374D01*
X32772Y4414D01*
Y4051D01*
D02*
G37*
G36*
X29557Y4933D02*
X29564Y4932D01*
X29572Y4930D01*
X29581Y4927D01*
X29590Y4925D01*
X29600Y4921D01*
X29610Y4917D01*
X29621Y4911D01*
X29633Y4904D01*
X29643Y4896D01*
X29653Y4887D01*
X29663Y4877D01*
X29673Y4864D01*
X29674Y4863D01*
X29675Y4860D01*
X29678Y4854D01*
X29683Y4847D01*
X29687Y4836D01*
X29691Y4824D01*
X29698Y4809D01*
X29703Y4791D01*
X29708Y4770D01*
X29714Y4746D01*
X29719Y4720D01*
X29724Y4691D01*
X29728Y4658D01*
X29731Y4622D01*
X29732Y4583D01*
X29733Y4540D01*
Y4539D01*
Y4538D01*
Y4534D01*
Y4530D01*
Y4524D01*
Y4518D01*
X29732Y4511D01*
Y4502D01*
X29732Y4483D01*
X29731Y4461D01*
X29729Y4438D01*
X29726Y4412D01*
X29724Y4386D01*
X29720Y4359D01*
X29716Y4332D01*
X29710Y4307D01*
X29704Y4283D01*
X29696Y4261D01*
X29688Y4241D01*
X29683Y4233D01*
X29678Y4225D01*
X29677Y4224D01*
X29675Y4222D01*
X29673Y4218D01*
X29668Y4213D01*
X29663Y4207D01*
X29657Y4201D01*
X29649Y4194D01*
X29641Y4187D01*
X29631Y4179D01*
X29620Y4173D01*
X29609Y4166D01*
X29597Y4160D01*
X29584Y4155D01*
X29571Y4151D01*
X29557Y4149D01*
X29542Y4148D01*
X29538D01*
X29534Y4149D01*
X29528D01*
X29521Y4150D01*
X29513Y4152D01*
X29504Y4154D01*
X29494Y4158D01*
X29484Y4162D01*
X29473Y4166D01*
X29462Y4173D01*
X29451Y4181D01*
X29439Y4190D01*
X29427Y4199D01*
X29417Y4212D01*
X29406Y4225D01*
X29405Y4226D01*
X29403Y4229D01*
X29401Y4234D01*
X29397Y4241D01*
X29393Y4251D01*
X29388Y4263D01*
X29383Y4277D01*
X29377Y4294D01*
X29373Y4314D01*
X29368Y4337D01*
X29363Y4363D01*
X29359Y4391D01*
X29355Y4423D01*
X29352Y4459D01*
X29352Y4478D01*
X29351Y4497D01*
X29350Y4519D01*
Y4540D01*
Y4541D01*
Y4543D01*
Y4546D01*
Y4551D01*
Y4556D01*
Y4563D01*
X29351Y4571D01*
Y4579D01*
X29352Y4597D01*
X29352Y4620D01*
X29354Y4644D01*
X29357Y4669D01*
X29360Y4695D01*
X29363Y4721D01*
X29368Y4748D01*
X29373Y4773D01*
X29379Y4797D01*
X29387Y4819D01*
X29395Y4839D01*
X29400Y4847D01*
X29405Y4855D01*
X29406Y4856D01*
X29408Y4859D01*
X29410Y4862D01*
X29415Y4868D01*
X29420Y4873D01*
X29427Y4880D01*
X29435Y4887D01*
X29443Y4894D01*
X29452Y4901D01*
X29463Y4909D01*
X29475Y4916D01*
X29487Y4921D01*
X29500Y4926D01*
X29514Y4930D01*
X29528Y4933D01*
X29543Y4934D01*
X29551D01*
X29557Y4933D01*
D02*
G37*
G36*
X31256Y2980D02*
X31260Y2978D01*
X31265Y2976D01*
X31272Y2974D01*
X31280Y2971D01*
X31290Y2968D01*
X31301Y2965D01*
X31314Y2962D01*
X31328Y2958D01*
X31344Y2954D01*
X31361Y2950D01*
X31381Y2947D01*
X31400Y2943D01*
X31423Y2940D01*
X31446Y2936D01*
X31447D01*
X31450Y2935D01*
X31453D01*
X31458Y2934D01*
X31464Y2933D01*
X31470Y2932D01*
X31486Y2929D01*
X31503Y2925D01*
X31520Y2922D01*
X31535Y2916D01*
X31542Y2915D01*
X31549Y2912D01*
X31549Y2911D01*
X31554Y2909D01*
X31559Y2907D01*
X31566Y2903D01*
X31574Y2898D01*
X31581Y2891D01*
X31589Y2883D01*
X31595Y2874D01*
X31596Y2874D01*
X31598Y2870D01*
X31600Y2865D01*
X31603Y2858D01*
X31606Y2850D01*
X31608Y2841D01*
X31610Y2830D01*
X31611Y2818D01*
Y2817D01*
Y2817D01*
Y2814D01*
X31610Y2810D01*
X31609Y2802D01*
X31607Y2792D01*
X31602Y2779D01*
X31597Y2766D01*
X31588Y2753D01*
X31576Y2741D01*
X31574Y2740D01*
X31570Y2736D01*
X31561Y2731D01*
X31549Y2726D01*
X31535Y2719D01*
X31517Y2715D01*
X31496Y2711D01*
X31472Y2709D01*
X31465D01*
X31460Y2710D01*
X31454D01*
X31447Y2711D01*
X31431Y2713D01*
X31412Y2717D01*
X31392Y2722D01*
X31371Y2729D01*
X31351Y2739D01*
X31350D01*
X31348Y2741D01*
X31345Y2742D01*
X31342Y2744D01*
X31333Y2751D01*
X31321Y2760D01*
X31308Y2772D01*
X31295Y2785D01*
X31283Y2801D01*
X31273Y2820D01*
Y2821D01*
X31272Y2822D01*
X31271Y2825D01*
X31270Y2827D01*
X31268Y2832D01*
X31267Y2837D01*
X31265Y2842D01*
X31263Y2850D01*
X31261Y2858D01*
X31260Y2866D01*
X31258Y2875D01*
X31256Y2886D01*
X31255Y2898D01*
X31254Y2909D01*
X31253Y2923D01*
Y2937D01*
Y2981D01*
X31254D01*
X31256Y2980D01*
D02*
G37*
G36*
X35753Y3245D02*
X35761Y3244D01*
X35770Y3242D01*
X35780Y3240D01*
X35791Y3238D01*
X35802Y3234D01*
X35814Y3230D01*
X35826Y3224D01*
X35838Y3217D01*
X35851Y3210D01*
X35862Y3201D01*
X35874Y3190D01*
X35885Y3179D01*
X35886Y3178D01*
X35888Y3176D01*
X35891Y3172D01*
X35894Y3166D01*
X35899Y3159D01*
X35904Y3151D01*
X35909Y3140D01*
X35914Y3129D01*
X35920Y3116D01*
X35925Y3101D01*
X35930Y3085D01*
X35935Y3067D01*
X35938Y3048D01*
X35941Y3026D01*
X35943Y3004D01*
X35943Y2980D01*
Y2978D01*
Y2974D01*
Y2967D01*
X35943Y2957D01*
X35942Y2947D01*
X35941Y2934D01*
X35939Y2920D01*
X35936Y2905D01*
X35929Y2872D01*
X35925Y2856D01*
X35919Y2839D01*
X35912Y2823D01*
X35904Y2808D01*
X35895Y2793D01*
X35885Y2780D01*
X35885Y2779D01*
X35883Y2777D01*
X35879Y2774D01*
X35875Y2769D01*
X35869Y2765D01*
X35862Y2759D01*
X35854Y2753D01*
X35845Y2747D01*
X35836Y2741D01*
X35824Y2734D01*
X35812Y2729D01*
X35799Y2725D01*
X35786Y2720D01*
X35770Y2717D01*
X35755Y2715D01*
X35739Y2714D01*
X35736D01*
X35730Y2715D01*
X35725D01*
X35717Y2716D01*
X35709Y2718D01*
X35699Y2719D01*
X35688Y2722D01*
X35677Y2726D01*
X35665Y2730D01*
X35654Y2735D01*
X35641Y2742D01*
X35629Y2750D01*
X35617Y2759D01*
X35605Y2768D01*
X35594Y2780D01*
X35593Y2781D01*
X35591Y2784D01*
X35588Y2787D01*
X35585Y2792D01*
X35580Y2800D01*
X35575Y2808D01*
X35570Y2818D01*
X35564Y2831D01*
X35559Y2844D01*
X35554Y2859D01*
X35548Y2875D01*
X35544Y2894D01*
X35540Y2914D01*
X35538Y2935D01*
X35536Y2958D01*
X35535Y2983D01*
Y2985D01*
Y2989D01*
Y2996D01*
X35536Y3005D01*
X35537Y3015D01*
X35538Y3028D01*
X35539Y3041D01*
X35542Y3056D01*
X35549Y3088D01*
X35554Y3104D01*
X35560Y3121D01*
X35566Y3136D01*
X35574Y3151D01*
X35583Y3165D01*
X35594Y3179D01*
X35595Y3180D01*
X35596Y3181D01*
X35600Y3185D01*
X35605Y3189D01*
X35610Y3194D01*
X35617Y3200D01*
X35625Y3206D01*
X35634Y3213D01*
X35644Y3219D01*
X35655Y3224D01*
X35667Y3230D01*
X35680Y3235D01*
X35694Y3239D01*
X35708Y3243D01*
X35723Y3245D01*
X35739Y3246D01*
X35748D01*
X35753Y3245D01*
D02*
G37*
G36*
X34986Y3239D02*
X34993Y3238D01*
X35001Y3238D01*
X35009Y3237D01*
X35018Y3234D01*
X35038Y3229D01*
X35060Y3220D01*
X35071Y3214D01*
X35082Y3208D01*
X35092Y3201D01*
X35103Y3192D01*
X35104Y3191D01*
X35106Y3189D01*
X35109Y3187D01*
X35111Y3182D01*
X35116Y3177D01*
X35120Y3170D01*
X35126Y3162D01*
X35130Y3151D01*
X35135Y3139D01*
X35141Y3127D01*
X35145Y3112D01*
X35149Y3096D01*
X35152Y3077D01*
X35155Y3057D01*
X35157Y3035D01*
X35158Y3011D01*
Y2632D01*
X34828D01*
Y3054D01*
Y3055D01*
Y3057D01*
Y3061D01*
Y3065D01*
Y3072D01*
X34829Y3079D01*
X34830Y3095D01*
X34832Y3112D01*
X34835Y3130D01*
X34838Y3147D01*
X34843Y3162D01*
X34844Y3164D01*
X34845Y3168D01*
X34849Y3174D01*
X34853Y3182D01*
X34861Y3191D01*
X34869Y3201D01*
X34879Y3210D01*
X34892Y3219D01*
X34894Y3220D01*
X34898Y3222D01*
X34905Y3226D01*
X34915Y3230D01*
X34927Y3233D01*
X34941Y3237D01*
X34957Y3239D01*
X34974Y3240D01*
X34981D01*
X34986Y3239D01*
D02*
G37*
D13*
X121837Y40601D02*
D03*
X122444D02*
D03*
D14*
X79700Y46566D02*
D03*
X81975D02*
D03*
D15*
X82540Y47944D02*
D03*
X79135D02*
D03*
D16*
X82540Y46369D02*
D03*
X79135D02*
D03*
D35*
X136022Y2838D02*
D03*
X130746Y1838D02*
D03*
X128547Y2838D02*
D03*
X123271Y1838D02*
D03*
X121072Y2838D02*
D03*
X115796Y1838D02*
D03*
X110722Y2838D02*
D03*
X105446Y1838D02*
D03*
X101372Y2838D02*
D03*
X96096Y1838D02*
D03*
X86696Y1838D02*
D03*
X91972Y2838D02*
D03*
X77346Y1838D02*
D03*
X82622Y2838D02*
D03*
X21096Y1838D02*
D03*
X26372Y2838D02*
D03*
X11696Y1838D02*
D03*
X16972Y2838D02*
D03*
X2346Y1838D02*
D03*
X7622Y2838D02*
D03*
X105122Y10338D02*
D03*
X99846Y9338D02*
D03*
X85796D02*
D03*
X91072Y10338D02*
D03*
X78296Y9338D02*
D03*
X83572Y10338D02*
D03*
X70780Y9338D02*
D03*
X76056Y10338D02*
D03*
X63263Y9338D02*
D03*
X68539Y10338D02*
D03*
X55746Y9338D02*
D03*
X61022Y10338D02*
D03*
X48246Y9338D02*
D03*
X53522Y10338D02*
D03*
X40771Y9338D02*
D03*
X46047Y10338D02*
D03*
X33296Y9338D02*
D03*
X38572Y10338D02*
D03*
X25746Y9338D02*
D03*
X31022Y10338D02*
D03*
X18296Y9338D02*
D03*
X23572Y10338D02*
D03*
X6096Y9338D02*
D03*
X11372Y10338D02*
D03*
X107022Y17838D02*
D03*
X101746Y16838D02*
D03*
X89546Y16838D02*
D03*
X94822Y17838D02*
D03*
X82046Y16838D02*
D03*
X87322Y17838D02*
D03*
X74546Y16838D02*
D03*
X79822Y17838D02*
D03*
X67021Y16838D02*
D03*
X72297Y17838D02*
D03*
X59496Y16838D02*
D03*
X64772Y17838D02*
D03*
X52021Y16888D02*
D03*
X57297Y17888D02*
D03*
X44546Y16838D02*
D03*
X49822Y17838D02*
D03*
X36996Y16838D02*
D03*
X42272Y17838D02*
D03*
X29546Y16838D02*
D03*
X34822Y17838D02*
D03*
X22046Y16838D02*
D03*
X27322Y17838D02*
D03*
X14546Y16838D02*
D03*
X19822Y17838D02*
D03*
X4196Y16838D02*
D03*
X9472Y17838D02*
D03*
X136022Y25338D02*
D03*
X130746Y24338D02*
D03*
X128522Y25338D02*
D03*
X123246Y24338D02*
D03*
X121022Y25338D02*
D03*
X115746Y24338D02*
D03*
X109822Y25338D02*
D03*
X104546Y24338D02*
D03*
X50146Y24338D02*
D03*
X55422Y25338D02*
D03*
X42646Y24338D02*
D03*
X47922Y25338D02*
D03*
X35146Y24338D02*
D03*
X40422Y25338D02*
D03*
X27646Y24338D02*
D03*
X32922Y25338D02*
D03*
X20146Y24338D02*
D03*
X25422Y25338D02*
D03*
X12646Y24338D02*
D03*
X17922Y25338D02*
D03*
X3296Y24338D02*
D03*
X8572Y25338D02*
D03*
X61396Y31838D02*
D03*
X66672Y32838D02*
D03*
X53896Y31838D02*
D03*
X59172Y32838D02*
D03*
X46396Y31838D02*
D03*
X51672Y32838D02*
D03*
X38896Y31838D02*
D03*
X44172Y32838D02*
D03*
X31396Y31838D02*
D03*
X36672Y32838D02*
D03*
X23896Y31838D02*
D03*
X29172Y32838D02*
D03*
X16396Y31838D02*
D03*
X21672Y32838D02*
D03*
X8896Y31838D02*
D03*
X14172Y32838D02*
D03*
X1396Y31838D02*
D03*
X6672Y32838D02*
D03*
X136072Y44088D02*
D03*
X130796Y43088D02*
D03*
X128547Y44088D02*
D03*
X123271Y43088D02*
D03*
X121022Y44088D02*
D03*
X115746Y43088D02*
D03*
X111672Y44088D02*
D03*
X106396Y43088D02*
D03*
X104172Y44088D02*
D03*
X98896Y43088D02*
D03*
X96672Y44088D02*
D03*
X91396Y43088D02*
D03*
X89172Y44088D02*
D03*
X83896Y43088D02*
D03*
X77922Y44088D02*
D03*
X72646Y43088D02*
D03*
X70422Y44088D02*
D03*
X65146Y43088D02*
D03*
X62922Y44088D02*
D03*
X57646Y43088D02*
D03*
X55422Y44088D02*
D03*
X50146Y43088D02*
D03*
X44172Y44088D02*
D03*
X38896Y43088D02*
D03*
X36672Y44088D02*
D03*
X31396Y43088D02*
D03*
X29172Y44088D02*
D03*
X23896Y43088D02*
D03*
X21672Y44088D02*
D03*
X16396Y43088D02*
D03*
X6672Y44088D02*
D03*
X1396Y43088D02*
D03*
X54472Y2838D02*
D03*
X49196Y1838D02*
D03*
X62922Y25338D02*
D03*
X57646Y24338D02*
D03*
X70422Y25338D02*
D03*
X65146Y24338D02*
D03*
X96672Y32838D02*
D03*
X91396Y31838D02*
D03*
X100422Y25338D02*
D03*
X95146Y24338D02*
D03*
X92922Y25338D02*
D03*
X87646Y24338D02*
D03*
X81672Y32838D02*
D03*
X76396Y31838D02*
D03*
X128572Y10338D02*
D03*
X123296Y9338D02*
D03*
X89172Y32838D02*
D03*
X83896Y31838D02*
D03*
X74172Y32838D02*
D03*
X68896Y31838D02*
D03*
X85422Y25338D02*
D03*
X80146Y24338D02*
D03*
X77922Y25338D02*
D03*
X72646Y24338D02*
D03*
X107913Y32838D02*
D03*
X102637Y31838D02*
D03*
X121072Y32838D02*
D03*
X115796Y31838D02*
D03*
X128572Y32838D02*
D03*
X123296Y31838D02*
D03*
X136072Y32838D02*
D03*
X130796Y31838D02*
D03*
D36*
X81537Y44151D02*
D03*
Y44758D02*
D03*
X80037Y44758D02*
D03*
Y44151D02*
D03*
X119037Y39145D02*
D03*
Y39751D02*
D03*
X123387Y39751D02*
D03*
Y39145D02*
D03*
X122587Y39751D02*
D03*
Y39145D02*
D03*
X119837Y39145D02*
D03*
Y39751D02*
D03*
X126037Y39145D02*
D03*
Y39751D02*
D03*
X125237Y39758D02*
D03*
Y39151D02*
D03*
X80787Y44758D02*
D03*
Y44151D02*
D03*
X124737Y37198D02*
D03*
Y37805D02*
D03*
X125487Y37198D02*
D03*
Y37805D02*
D03*
X126237Y37195D02*
D03*
Y37801D02*
D03*
X126987Y37195D02*
D03*
Y37801D02*
D03*
X123987Y37195D02*
D03*
Y37801D02*
D03*
X82287Y44758D02*
D03*
Y44151D02*
D03*
X79287D02*
D03*
Y44758D02*
D03*
D37*
X22742Y38979D02*
D03*
Y39924D02*
D03*
X22033Y38979D02*
D03*
Y39924D02*
D03*
X68083Y39974D02*
D03*
Y39029D02*
D03*
X68792Y39974D02*
D03*
Y39029D02*
D03*
X14533Y39974D02*
D03*
Y39029D02*
D03*
X15242Y39974D02*
D03*
Y39029D02*
D03*
X23933Y39924D02*
D03*
Y38979D02*
D03*
X24642Y39924D02*
D03*
Y38979D02*
D03*
X31542Y38979D02*
D03*
Y39924D02*
D03*
X30833Y38979D02*
D03*
Y39924D02*
D03*
X40237Y39022D02*
D03*
Y39966D02*
D03*
X39529Y39022D02*
D03*
Y39966D02*
D03*
X32533Y39924D02*
D03*
Y38979D02*
D03*
X33242Y39924D02*
D03*
Y38979D02*
D03*
X41333Y39974D02*
D03*
Y39029D02*
D03*
X42042Y39974D02*
D03*
Y39029D02*
D03*
X49192D02*
D03*
Y39974D02*
D03*
X48483Y39029D02*
D03*
Y39974D02*
D03*
X58042Y39029D02*
D03*
Y39974D02*
D03*
X57333Y39029D02*
D03*
Y39974D02*
D03*
X50483Y39974D02*
D03*
Y39029D02*
D03*
X51192Y39974D02*
D03*
Y39029D02*
D03*
X75592Y39029D02*
D03*
Y39974D02*
D03*
X74883Y39029D02*
D03*
Y39974D02*
D03*
X59383Y39974D02*
D03*
Y39029D02*
D03*
X60092Y39974D02*
D03*
Y39029D02*
D03*
X66637Y39029D02*
D03*
Y39974D02*
D03*
X65929Y39029D02*
D03*
Y39974D02*
D03*
X84596Y39029D02*
D03*
Y39974D02*
D03*
X83887Y39029D02*
D03*
Y39974D02*
D03*
X77029Y39974D02*
D03*
Y39029D02*
D03*
X77737Y39974D02*
D03*
Y39029D02*
D03*
X93207Y39029D02*
D03*
Y39974D02*
D03*
X92498Y39029D02*
D03*
Y39974D02*
D03*
X85937Y39974D02*
D03*
Y39029D02*
D03*
X86646Y39974D02*
D03*
Y39029D02*
D03*
X94783Y39974D02*
D03*
Y39029D02*
D03*
X95492Y39974D02*
D03*
Y39029D02*
D03*
X102124Y39029D02*
D03*
Y39974D02*
D03*
X101416Y39029D02*
D03*
Y39974D02*
D03*
X103833Y39974D02*
D03*
Y39029D02*
D03*
X104542Y39974D02*
D03*
Y39029D02*
D03*
X110742Y39079D02*
D03*
Y40024D02*
D03*
X110033Y39079D02*
D03*
Y40024D02*
D03*
D38*
X22742Y39294D02*
D03*
Y39609D02*
D03*
X22033Y39294D02*
D03*
Y39609D02*
D03*
X68083Y39659D02*
D03*
Y39344D02*
D03*
X68792Y39659D02*
D03*
Y39344D02*
D03*
X14533Y39659D02*
D03*
Y39344D02*
D03*
X15242Y39659D02*
D03*
Y39344D02*
D03*
X23933Y39609D02*
D03*
Y39294D02*
D03*
X24642Y39609D02*
D03*
Y39294D02*
D03*
X31542Y39294D02*
D03*
Y39609D02*
D03*
X30833Y39294D02*
D03*
Y39609D02*
D03*
X40237Y39336D02*
D03*
Y39651D02*
D03*
X39529Y39336D02*
D03*
Y39651D02*
D03*
X32533Y39609D02*
D03*
Y39294D02*
D03*
X33242Y39609D02*
D03*
Y39294D02*
D03*
X41333Y39659D02*
D03*
Y39344D02*
D03*
X42042Y39659D02*
D03*
Y39344D02*
D03*
X49192D02*
D03*
Y39659D02*
D03*
X48483Y39344D02*
D03*
Y39659D02*
D03*
X58042Y39344D02*
D03*
Y39659D02*
D03*
X57333Y39344D02*
D03*
Y39659D02*
D03*
X50483Y39659D02*
D03*
Y39344D02*
D03*
X51192Y39659D02*
D03*
Y39344D02*
D03*
X75592Y39344D02*
D03*
Y39659D02*
D03*
X74883Y39344D02*
D03*
Y39659D02*
D03*
X59383Y39659D02*
D03*
Y39344D02*
D03*
X60092Y39659D02*
D03*
Y39344D02*
D03*
X66637Y39344D02*
D03*
Y39659D02*
D03*
X65929Y39344D02*
D03*
Y39659D02*
D03*
X84596Y39344D02*
D03*
Y39659D02*
D03*
X83887Y39344D02*
D03*
Y39659D02*
D03*
X77029Y39659D02*
D03*
Y39344D02*
D03*
X77737Y39659D02*
D03*
Y39344D02*
D03*
X93207Y39344D02*
D03*
Y39659D02*
D03*
X92498Y39344D02*
D03*
Y39659D02*
D03*
X85937Y39659D02*
D03*
Y39344D02*
D03*
X86646Y39659D02*
D03*
Y39344D02*
D03*
X94783Y39659D02*
D03*
Y39344D02*
D03*
X95492Y39659D02*
D03*
Y39344D02*
D03*
X102124Y39344D02*
D03*
Y39659D02*
D03*
X101416Y39344D02*
D03*
Y39659D02*
D03*
X103833Y39659D02*
D03*
Y39344D02*
D03*
X104542Y39659D02*
D03*
Y39344D02*
D03*
X110742Y39394D02*
D03*
Y39709D02*
D03*
X110033Y39394D02*
D03*
Y39709D02*
D03*
D39*
X128905Y37767D02*
D03*
X129102D02*
D03*
X129298D02*
D03*
X129495D02*
D03*
X129692D02*
D03*
X129889D02*
D03*
X130086D02*
D03*
X130283D02*
D03*
X130480D02*
D03*
X130676D02*
D03*
X130873D02*
D03*
X131070D02*
D03*
Y40936D02*
D03*
X130873D02*
D03*
X130676D02*
D03*
X130480D02*
D03*
X130283D02*
D03*
X130086D02*
D03*
X129889D02*
D03*
X129692D02*
D03*
X129495D02*
D03*
X129298D02*
D03*
X129102D02*
D03*
X128905D02*
D03*
D40*
X131572Y38269D02*
D03*
Y38466D02*
D03*
Y38662D02*
D03*
Y38859D02*
D03*
Y39056D02*
D03*
Y39253D02*
D03*
Y39450D02*
D03*
Y39647D02*
D03*
Y39844D02*
D03*
Y40040D02*
D03*
Y40237D02*
D03*
Y40434D02*
D03*
X128403D02*
D03*
Y40237D02*
D03*
Y40040D02*
D03*
Y39844D02*
D03*
Y39647D02*
D03*
Y39450D02*
D03*
Y39253D02*
D03*
Y39056D02*
D03*
Y38859D02*
D03*
Y38662D02*
D03*
Y38466D02*
D03*
Y38269D02*
D03*
D41*
X134887Y40495D02*
D03*
Y40889D02*
D03*
Y40101D02*
D03*
Y37901D02*
D03*
Y38295D02*
D03*
Y37508D02*
D03*
D42*
X135734Y39590D02*
D03*
Y41401D02*
D03*
Y36996D02*
D03*
Y38807D02*
D03*
D43*
X120647Y39875D02*
D03*
Y39501D02*
D03*
Y39127D02*
D03*
X121787D02*
D03*
Y39875D02*
D03*
D44*
X17772Y38401D02*
D03*
Y39901D02*
D03*
Y37401D02*
D03*
Y37901D02*
D03*
Y38901D02*
D03*
Y39401D02*
D03*
Y40401D02*
D03*
Y40901D02*
D03*
X19926Y38401D02*
D03*
Y39901D02*
D03*
Y37401D02*
D03*
Y37901D02*
D03*
Y38901D02*
D03*
Y39401D02*
D03*
Y40401D02*
D03*
Y40901D02*
D03*
X26622Y38401D02*
D03*
Y39901D02*
D03*
Y37401D02*
D03*
Y37901D02*
D03*
Y38901D02*
D03*
Y39401D02*
D03*
Y40401D02*
D03*
Y40901D02*
D03*
X28776Y38401D02*
D03*
Y39901D02*
D03*
Y37401D02*
D03*
Y37901D02*
D03*
Y38901D02*
D03*
Y39401D02*
D03*
Y40401D02*
D03*
Y40901D02*
D03*
X35472Y38401D02*
D03*
Y39901D02*
D03*
Y37401D02*
D03*
Y37901D02*
D03*
Y38901D02*
D03*
Y39401D02*
D03*
Y40401D02*
D03*
Y40901D02*
D03*
X37626Y38401D02*
D03*
Y39901D02*
D03*
Y37401D02*
D03*
Y37901D02*
D03*
Y38901D02*
D03*
Y39401D02*
D03*
Y40401D02*
D03*
Y40901D02*
D03*
X44322Y38401D02*
D03*
Y39901D02*
D03*
Y37401D02*
D03*
Y37901D02*
D03*
Y38901D02*
D03*
Y39401D02*
D03*
Y40401D02*
D03*
Y40901D02*
D03*
X46476Y38401D02*
D03*
Y39901D02*
D03*
Y37401D02*
D03*
Y37901D02*
D03*
Y38901D02*
D03*
Y39401D02*
D03*
Y40401D02*
D03*
Y40901D02*
D03*
X53172Y38401D02*
D03*
Y39901D02*
D03*
Y37401D02*
D03*
Y37901D02*
D03*
Y38901D02*
D03*
Y39401D02*
D03*
Y40401D02*
D03*
Y40901D02*
D03*
X55326Y38401D02*
D03*
Y39901D02*
D03*
Y37401D02*
D03*
Y37901D02*
D03*
Y38901D02*
D03*
Y39401D02*
D03*
Y40401D02*
D03*
Y40901D02*
D03*
X62022Y38401D02*
D03*
Y39901D02*
D03*
Y37401D02*
D03*
Y37901D02*
D03*
Y38901D02*
D03*
Y39401D02*
D03*
Y40401D02*
D03*
Y40901D02*
D03*
X64176Y38401D02*
D03*
Y39901D02*
D03*
Y37401D02*
D03*
Y37901D02*
D03*
Y38901D02*
D03*
Y39401D02*
D03*
Y40401D02*
D03*
Y40901D02*
D03*
X71022Y38401D02*
D03*
Y39901D02*
D03*
Y37401D02*
D03*
Y37901D02*
D03*
Y38901D02*
D03*
Y39401D02*
D03*
Y40401D02*
D03*
Y40901D02*
D03*
X73176Y38401D02*
D03*
Y39901D02*
D03*
Y37401D02*
D03*
Y37901D02*
D03*
Y38901D02*
D03*
Y39401D02*
D03*
Y40401D02*
D03*
Y40901D02*
D03*
X79722Y38401D02*
D03*
Y39901D02*
D03*
Y37401D02*
D03*
Y37901D02*
D03*
Y38901D02*
D03*
Y39401D02*
D03*
Y40401D02*
D03*
Y40901D02*
D03*
X81876Y38401D02*
D03*
Y39901D02*
D03*
Y37401D02*
D03*
Y37901D02*
D03*
Y38901D02*
D03*
Y39401D02*
D03*
Y40401D02*
D03*
Y40901D02*
D03*
X88572Y38401D02*
D03*
Y39901D02*
D03*
Y37401D02*
D03*
Y37901D02*
D03*
Y38901D02*
D03*
Y39401D02*
D03*
Y40401D02*
D03*
Y40901D02*
D03*
X90726Y38401D02*
D03*
Y39901D02*
D03*
Y37401D02*
D03*
Y37901D02*
D03*
Y38901D02*
D03*
Y39401D02*
D03*
Y40401D02*
D03*
Y40901D02*
D03*
X97422Y38401D02*
D03*
Y39901D02*
D03*
Y37401D02*
D03*
Y37901D02*
D03*
Y38901D02*
D03*
Y39401D02*
D03*
Y40401D02*
D03*
Y40901D02*
D03*
X99576Y38401D02*
D03*
Y39901D02*
D03*
Y37401D02*
D03*
Y37901D02*
D03*
Y38901D02*
D03*
Y39401D02*
D03*
Y40401D02*
D03*
Y40901D02*
D03*
X106272Y38401D02*
D03*
Y39901D02*
D03*
Y37401D02*
D03*
Y37901D02*
D03*
Y38901D02*
D03*
Y39401D02*
D03*
Y40401D02*
D03*
Y40901D02*
D03*
X108426Y38401D02*
D03*
Y39901D02*
D03*
Y37401D02*
D03*
Y37901D02*
D03*
Y38901D02*
D03*
Y39401D02*
D03*
Y40401D02*
D03*
Y40901D02*
D03*
D45*
X82156Y45959D02*
D03*
X82038D02*
D03*
X81841D02*
D03*
X81723D02*
D03*
X81526D02*
D03*
X81330D02*
D03*
X81133D02*
D03*
X80936D02*
D03*
X80739D02*
D03*
X80542D02*
D03*
X80345D02*
D03*
X80148D02*
D03*
X79952D02*
D03*
X79833D02*
D03*
X79637D02*
D03*
X79519D02*
D03*
D46*
X126987Y39027D02*
D03*
Y39401D02*
D03*
D47*
X126987Y39775D02*
D03*
M02*
