G04*
G04 #@! TF.GenerationSoftware,Altium Limited,Altium Designer,20.0.1 (14)*
G04*
G04 Layer_Color=32896*
%FSLAX24Y24*%
%MOIN*%
G70*
G01*
G75*
%ADD10C,0.0100*%
%ADD11C,0.0079*%
%ADD48C,0.0236*%
%ADD49C,0.0098*%
%ADD50C,0.0118*%
%ADD51C,0.0060*%
%ADD52C,0.0080*%
%ADD53C,0.0050*%
D10*
X134635Y1088D02*
G03*
X135385Y1838I0J750D01*
G01*
X133135Y2838D02*
G03*
X133885Y3588I0J750D01*
G01*
X127160Y1088D02*
G03*
X127910Y1838I0J750D01*
G01*
X125660Y2838D02*
G03*
X126410Y3588I0J750D01*
G01*
X119685Y1088D02*
G03*
X120435Y1838I0J750D01*
G01*
X118185Y2838D02*
G03*
X118935Y3588I0J750D01*
G01*
X109335Y1088D02*
G03*
X110085Y1838I0J750D01*
G01*
X107835Y2838D02*
G03*
X108585Y3588I0J750D01*
G01*
X99985Y1088D02*
G03*
X100735Y1838I0J750D01*
G01*
X98485Y2838D02*
G03*
X99235Y3588I0J750D01*
G01*
X89085Y2838D02*
G03*
X89835Y3588I0J750D01*
G01*
X90585Y1088D02*
G03*
X91335Y1838I0J750D01*
G01*
X79735Y2838D02*
G03*
X80485Y3588I0J750D01*
G01*
X81235Y1088D02*
G03*
X81985Y1838I0J750D01*
G01*
X23485Y2838D02*
G03*
X24235Y3588I0J750D01*
G01*
X24985Y1088D02*
G03*
X25735Y1838I0J750D01*
G01*
X14085Y2838D02*
G03*
X14835Y3588I0J750D01*
G01*
X15585Y1088D02*
G03*
X16335Y1838I0J750D01*
G01*
X4735Y2838D02*
G03*
X5485Y3588I0J750D01*
G01*
X6235Y1088D02*
G03*
X6985Y1838I0J750D01*
G01*
X103735Y8588D02*
G03*
X104485Y9338I0J750D01*
G01*
X102235Y10338D02*
G03*
X102985Y11088I0J750D01*
G01*
X88185Y10338D02*
G03*
X88935Y11088I0J750D01*
G01*
X89685Y8588D02*
G03*
X90435Y9338I0J750D01*
G01*
X80685Y10338D02*
G03*
X81435Y11088I0J750D01*
G01*
X82185Y8588D02*
G03*
X82935Y9338I0J750D01*
G01*
X73168Y10338D02*
G03*
X73918Y11088I0J750D01*
G01*
X74668Y8588D02*
G03*
X75418Y9338I0J750D01*
G01*
X65651Y10338D02*
G03*
X66402Y11088I0J750D01*
G01*
X67151Y8588D02*
G03*
X67902Y9338I0J750D01*
G01*
X58135Y10338D02*
G03*
X58885Y11088I0J750D01*
G01*
X59635Y8588D02*
G03*
X60385Y9338I0J750D01*
G01*
X50635Y10338D02*
G03*
X51385Y11088I0J750D01*
G01*
X52135Y8588D02*
G03*
X52885Y9338I0J750D01*
G01*
X43160Y10338D02*
G03*
X43910Y11088I0J750D01*
G01*
X44660Y8588D02*
G03*
X45410Y9338I0J750D01*
G01*
X35685Y10338D02*
G03*
X36435Y11088I0J750D01*
G01*
X37185Y8588D02*
G03*
X37935Y9338I0J750D01*
G01*
X28135Y10338D02*
G03*
X28885Y11088I0J750D01*
G01*
X29635Y8588D02*
G03*
X30385Y9338I0J750D01*
G01*
X20685Y10338D02*
G03*
X21435Y11088I0J750D01*
G01*
X22185Y8588D02*
G03*
X22935Y9338I0J750D01*
G01*
X8485Y10338D02*
G03*
X9235Y11088I0J750D01*
G01*
X9985Y8588D02*
G03*
X10735Y9338I0J750D01*
G01*
X105635Y16088D02*
G03*
X106385Y16838I0J750D01*
G01*
X104135Y17838D02*
G03*
X104885Y18588I0J750D01*
G01*
X91935Y17838D02*
G03*
X92685Y18588I0J750D01*
G01*
X93435Y16088D02*
G03*
X94185Y16838I0J750D01*
G01*
X84435Y17838D02*
G03*
X85185Y18588I0J750D01*
G01*
X85935Y16088D02*
G03*
X86685Y16838I0J750D01*
G01*
X76935Y17838D02*
G03*
X77685Y18588I0J750D01*
G01*
X78435Y16088D02*
G03*
X79185Y16838I0J750D01*
G01*
X69410Y17838D02*
G03*
X70160Y18588I0J750D01*
G01*
X70910Y16088D02*
G03*
X71660Y16838I0J750D01*
G01*
X61885Y17838D02*
G03*
X62635Y18588I0J750D01*
G01*
X63385Y16088D02*
G03*
X64135Y16838I0J750D01*
G01*
X54410Y17888D02*
G03*
X55160Y18638I0J750D01*
G01*
X55910Y16138D02*
G03*
X56660Y16888I0J750D01*
G01*
X46935Y17838D02*
G03*
X47685Y18588I0J750D01*
G01*
X48435Y16088D02*
G03*
X49185Y16838I0J750D01*
G01*
X39385Y17838D02*
G03*
X40135Y18588I0J750D01*
G01*
X40885Y16088D02*
G03*
X41635Y16838I0J750D01*
G01*
X31935Y17838D02*
G03*
X32685Y18588I0J750D01*
G01*
X33435Y16088D02*
G03*
X34185Y16838I0J750D01*
G01*
X24435Y17838D02*
G03*
X25185Y18588I0J750D01*
G01*
X25935Y16088D02*
G03*
X26685Y16838I0J750D01*
G01*
X16935Y17838D02*
G03*
X17685Y18588I0J750D01*
G01*
X18435Y16088D02*
G03*
X19185Y16838I0J750D01*
G01*
X6585Y17838D02*
G03*
X7335Y18588I0J750D01*
G01*
X8085Y16088D02*
G03*
X8835Y16838I0J750D01*
G01*
X134635Y23588D02*
G03*
X135385Y24338I0J750D01*
G01*
X133135Y25338D02*
G03*
X133885Y26088I0J750D01*
G01*
X127135Y23588D02*
G03*
X127885Y24338I0J750D01*
G01*
X125635Y25338D02*
G03*
X126385Y26088I0J750D01*
G01*
X119635Y23588D02*
G03*
X120385Y24338I0J750D01*
G01*
X118135Y25338D02*
G03*
X118885Y26088I0J750D01*
G01*
X108435Y23588D02*
G03*
X109185Y24338I0J750D01*
G01*
X106935Y25338D02*
G03*
X107685Y26088I0J750D01*
G01*
X52535Y25338D02*
G03*
X53285Y26088I0J750D01*
G01*
X54035Y23588D02*
G03*
X54785Y24338I0J750D01*
G01*
X45035Y25338D02*
G03*
X45785Y26088I0J750D01*
G01*
X46535Y23588D02*
G03*
X47285Y24338I0J750D01*
G01*
X37535Y25338D02*
G03*
X38285Y26088I0J750D01*
G01*
X39035Y23588D02*
G03*
X39785Y24338I0J750D01*
G01*
X30035Y25338D02*
G03*
X30785Y26088I0J750D01*
G01*
X31535Y23588D02*
G03*
X32285Y24338I0J750D01*
G01*
X22535Y25338D02*
G03*
X23285Y26088I0J750D01*
G01*
X24035Y23588D02*
G03*
X24785Y24338I0J750D01*
G01*
X15035Y25338D02*
G03*
X15785Y26088I0J750D01*
G01*
X16535Y23588D02*
G03*
X17285Y24338I0J750D01*
G01*
X5685Y25338D02*
G03*
X6435Y26088I0J750D01*
G01*
X7185Y23588D02*
G03*
X7935Y24338I0J750D01*
G01*
X63785Y32838D02*
G03*
X64535Y33588I0J750D01*
G01*
X65285Y31088D02*
G03*
X66035Y31838I0J750D01*
G01*
X56285Y32838D02*
G03*
X57035Y33588I0J750D01*
G01*
X57785Y31088D02*
G03*
X58535Y31838I0J750D01*
G01*
X48785Y32838D02*
G03*
X49535Y33588I0J750D01*
G01*
X50285Y31088D02*
G03*
X51035Y31838I0J750D01*
G01*
X41285Y32838D02*
G03*
X42035Y33588I0J750D01*
G01*
X42785Y31088D02*
G03*
X43535Y31838I0J750D01*
G01*
X33785Y32838D02*
G03*
X34535Y33588I0J750D01*
G01*
X35285Y31088D02*
G03*
X36035Y31838I0J750D01*
G01*
X26285Y32838D02*
G03*
X27035Y33588I0J750D01*
G01*
X27785Y31088D02*
G03*
X28535Y31838I0J750D01*
G01*
X18785Y32838D02*
G03*
X19535Y33588I0J750D01*
G01*
X20285Y31088D02*
G03*
X21035Y31838I0J750D01*
G01*
X11285Y32838D02*
G03*
X12035Y33588I0J750D01*
G01*
X12785Y31088D02*
G03*
X13535Y31838I0J750D01*
G01*
X3785Y32838D02*
G03*
X4535Y33588I0J750D01*
G01*
X5285Y31088D02*
G03*
X6035Y31838I0J750D01*
G01*
X134685Y42338D02*
G03*
X135435Y43088I0J750D01*
G01*
X133185Y44088D02*
G03*
X133935Y44838I0J750D01*
G01*
X127160Y42338D02*
G03*
X127910Y43088I0J750D01*
G01*
X125660Y44088D02*
G03*
X126410Y44838I0J750D01*
G01*
X119635Y42338D02*
G03*
X120385Y43088I0J750D01*
G01*
X118135Y44088D02*
G03*
X118885Y44838I0J750D01*
G01*
X110285Y42338D02*
G03*
X111035Y43088I0J750D01*
G01*
X108785Y44088D02*
G03*
X109535Y44838I0J750D01*
G01*
X102785Y42338D02*
G03*
X103535Y43088I0J750D01*
G01*
X101285Y44088D02*
G03*
X102035Y44838I0J750D01*
G01*
X95285Y42338D02*
G03*
X96035Y43088I0J750D01*
G01*
X93785Y44088D02*
G03*
X94535Y44838I0J750D01*
G01*
X87785Y42338D02*
G03*
X88535Y43088I0J750D01*
G01*
X86285Y44088D02*
G03*
X87035Y44838I0J750D01*
G01*
X76535Y42338D02*
G03*
X77285Y43088I0J750D01*
G01*
X75035Y44088D02*
G03*
X75785Y44838I0J750D01*
G01*
X69035Y42338D02*
G03*
X69785Y43088I0J750D01*
G01*
X67535Y44088D02*
G03*
X68285Y44838I0J750D01*
G01*
X61535Y42338D02*
G03*
X62285Y43088I0J750D01*
G01*
X60035Y44088D02*
G03*
X60785Y44838I0J750D01*
G01*
X54035Y42338D02*
G03*
X54785Y43088I0J750D01*
G01*
X52535Y44088D02*
G03*
X53285Y44838I0J750D01*
G01*
X42785Y42338D02*
G03*
X43535Y43088I0J750D01*
G01*
X41285Y44088D02*
G03*
X42035Y44838I0J750D01*
G01*
X35285Y42338D02*
G03*
X36035Y43088I0J750D01*
G01*
X33785Y44088D02*
G03*
X34535Y44838I0J750D01*
G01*
X27785Y42338D02*
G03*
X28535Y43088I0J750D01*
G01*
X26285Y44088D02*
G03*
X27035Y44838I0J750D01*
G01*
X20285Y42338D02*
G03*
X21035Y43088I0J750D01*
G01*
X18785Y44088D02*
G03*
X19535Y44838I0J750D01*
G01*
X5285Y42338D02*
G03*
X6035Y43088I0J750D01*
G01*
X3785Y44088D02*
G03*
X4535Y44838I0J750D01*
G01*
X53085Y1088D02*
G03*
X53835Y1838I0J750D01*
G01*
X51585Y2838D02*
G03*
X52335Y3588I0J750D01*
G01*
X61535Y23588D02*
G03*
X62285Y24338I0J750D01*
G01*
X60035Y25338D02*
G03*
X60785Y26088I0J750D01*
G01*
X69035Y23588D02*
G03*
X69785Y24338I0J750D01*
G01*
X67535Y25338D02*
G03*
X68285Y26088I0J750D01*
G01*
X95285Y31088D02*
G03*
X96035Y31838I0J750D01*
G01*
X93785Y32838D02*
G03*
X94535Y33588I0J750D01*
G01*
X99035Y23588D02*
G03*
X99785Y24338I0J750D01*
G01*
X97535Y25338D02*
G03*
X98285Y26088I0J750D01*
G01*
X91535Y23588D02*
G03*
X92285Y24338I0J750D01*
G01*
X90035Y25338D02*
G03*
X90785Y26088I0J750D01*
G01*
X80285Y31088D02*
G03*
X81035Y31838I0J750D01*
G01*
X78785Y32838D02*
G03*
X79535Y33588I0J750D01*
G01*
X127185Y8588D02*
G03*
X127935Y9338I0J750D01*
G01*
X125685Y10338D02*
G03*
X126435Y11088I0J750D01*
G01*
X87785Y31088D02*
G03*
X88535Y31838I0J750D01*
G01*
X86285Y32838D02*
G03*
X87035Y33588I0J750D01*
G01*
X72785Y31088D02*
G03*
X73535Y31838I0J750D01*
G01*
X71285Y32838D02*
G03*
X72035Y33588I0J750D01*
G01*
X84035Y23588D02*
G03*
X84785Y24338I0J750D01*
G01*
X82535Y25338D02*
G03*
X83285Y26088I0J750D01*
G01*
X76535Y23588D02*
G03*
X77285Y24338I0J750D01*
G01*
X75035Y25338D02*
G03*
X75785Y26088I0J750D01*
G01*
X106526Y31088D02*
G03*
X107276Y31838I0J750D01*
G01*
X105026Y32838D02*
G03*
X105776Y33588I0J750D01*
G01*
X119685Y31088D02*
G03*
X120435Y31838I0J750D01*
G01*
X118185Y32838D02*
G03*
X118935Y33588I0J750D01*
G01*
X127185Y31088D02*
G03*
X127935Y31838I0J750D01*
G01*
X125685Y32838D02*
G03*
X126435Y33588I0J750D01*
G01*
X134685Y31088D02*
G03*
X135435Y31838I0J750D01*
G01*
X133185Y32838D02*
G03*
X133935Y33588I0J750D01*
G01*
X131384Y2838D02*
X133134D01*
X131384Y1088D02*
X134634D01*
X131384D02*
Y2838D01*
X133884Y3588D02*
X135384D01*
Y1838D02*
Y3588D01*
X123909Y2838D02*
X125659D01*
X123909Y1088D02*
X127159D01*
X123909D02*
Y2838D01*
X126409Y3588D02*
X127909D01*
Y1838D02*
Y3588D01*
X116434Y2838D02*
X118184D01*
X116434Y1088D02*
X119684D01*
X116434D02*
Y2838D01*
X118934Y3588D02*
X120434D01*
Y1838D02*
Y3588D01*
X106084Y2838D02*
X107834D01*
X106084Y1088D02*
X109334D01*
X106084D02*
Y2838D01*
X108584Y3588D02*
X110084D01*
Y1838D02*
Y3588D01*
X96734Y2838D02*
X98484D01*
X96734Y1088D02*
X99984D01*
X96734D02*
Y2838D01*
X99234Y3588D02*
X100734D01*
Y1838D02*
Y3588D01*
X91334Y1838D02*
Y3588D01*
X89834D02*
X91334D01*
X87334Y1088D02*
Y2838D01*
Y1088D02*
X90584D01*
X87334Y2838D02*
X89084D01*
X81984Y1838D02*
Y3588D01*
X80484D02*
X81984D01*
X77984Y1088D02*
Y2838D01*
Y1088D02*
X81234D01*
X77984Y2838D02*
X79734D01*
X25734Y1838D02*
Y3588D01*
X24234D02*
X25734D01*
X21734Y1088D02*
Y2838D01*
Y1088D02*
X24984D01*
X21734Y2838D02*
X23484D01*
X16334Y1838D02*
Y3588D01*
X14834D02*
X16334D01*
X12334Y1088D02*
Y2838D01*
Y1088D02*
X15584D01*
X12334Y2838D02*
X14084D01*
X6984Y1838D02*
Y3588D01*
X5484D02*
X6984D01*
X2984Y1088D02*
Y2838D01*
Y1088D02*
X6234D01*
X2984Y2838D02*
X4734D01*
X100484Y10338D02*
X102234D01*
X100484Y8588D02*
X103734D01*
X100484D02*
Y10338D01*
X102984Y11088D02*
X104484D01*
Y9338D02*
Y11088D01*
X90434Y9338D02*
Y11088D01*
X88934D02*
X90434D01*
X86434Y8588D02*
Y10338D01*
Y8588D02*
X89684D01*
X86434Y10338D02*
X88184D01*
X82934Y9338D02*
Y11088D01*
X81434D02*
X82934D01*
X78934Y8588D02*
Y10338D01*
Y8588D02*
X82184D01*
X78934Y10338D02*
X80684D01*
X75418Y9338D02*
Y11088D01*
X73918D02*
X75418D01*
X71418Y8588D02*
Y10338D01*
Y8588D02*
X74668D01*
X71418Y10338D02*
X73168D01*
X67901Y9338D02*
Y11088D01*
X66401D02*
X67901D01*
X63901Y8588D02*
Y10338D01*
Y8588D02*
X67151D01*
X63901Y10338D02*
X65651D01*
X60384Y9338D02*
Y11088D01*
X58884D02*
X60384D01*
X56384Y8588D02*
Y10338D01*
Y8588D02*
X59634D01*
X56384Y10338D02*
X58134D01*
X52884Y9338D02*
Y11088D01*
X51384D02*
X52884D01*
X48884Y8588D02*
Y10338D01*
Y8588D02*
X52134D01*
X48884Y10338D02*
X50634D01*
X45409Y9338D02*
Y11088D01*
X43909D02*
X45409D01*
X41409Y8588D02*
Y10338D01*
Y8588D02*
X44659D01*
X41409Y10338D02*
X43159D01*
X37934Y9338D02*
Y11088D01*
X36434D02*
X37934D01*
X33934Y8588D02*
Y10338D01*
Y8588D02*
X37184D01*
X33934Y10338D02*
X35684D01*
X30384Y9338D02*
Y11088D01*
X28884D02*
X30384D01*
X26384Y8588D02*
Y10338D01*
Y8588D02*
X29634D01*
X26384Y10338D02*
X28134D01*
X22934Y9338D02*
Y11088D01*
X21434D02*
X22934D01*
X18934Y8588D02*
Y10338D01*
Y8588D02*
X22184D01*
X18934Y10338D02*
X20684D01*
X10734Y9338D02*
Y11088D01*
X9234D02*
X10734D01*
X6734Y8588D02*
Y10338D01*
Y8588D02*
X9984D01*
X6734Y10338D02*
X8484D01*
X102384Y17838D02*
X104134D01*
X102384Y16088D02*
X105634D01*
X102384D02*
Y17838D01*
X104884Y18588D02*
X106384D01*
Y16838D02*
Y18588D01*
X94184Y16838D02*
Y18588D01*
X92684D02*
X94184D01*
X90184Y16088D02*
Y17838D01*
Y16088D02*
X93434D01*
X90184Y17838D02*
X91934D01*
X86684Y16838D02*
Y18588D01*
X85184D02*
X86684D01*
X82684Y16088D02*
Y17838D01*
Y16088D02*
X85934D01*
X82684Y17838D02*
X84434D01*
X79184Y16838D02*
Y18588D01*
X77684D02*
X79184D01*
X75184Y16088D02*
Y17838D01*
Y16088D02*
X78434D01*
X75184Y17838D02*
X76934D01*
X71659Y16838D02*
Y18588D01*
X70159D02*
X71659D01*
X67659Y16088D02*
Y17838D01*
Y16088D02*
X70909D01*
X67659Y17838D02*
X69409D01*
X64134Y16838D02*
Y18588D01*
X62634D02*
X64134D01*
X60134Y16088D02*
Y17838D01*
Y16088D02*
X63384D01*
X60134Y17838D02*
X61884D01*
X56659Y16888D02*
Y18638D01*
X55159D02*
X56659D01*
X52659Y16138D02*
Y17888D01*
Y16138D02*
X55909D01*
X52659Y17888D02*
X54409D01*
X49184Y16838D02*
Y18588D01*
X47684D02*
X49184D01*
X45184Y16088D02*
Y17838D01*
Y16088D02*
X48434D01*
X45184Y17838D02*
X46934D01*
X41634Y16838D02*
Y18588D01*
X40134D02*
X41634D01*
X37634Y16088D02*
Y17838D01*
Y16088D02*
X40884D01*
X37634Y17838D02*
X39384D01*
X34184Y16838D02*
Y18588D01*
X32684D02*
X34184D01*
X30184Y16088D02*
Y17838D01*
Y16088D02*
X33434D01*
X30184Y17838D02*
X31934D01*
X26684Y16838D02*
Y18588D01*
X25184D02*
X26684D01*
X22684Y16088D02*
Y17838D01*
Y16088D02*
X25934D01*
X22684Y17838D02*
X24434D01*
X19184Y16838D02*
Y18588D01*
X17684D02*
X19184D01*
X15184Y16088D02*
Y17838D01*
Y16088D02*
X18434D01*
X15184Y17838D02*
X16934D01*
X8834Y16838D02*
Y18588D01*
X7334D02*
X8834D01*
X4834Y16088D02*
Y17838D01*
Y16088D02*
X8084D01*
X4834Y17838D02*
X6584D01*
X131384Y25338D02*
X133134D01*
X131384Y23588D02*
X134634D01*
X131384D02*
Y25338D01*
X133884Y26088D02*
X135384D01*
Y24338D02*
Y26088D01*
X123884Y25338D02*
X125634D01*
X123884Y23588D02*
X127134D01*
X123884D02*
Y25338D01*
X126384Y26088D02*
X127884D01*
Y24338D02*
Y26088D01*
X116384Y25338D02*
X118134D01*
X116384Y23588D02*
X119634D01*
X116384D02*
Y25338D01*
X118884Y26088D02*
X120384D01*
Y24338D02*
Y26088D01*
X105184Y25338D02*
X106934D01*
X105184Y23588D02*
X108434D01*
X105184D02*
Y25338D01*
X107684Y26088D02*
X109184D01*
Y24338D02*
Y26088D01*
X54784Y24338D02*
Y26088D01*
X53284D02*
X54784D01*
X50784Y23588D02*
Y25338D01*
Y23588D02*
X54034D01*
X50784Y25338D02*
X52534D01*
X47284Y24338D02*
Y26088D01*
X45784D02*
X47284D01*
X43284Y23588D02*
Y25338D01*
Y23588D02*
X46534D01*
X43284Y25338D02*
X45034D01*
X39784Y24338D02*
Y26088D01*
X38284D02*
X39784D01*
X35784Y23588D02*
Y25338D01*
Y23588D02*
X39034D01*
X35784Y25338D02*
X37534D01*
X32284Y24338D02*
Y26088D01*
X30784D02*
X32284D01*
X28284Y23588D02*
Y25338D01*
Y23588D02*
X31534D01*
X28284Y25338D02*
X30034D01*
X24784Y24338D02*
Y26088D01*
X23284D02*
X24784D01*
X20784Y23588D02*
Y25338D01*
Y23588D02*
X24034D01*
X20784Y25338D02*
X22534D01*
X17284Y24338D02*
Y26088D01*
X15784D02*
X17284D01*
X13284Y23588D02*
Y25338D01*
Y23588D02*
X16534D01*
X13284Y25338D02*
X15034D01*
X7934Y24338D02*
Y26088D01*
X6434D02*
X7934D01*
X3934Y23588D02*
Y25338D01*
Y23588D02*
X7184D01*
X3934Y25338D02*
X5684D01*
X66034Y31838D02*
Y33588D01*
X64534D02*
X66034D01*
X62034Y31088D02*
Y32838D01*
Y31088D02*
X65284D01*
X62034Y32838D02*
X63784D01*
X58534Y31838D02*
Y33588D01*
X57034D02*
X58534D01*
X54534Y31088D02*
Y32838D01*
Y31088D02*
X57784D01*
X54534Y32838D02*
X56284D01*
X51034Y31838D02*
Y33588D01*
X49534D02*
X51034D01*
X47034Y31088D02*
Y32838D01*
Y31088D02*
X50284D01*
X47034Y32838D02*
X48784D01*
X43534Y31838D02*
Y33588D01*
X42034D02*
X43534D01*
X39534Y31088D02*
Y32838D01*
Y31088D02*
X42784D01*
X39534Y32838D02*
X41284D01*
X36034Y31838D02*
Y33588D01*
X34534D02*
X36034D01*
X32034Y31088D02*
Y32838D01*
Y31088D02*
X35284D01*
X32034Y32838D02*
X33784D01*
X28534Y31838D02*
Y33588D01*
X27034D02*
X28534D01*
X24534Y31088D02*
Y32838D01*
Y31088D02*
X27784D01*
X24534Y32838D02*
X26284D01*
X21034Y31838D02*
Y33588D01*
X19534D02*
X21034D01*
X17034Y31088D02*
Y32838D01*
Y31088D02*
X20284D01*
X17034Y32838D02*
X18784D01*
X13534Y31838D02*
Y33588D01*
X12034D02*
X13534D01*
X9534Y31088D02*
Y32838D01*
Y31088D02*
X12784D01*
X9534Y32838D02*
X11284D01*
X6034Y31838D02*
Y33588D01*
X4534D02*
X6034D01*
X2034Y31088D02*
Y32838D01*
Y31088D02*
X5284D01*
X2034Y32838D02*
X3784D01*
X131434Y44088D02*
X133184D01*
X131434Y42338D02*
X134684D01*
X131434D02*
Y44088D01*
X133934Y44838D02*
X135434D01*
Y43088D02*
Y44838D01*
X123909Y44088D02*
X125659D01*
X123909Y42338D02*
X127159D01*
X123909D02*
Y44088D01*
X126409Y44838D02*
X127909D01*
Y43088D02*
Y44838D01*
X116384Y44088D02*
X118134D01*
X116384Y42338D02*
X119634D01*
X116384D02*
Y44088D01*
X118884Y44838D02*
X120384D01*
Y43088D02*
Y44838D01*
X107034Y44088D02*
X108784D01*
X107034Y42338D02*
X110284D01*
X107034D02*
Y44088D01*
X109534Y44838D02*
X111034D01*
Y43088D02*
Y44838D01*
X99534Y44088D02*
X101284D01*
X99534Y42338D02*
X102784D01*
X99534D02*
Y44088D01*
X102034Y44838D02*
X103534D01*
Y43088D02*
Y44838D01*
X92034Y44088D02*
X93784D01*
X92034Y42338D02*
X95284D01*
X92034D02*
Y44088D01*
X94534Y44838D02*
X96034D01*
Y43088D02*
Y44838D01*
X84534Y44088D02*
X86284D01*
X84534Y42338D02*
X87784D01*
X84534D02*
Y44088D01*
X87034Y44838D02*
X88534D01*
Y43088D02*
Y44838D01*
X73284Y44088D02*
X75034D01*
X73284Y42338D02*
X76534D01*
X73284D02*
Y44088D01*
X75784Y44838D02*
X77284D01*
Y43088D02*
Y44838D01*
X65784Y44088D02*
X67534D01*
X65784Y42338D02*
X69034D01*
X65784D02*
Y44088D01*
X68284Y44838D02*
X69784D01*
Y43088D02*
Y44838D01*
X58284Y44088D02*
X60034D01*
X58284Y42338D02*
X61534D01*
X58284D02*
Y44088D01*
X60784Y44838D02*
X62284D01*
Y43088D02*
Y44838D01*
X50784Y44088D02*
X52534D01*
X50784Y42338D02*
X54034D01*
X50784D02*
Y44088D01*
X53284Y44838D02*
X54784D01*
Y43088D02*
Y44838D01*
X39534Y44088D02*
X41284D01*
X39534Y42338D02*
X42784D01*
X39534D02*
Y44088D01*
X42034Y44838D02*
X43534D01*
Y43088D02*
Y44838D01*
X32034Y44088D02*
X33784D01*
X32034Y42338D02*
X35284D01*
X32034D02*
Y44088D01*
X34534Y44838D02*
X36034D01*
Y43088D02*
Y44838D01*
X24534Y44088D02*
X26284D01*
X24534Y42338D02*
X27784D01*
X24534D02*
Y44088D01*
X27034Y44838D02*
X28534D01*
Y43088D02*
Y44838D01*
X17034Y44088D02*
X18784D01*
X17034Y42338D02*
X20284D01*
X17034D02*
Y44088D01*
X19534Y44838D02*
X21034D01*
Y43088D02*
Y44838D01*
X2034Y44088D02*
X3784D01*
X2034Y42338D02*
X5284D01*
X2034D02*
Y44088D01*
X4534Y44838D02*
X6034D01*
Y43088D02*
Y44838D01*
X49834Y2838D02*
X51584D01*
X49834Y1088D02*
X53084D01*
X49834D02*
Y2838D01*
X52334Y3588D02*
X53834D01*
Y1838D02*
Y3588D01*
X58284Y25338D02*
X60034D01*
X58284Y23588D02*
X61534D01*
X58284D02*
Y25338D01*
X60784Y26088D02*
X62284D01*
Y24338D02*
Y26088D01*
X65784Y25338D02*
X67534D01*
X65784Y23588D02*
X69034D01*
X65784D02*
Y25338D01*
X68284Y26088D02*
X69784D01*
Y24338D02*
Y26088D01*
X92034Y32838D02*
X93784D01*
X92034Y31088D02*
X95284D01*
X92034D02*
Y32838D01*
X94534Y33588D02*
X96034D01*
Y31838D02*
Y33588D01*
X95784Y25338D02*
X97534D01*
X95784Y23588D02*
X99034D01*
X95784D02*
Y25338D01*
X98284Y26088D02*
X99784D01*
Y24338D02*
Y26088D01*
X88284Y25338D02*
X90034D01*
X88284Y23588D02*
X91534D01*
X88284D02*
Y25338D01*
X90784Y26088D02*
X92284D01*
Y24338D02*
Y26088D01*
X77034Y32838D02*
X78784D01*
X77034Y31088D02*
X80284D01*
X77034D02*
Y32838D01*
X79534Y33588D02*
X81034D01*
Y31838D02*
Y33588D01*
X123934Y10338D02*
X125684D01*
X123934Y8588D02*
X127184D01*
X123934D02*
Y10338D01*
X126434Y11088D02*
X127934D01*
Y9338D02*
Y11088D01*
X84534Y32838D02*
X86284D01*
X84534Y31088D02*
X87784D01*
X84534D02*
Y32838D01*
X87034Y33588D02*
X88534D01*
Y31838D02*
Y33588D01*
X69534Y32838D02*
X71284D01*
X69534Y31088D02*
X72784D01*
X69534D02*
Y32838D01*
X72034Y33588D02*
X73534D01*
Y31838D02*
Y33588D01*
X80784Y25338D02*
X82534D01*
X80784Y23588D02*
X84034D01*
X80784D02*
Y25338D01*
X83284Y26088D02*
X84784D01*
Y24338D02*
Y26088D01*
X73284Y25338D02*
X75034D01*
X73284Y23588D02*
X76534D01*
X73284D02*
Y25338D01*
X75784Y26088D02*
X77284D01*
Y24338D02*
Y26088D01*
X103275Y32838D02*
X105025D01*
X103275Y31088D02*
X106525D01*
X103275D02*
Y32838D01*
X105775Y33588D02*
X107275D01*
Y31838D02*
Y33588D01*
X116434Y32838D02*
X118184D01*
X116434Y31088D02*
X119684D01*
X116434D02*
Y32838D01*
X118934Y33588D02*
X120434D01*
Y31838D02*
Y33588D01*
X123934Y32838D02*
X125684D01*
X123934Y31088D02*
X127184D01*
X123934D02*
Y32838D01*
X126434Y33588D02*
X127934D01*
Y31838D02*
Y33588D01*
X131434Y32838D02*
X133184D01*
X131434Y31088D02*
X134684D01*
X131434D02*
Y32838D01*
X133934Y33588D02*
X135434D01*
Y31838D02*
Y33588D01*
X81587Y47701D02*
Y47201D01*
X81487Y47101D01*
X81288D01*
X81188Y47201D01*
Y47701D01*
X80588Y47601D02*
X80688Y47701D01*
X80888D01*
X80988Y47601D01*
Y47501D01*
X80888Y47401D01*
X80688D01*
X80588Y47301D01*
Y47201D01*
X80688Y47101D01*
X80888D01*
X80988Y47201D01*
X80388Y47701D02*
Y47101D01*
X80088D01*
X79988Y47201D01*
Y47301D01*
X80088Y47401D01*
X80388D01*
X80088D01*
X79988Y47501D01*
Y47601D01*
X80088Y47701D01*
X80388D01*
D11*
X119348Y39895D02*
G03*
X119191Y40053I-157J-0D01*
G01*
X118884Y40053D02*
G03*
X118726Y39895I0J-157D01*
G01*
X118726Y39001D02*
G03*
X118884Y38844I157J0D01*
G01*
X119191D02*
G03*
X119348Y39001I0J157D01*
G01*
X123076Y39001D02*
G03*
X123234Y38844I157J0D01*
G01*
X123541Y38844D02*
G03*
X123698Y39001I0J157D01*
G01*
X123698Y39895D02*
G03*
X123541Y40053I-157J-0D01*
G01*
X123234D02*
G03*
X123076Y39895I0J-157D01*
G01*
X122276Y39001D02*
G03*
X122434Y38844I157J0D01*
G01*
X122741Y38844D02*
G03*
X122898Y39001I0J157D01*
G01*
X122898Y39895D02*
G03*
X122741Y40053I-157J-0D01*
G01*
X122434D02*
G03*
X122276Y39895I0J-157D01*
G01*
X120148Y39895D02*
G03*
X119991Y40053I-157J-0D01*
G01*
X119684Y40053D02*
G03*
X119526Y39895I0J-157D01*
G01*
X119526Y39001D02*
G03*
X119684Y38844I157J0D01*
G01*
X119991D02*
G03*
X120148Y39001I0J157D01*
G01*
X124926Y39008D02*
G03*
X125084Y38850I157J0D01*
G01*
X125391Y38850D02*
G03*
X125548Y39008I0J157D01*
G01*
X125548Y39901D02*
G03*
X125391Y40059I-157J-0D01*
G01*
X125084D02*
G03*
X124926Y39901I0J-157D01*
G01*
X125048Y37948D02*
G03*
X124891Y38106I-157J-0D01*
G01*
X124584Y38106D02*
G03*
X124426Y37948I0J-157D01*
G01*
X124426Y37055D02*
G03*
X124584Y36897I157J0D01*
G01*
X124891D02*
G03*
X125048Y37055I0J157D01*
G01*
X125798Y37948D02*
G03*
X125641Y38106I-157J-0D01*
G01*
X125334Y38106D02*
G03*
X125176Y37948I0J-157D01*
G01*
X125176Y37055D02*
G03*
X125334Y36897I157J0D01*
G01*
X125641D02*
G03*
X125798Y37055I0J157D01*
G01*
X126548Y37945D02*
G03*
X126391Y38103I-157J-0D01*
G01*
X126084Y38103D02*
G03*
X125926Y37945I0J-157D01*
G01*
X125926Y37051D02*
G03*
X126084Y36894I157J0D01*
G01*
X126391D02*
G03*
X126548Y37051I0J157D01*
G01*
X127298Y37945D02*
G03*
X127141Y38103I-157J-0D01*
G01*
X126834Y38103D02*
G03*
X126676Y37945I0J-157D01*
G01*
X126676Y37051D02*
G03*
X126834Y36894I157J0D01*
G01*
X127141D02*
G03*
X127298Y37051I0J157D01*
G01*
X124298Y37945D02*
G03*
X124141Y38103I-157J-0D01*
G01*
X123834Y38103D02*
G03*
X123676Y37945I0J-157D01*
G01*
X123676Y37051D02*
G03*
X123834Y36894I157J0D01*
G01*
X124141D02*
G03*
X124298Y37051I0J157D01*
G01*
X122745Y40755D02*
G03*
X122587Y40912I-157J0D01*
G01*
Y40290D02*
G03*
X122745Y40448I-0J157D01*
G01*
X121536Y40448D02*
G03*
X121694Y40290I157J0D01*
G01*
X121694Y40912D02*
G03*
X121536Y40755I0J-157D01*
G01*
X81848Y43850D02*
Y44297D01*
Y44612D02*
Y45059D01*
X81226Y43850D02*
Y44297D01*
Y45059D02*
X81848D01*
X81226Y43850D02*
X81848D01*
X81226Y44612D02*
Y45059D01*
X79726Y44612D02*
Y45059D01*
Y43850D02*
Y44297D01*
X80348Y44612D02*
Y45059D01*
X79726Y43850D02*
X80348D01*
X79726Y45059D02*
X80348D01*
Y43850D02*
Y44297D01*
X119348Y39606D02*
Y39895D01*
X118884Y40053D02*
X119191D01*
X118726Y39606D02*
Y39895D01*
X118726Y39001D02*
Y39291D01*
X118884Y38844D02*
X119191D01*
X119348Y39001D02*
Y39291D01*
X123076Y39001D02*
Y39291D01*
X123234Y38844D02*
X123541D01*
X123698Y39001D02*
Y39291D01*
X123698Y39606D02*
Y39895D01*
X123234Y40053D02*
X123541D01*
X123076Y39606D02*
Y39895D01*
X122276Y39001D02*
Y39291D01*
X122434Y38844D02*
X122741D01*
X122898Y39001D02*
Y39291D01*
X122898Y39606D02*
Y39895D01*
X122434Y40053D02*
X122741D01*
X122276Y39606D02*
Y39895D01*
X120148Y39606D02*
Y39895D01*
X119684Y40053D02*
X119991D01*
X119526Y39606D02*
Y39895D01*
X119526Y39001D02*
Y39291D01*
X119684Y38844D02*
X119991D01*
X120148Y39001D02*
Y39291D01*
X126348Y38844D02*
Y39291D01*
Y39606D02*
Y40053D01*
X125726Y38844D02*
Y39291D01*
Y40053D02*
X126348D01*
X125726Y38844D02*
X126348D01*
X125726Y39606D02*
Y40053D01*
X124926Y39008D02*
Y39297D01*
X125084Y38850D02*
X125391D01*
X125548Y39008D02*
Y39297D01*
X125548Y39612D02*
Y39901D01*
X125084Y40059D02*
X125391D01*
X124926Y39612D02*
Y39901D01*
X80476Y44612D02*
Y45059D01*
Y43850D02*
Y44297D01*
X81098Y44612D02*
Y45059D01*
X80476Y43850D02*
X81098D01*
X80476Y45059D02*
X81098D01*
Y43850D02*
Y44297D01*
X22958Y38715D02*
X22958Y40188D01*
X22565Y38715D02*
X22958D01*
X22549Y40188D02*
X22958D01*
X21809Y38715D02*
X22218D01*
X21809D02*
X21809Y40188D01*
X22210D01*
X128865Y40473D02*
X131109D01*
X128865Y38229D02*
X131109D01*
Y40473D01*
X128865Y38229D02*
Y40473D01*
X121592Y39777D02*
Y40112D01*
X121159D02*
X121592D01*
Y38891D02*
Y39226D01*
X121159Y38891D02*
X121592D01*
X126658Y40051D02*
X127298D01*
X126687Y38751D02*
X127287D01*
X127337Y39992D02*
Y40012D01*
Y38801D02*
Y38821D01*
X126637Y38801D02*
X126687Y38751D01*
X127287D02*
X127337Y38801D01*
X127298Y40051D02*
X127337Y40012D01*
X126629Y40022D02*
X126658Y40051D01*
X125048Y37659D02*
Y37948D01*
X124584Y38106D02*
X124891D01*
X124426Y37659D02*
Y37948D01*
X124426Y37055D02*
Y37344D01*
X124584Y36897D02*
X124891D01*
X125048Y37055D02*
Y37344D01*
X125798Y37659D02*
Y37948D01*
X125334Y38106D02*
X125641D01*
X125176Y37659D02*
Y37948D01*
X125176Y37055D02*
Y37344D01*
X125334Y36897D02*
X125641D01*
X125798Y37055D02*
Y37344D01*
X126548Y37656D02*
Y37945D01*
X126084Y38103D02*
X126391D01*
X125926Y37656D02*
Y37945D01*
X125926Y37051D02*
Y37341D01*
X126084Y36894D02*
X126391D01*
X126548Y37051D02*
Y37341D01*
X127298Y37656D02*
Y37945D01*
X126834Y38103D02*
X127141D01*
X126676Y37656D02*
Y37945D01*
X126676Y37051D02*
Y37341D01*
X126834Y36894D02*
X127141D01*
X127298Y37051D02*
Y37341D01*
X124298Y37656D02*
Y37945D01*
X123834Y38103D02*
X124141D01*
X123676Y37656D02*
Y37945D01*
X123676Y37051D02*
Y37341D01*
X123834Y36894D02*
X124141D01*
X124298Y37051D02*
Y37341D01*
X81976Y44612D02*
Y45059D01*
Y43850D02*
Y44297D01*
X82598Y44612D02*
Y45059D01*
X81976Y43850D02*
X82598D01*
X81976Y45059D02*
X82598D01*
Y43850D02*
Y44297D01*
X79598Y43850D02*
Y44297D01*
Y44612D02*
Y45059D01*
X78976Y43850D02*
Y44297D01*
Y45059D02*
X79598D01*
X78976Y43850D02*
X79598D01*
X78976Y44612D02*
Y45059D01*
X67867Y38765D02*
X67867Y40238D01*
X68260D01*
X67867Y38765D02*
X68276D01*
X68607Y40238D02*
X69016D01*
X69016Y38765D02*
X69016Y40238D01*
X68615Y38765D02*
X69016D01*
X14317Y38765D02*
X14317Y40238D01*
X14710D01*
X14317Y38765D02*
X14726D01*
X15057Y40238D02*
X15466D01*
X15466Y38765D02*
X15466Y40238D01*
X15065Y38765D02*
X15466D01*
X23717Y38715D02*
X23717Y40188D01*
X24110D01*
X23717Y38715D02*
X24126D01*
X24457Y40188D02*
X24866D01*
X24866Y38715D02*
X24866Y40188D01*
X24465Y38715D02*
X24866D01*
X31758D02*
X31758Y40188D01*
X31365Y38715D02*
X31758D01*
X31349Y40188D02*
X31758D01*
X30609Y38715D02*
X31018D01*
X30609D02*
X30609Y40188D01*
X31010D01*
X40454Y38758D02*
X40454Y40230D01*
X40060Y38758D02*
X40454D01*
X40044Y40230D02*
X40454D01*
X39304Y38758D02*
X39714D01*
X39304D02*
X39304Y40230D01*
X39706D01*
X32317Y38715D02*
X32317Y40188D01*
X32710D01*
X32317Y38715D02*
X32726D01*
X33057Y40188D02*
X33466D01*
X33466Y38715D02*
X33466Y40188D01*
X33065Y38715D02*
X33466D01*
X41117Y38765D02*
X41117Y40237D01*
X41510D01*
X41117Y38765D02*
X41526D01*
X41857Y40238D02*
X42266D01*
X42266Y38765D02*
X42266Y40238D01*
X41865Y38765D02*
X42266D01*
X49408Y38765D02*
X49408Y40238D01*
X49015Y38765D02*
X49408D01*
X48999Y40238D02*
X49408D01*
X48259Y38765D02*
X48668D01*
X48259D02*
X48259Y40238D01*
X48660D01*
X58258Y38765D02*
X58258Y40238D01*
X57865Y38765D02*
X58258D01*
X57849Y40238D02*
X58258D01*
X57109Y38765D02*
X57518D01*
X57109D02*
X57109Y40238D01*
X57510D01*
X50267Y38765D02*
X50267Y40238D01*
X50660D01*
X50267Y38765D02*
X50676D01*
X51007Y40238D02*
X51416D01*
X51416Y38765D02*
X51416Y40238D01*
X51015Y38765D02*
X51416D01*
X75808D02*
X75808Y40238D01*
X75415Y38765D02*
X75808D01*
X75399Y40238D02*
X75808D01*
X74659Y38765D02*
X75068D01*
X74659D02*
X74659Y40238D01*
X75060D01*
X59167Y38765D02*
X59167Y40238D01*
X59560D01*
X59167Y38765D02*
X59576D01*
X59907Y40238D02*
X60316D01*
X60316Y38765D02*
X60316Y40238D01*
X59915Y38765D02*
X60316D01*
X66854D02*
X66854Y40238D01*
X66460Y38765D02*
X66854D01*
X66444Y40238D02*
X66854D01*
X65704Y38765D02*
X66114D01*
X65704D02*
X65704Y40238D01*
X66106D01*
X84813Y38765D02*
X84813Y40238D01*
X84419Y38765D02*
X84813D01*
X84403Y40238D02*
X84813D01*
X83663Y38765D02*
X84073D01*
X83663D02*
X83663Y40238D01*
X84065D01*
X76812Y38765D02*
X76812Y40238D01*
X77206D01*
X76812Y38765D02*
X77222D01*
X77552Y40238D02*
X77962D01*
X77962Y38765D02*
X77962Y40238D01*
X77560Y38765D02*
X77962D01*
X93423D02*
X93423Y40238D01*
X93030Y38765D02*
X93423D01*
X93014Y40238D02*
X93423D01*
X92274Y38765D02*
X92683D01*
X92274D02*
X92274Y40238D01*
X92675D01*
X85721Y38765D02*
X85721Y40238D01*
X86115D01*
X85721Y38765D02*
X86130D01*
X86461Y40238D02*
X86871D01*
X86870Y38765D02*
X86871Y40238D01*
X86469Y38765D02*
X86870D01*
X94567Y38765D02*
X94567Y40238D01*
X94960D01*
X94567Y38765D02*
X94976D01*
X95307Y40238D02*
X95716D01*
X95716Y38765D02*
X95716Y40238D01*
X95315Y38765D02*
X95716D01*
X102341D02*
X102341Y40238D01*
X101947Y38765D02*
X102341D01*
X101931Y40238D02*
X102341D01*
X101191Y38765D02*
X101601D01*
X101191D02*
X101191Y40238D01*
X101593D01*
X103617Y38765D02*
X103617Y40238D01*
X104010D01*
X103617Y38765D02*
X104026D01*
X104357Y40238D02*
X104766D01*
X104766Y38765D02*
X104766Y40238D01*
X104365Y38765D02*
X104766D01*
X110958Y38815D02*
X110958Y40288D01*
X110565Y38815D02*
X110958D01*
X110549Y40288D02*
X110958D01*
X109809Y38815D02*
X110218D01*
X109809D02*
X109809Y40288D01*
X110210D01*
X122298Y40912D02*
X122587D01*
X122745Y40448D02*
Y40755D01*
X122298Y40290D02*
X122587D01*
X121694Y40290D02*
X121983D01*
X121536Y40448D02*
Y40755D01*
X121694Y40912D02*
X121983D01*
D48*
X129377Y38623D02*
G03*
X129377Y38623I-118J0D01*
G01*
D49*
X128452Y38003D02*
G03*
X128452Y38003I-49J0D01*
G01*
D50*
X19958Y41201D02*
G03*
X19958Y41201I-59J0D01*
G01*
X19211Y40901D02*
G03*
X19211Y40901I-59J0D01*
G01*
X28808Y41201D02*
G03*
X28808Y41201I-59J0D01*
G01*
X28061Y40901D02*
G03*
X28061Y40901I-59J0D01*
G01*
X37658Y41201D02*
G03*
X37658Y41201I-59J0D01*
G01*
X36911Y40901D02*
G03*
X36911Y40901I-59J0D01*
G01*
X46508Y41201D02*
G03*
X46508Y41201I-59J0D01*
G01*
X45761Y40901D02*
G03*
X45761Y40901I-59J0D01*
G01*
X55358Y41201D02*
G03*
X55358Y41201I-59J0D01*
G01*
X54611Y40901D02*
G03*
X54611Y40901I-59J0D01*
G01*
X64208Y41201D02*
G03*
X64208Y41201I-59J0D01*
G01*
X63461Y40901D02*
G03*
X63461Y40901I-59J0D01*
G01*
X73208Y41201D02*
G03*
X73208Y41201I-59J0D01*
G01*
X72461Y40901D02*
G03*
X72461Y40901I-59J0D01*
G01*
X81908Y41201D02*
G03*
X81908Y41201I-59J0D01*
G01*
X81161Y40901D02*
G03*
X81161Y40901I-59J0D01*
G01*
X90758Y41201D02*
G03*
X90758Y41201I-59J0D01*
G01*
X90011Y40901D02*
G03*
X90011Y40901I-59J0D01*
G01*
X99608Y41201D02*
G03*
X99608Y41201I-59J0D01*
G01*
X98861Y40901D02*
G03*
X98861Y40901I-59J0D01*
G01*
X108458Y41201D02*
G03*
X108458Y41201I-59J0D01*
G01*
X107711Y40901D02*
G03*
X107711Y40901I-59J0D01*
G01*
D51*
X19448Y37173D02*
Y41130D01*
X18250Y37173D02*
X19448D01*
X18250D02*
Y41130D01*
X19448D01*
X28298Y37173D02*
Y41130D01*
X27100Y37173D02*
X28298D01*
X27100D02*
Y41130D01*
X28298D01*
X37148Y37173D02*
Y41130D01*
X35950Y37173D02*
X37148D01*
X35950D02*
Y41130D01*
X37148D01*
X45998Y37173D02*
Y41130D01*
X44800Y37173D02*
X45998D01*
X44800D02*
Y41130D01*
X45998D01*
X54848Y37173D02*
Y41130D01*
X53650Y37173D02*
X54848D01*
X53650D02*
Y41130D01*
X54848D01*
X63698Y37173D02*
Y41130D01*
X62500Y37173D02*
X63698D01*
X62500D02*
Y41130D01*
X63698D01*
X72698Y37173D02*
Y41130D01*
X71500Y37173D02*
X72698D01*
X71500D02*
Y41130D01*
X72698D01*
X81398Y37173D02*
Y41130D01*
X80200Y37173D02*
X81398D01*
X80200D02*
Y41130D01*
X81398D01*
X90248Y37173D02*
Y41130D01*
X89050Y37173D02*
X90248D01*
X89050D02*
Y41130D01*
X90248D01*
X99098Y37173D02*
Y41130D01*
X97900Y37173D02*
X99098D01*
X97900D02*
Y41130D01*
X99098D01*
X107948Y37173D02*
Y41130D01*
X106750Y37173D02*
X107948D01*
X106750D02*
Y41130D01*
X107948D01*
D52*
X82537Y46865D02*
Y47565D01*
X82540Y48365D02*
Y48967D01*
X79137Y46865D02*
Y47565D01*
X79135Y48365D02*
Y48967D01*
X82540D01*
D53*
X127237Y40501D02*
Y40460D01*
X127154Y40376D01*
X127071Y40460D01*
Y40501D01*
X127154Y40376D02*
Y40251D01*
X126988D02*
X126904D01*
X126946D01*
Y40501D01*
X126988Y40460D01*
X19437Y41651D02*
Y41443D01*
X19396Y41401D01*
X19312D01*
X19271Y41443D01*
Y41651D01*
X19188Y41401D02*
X19104D01*
X19146D01*
Y41651D01*
X19188Y41610D01*
X18813Y41651D02*
X18979D01*
Y41526D01*
X18896Y41568D01*
X18854D01*
X18813Y41526D01*
Y41443D01*
X18854Y41401D01*
X18938D01*
X18979Y41443D01*
X28287Y41551D02*
Y41343D01*
X28246Y41301D01*
X28162D01*
X28121Y41343D01*
Y41551D01*
X28038Y41301D02*
X27954D01*
X27996D01*
Y41551D01*
X28038Y41510D01*
X27704Y41301D02*
Y41551D01*
X27829Y41426D01*
X27663D01*
X37137Y41551D02*
Y41343D01*
X37096Y41301D01*
X37012D01*
X36971Y41343D01*
Y41551D01*
X36888Y41301D02*
X36804D01*
X36846D01*
Y41551D01*
X36888Y41510D01*
X36679D02*
X36638Y41551D01*
X36554D01*
X36513Y41510D01*
Y41468D01*
X36554Y41426D01*
X36596D01*
X36554D01*
X36513Y41385D01*
Y41343D01*
X36554Y41301D01*
X36638D01*
X36679Y41343D01*
X46010Y41551D02*
Y41343D01*
X45969Y41301D01*
X45885D01*
X45844Y41343D01*
Y41551D01*
X45760Y41301D02*
X45677D01*
X45719D01*
Y41551D01*
X45760Y41510D01*
X45385Y41301D02*
X45552D01*
X45385Y41468D01*
Y41510D01*
X45427Y41551D01*
X45510D01*
X45552Y41510D01*
X54837Y41551D02*
Y41343D01*
X54796Y41301D01*
X54712D01*
X54671Y41343D01*
Y41551D01*
X54588Y41301D02*
X54504D01*
X54546D01*
Y41551D01*
X54588Y41510D01*
X54379Y41301D02*
X54296D01*
X54338D01*
Y41551D01*
X54379Y41510D01*
X63687Y41601D02*
Y41393D01*
X63646Y41351D01*
X63562D01*
X63521Y41393D01*
Y41601D01*
X63438Y41351D02*
X63354D01*
X63396D01*
Y41601D01*
X63438Y41560D01*
X63229D02*
X63188Y41601D01*
X63104D01*
X63063Y41560D01*
Y41393D01*
X63104Y41351D01*
X63188D01*
X63229Y41393D01*
Y41560D01*
X72737Y41601D02*
Y41393D01*
X72696Y41351D01*
X72612D01*
X72571Y41393D01*
Y41601D01*
X72488Y41393D02*
X72446Y41351D01*
X72363D01*
X72321Y41393D01*
Y41560D01*
X72363Y41601D01*
X72446D01*
X72488Y41560D01*
Y41518D01*
X72446Y41476D01*
X72321D01*
X81410Y41601D02*
Y41393D01*
X81369Y41351D01*
X81285D01*
X81244Y41393D01*
Y41601D01*
X81160Y41560D02*
X81119Y41601D01*
X81035D01*
X80994Y41560D01*
Y41518D01*
X81035Y41476D01*
X80994Y41435D01*
Y41393D01*
X81035Y41351D01*
X81119D01*
X81160Y41393D01*
Y41435D01*
X81119Y41476D01*
X81160Y41518D01*
Y41560D01*
X81119Y41476D02*
X81035D01*
X90237Y41601D02*
Y41393D01*
X90196Y41351D01*
X90112D01*
X90071Y41393D01*
Y41601D01*
X89988D02*
X89821D01*
Y41560D01*
X89988Y41393D01*
Y41351D01*
X99087Y41551D02*
Y41343D01*
X99046Y41301D01*
X98962D01*
X98921Y41343D01*
Y41551D01*
X98671D02*
X98754Y41510D01*
X98838Y41426D01*
Y41343D01*
X98796Y41301D01*
X98713D01*
X98671Y41343D01*
Y41385D01*
X98713Y41426D01*
X98838D01*
X107937Y41551D02*
Y41343D01*
X107896Y41301D01*
X107812D01*
X107771Y41343D01*
Y41551D01*
X107521D02*
X107688D01*
Y41426D01*
X107604Y41468D01*
X107563D01*
X107521Y41426D01*
Y41343D01*
X107563Y41301D01*
X107646D01*
X107688Y41343D01*
X120887Y38492D02*
Y38708D01*
X120931Y38751D01*
X121017D01*
X121061Y38708D01*
Y38492D01*
X121277Y38751D02*
Y38492D01*
X121147Y38621D01*
X121321D01*
X134337Y41395D02*
Y41187D01*
X134296Y41145D01*
X134212D01*
X134171Y41187D01*
Y41395D01*
X134088Y41353D02*
X134046Y41395D01*
X133963D01*
X133921Y41353D01*
Y41312D01*
X133963Y41270D01*
X134004D01*
X133963D01*
X133921Y41228D01*
Y41187D01*
X133963Y41145D01*
X134046D01*
X134088Y41187D01*
X134337Y38851D02*
Y38643D01*
X134296Y38601D01*
X134212D01*
X134171Y38643D01*
Y38851D01*
X133921Y38601D02*
X134088D01*
X133921Y38768D01*
Y38810D01*
X133963Y38851D01*
X134046D01*
X134088Y38810D01*
X129772Y39097D02*
Y39305D01*
X129814Y39347D01*
X129897D01*
X129939Y39305D01*
Y39097D01*
X130022Y39347D02*
X130105D01*
X130064D01*
Y39097D01*
X130022Y39138D01*
X22990Y40480D02*
Y40730D01*
X22865D01*
X22823Y40688D01*
Y40605D01*
X22865Y40563D01*
X22990D01*
X22907D02*
X22823Y40480D01*
X22573Y40730D02*
X22740D01*
Y40480D01*
X22573D01*
X22740Y40605D02*
X22657D01*
X22324Y40688D02*
X22365Y40730D01*
X22449D01*
X22490Y40688D01*
Y40522D01*
X22449Y40480D01*
X22365D01*
X22324Y40522D01*
Y40605D01*
X22407D01*
X22074Y40480D02*
X22240D01*
X22074Y40647D01*
Y40688D01*
X22115Y40730D01*
X22199D01*
X22240Y40688D01*
X21824Y40480D02*
X21990D01*
X21824Y40647D01*
Y40688D01*
X21865Y40730D01*
X21949D01*
X21990Y40688D01*
X31706Y40477D02*
Y40727D01*
X31581D01*
X31539Y40686D01*
Y40602D01*
X31581Y40561D01*
X31706D01*
X31622D02*
X31539Y40477D01*
X31289Y40727D02*
X31456D01*
Y40477D01*
X31289D01*
X31456Y40602D02*
X31372D01*
X31039Y40686D02*
X31081Y40727D01*
X31164D01*
X31206Y40686D01*
Y40519D01*
X31164Y40477D01*
X31081D01*
X31039Y40519D01*
Y40602D01*
X31123D01*
X30789Y40477D02*
X30956D01*
X30789Y40644D01*
Y40686D01*
X30831Y40727D01*
X30914D01*
X30956Y40686D01*
X30706Y40477D02*
X30623D01*
X30664D01*
Y40727D01*
X30706Y40686D01*
X40486Y40522D02*
Y40772D01*
X40361D01*
X40319Y40731D01*
Y40647D01*
X40361Y40606D01*
X40486D01*
X40402D02*
X40319Y40522D01*
X40069Y40772D02*
X40236D01*
Y40522D01*
X40069D01*
X40236Y40647D02*
X40152D01*
X39819Y40731D02*
X39861Y40772D01*
X39944D01*
X39986Y40731D01*
Y40564D01*
X39944Y40522D01*
X39861D01*
X39819Y40564D01*
Y40647D01*
X39903D01*
X39569Y40522D02*
X39736D01*
X39569Y40689D01*
Y40731D01*
X39611Y40772D01*
X39694D01*
X39736Y40731D01*
X39486D02*
X39444Y40772D01*
X39361D01*
X39319Y40731D01*
Y40564D01*
X39361Y40522D01*
X39444D01*
X39486Y40564D01*
Y40731D01*
X49392Y40530D02*
Y40780D01*
X49267D01*
X49226Y40738D01*
Y40655D01*
X49267Y40613D01*
X49392D01*
X49309D02*
X49226Y40530D01*
X48976Y40780D02*
X49142D01*
Y40530D01*
X48976D01*
X49142Y40655D02*
X49059D01*
X48726Y40738D02*
X48767Y40780D01*
X48851D01*
X48892Y40738D01*
Y40572D01*
X48851Y40530D01*
X48767D01*
X48726Y40572D01*
Y40655D01*
X48809D01*
X48642Y40530D02*
X48559D01*
X48601D01*
Y40780D01*
X48642Y40738D01*
X48434Y40572D02*
X48392Y40530D01*
X48309D01*
X48267Y40572D01*
Y40738D01*
X48309Y40780D01*
X48392D01*
X48434Y40738D01*
Y40697D01*
X48392Y40655D01*
X48267D01*
X58240Y40530D02*
Y40780D01*
X58115D01*
X58073Y40738D01*
Y40655D01*
X58115Y40613D01*
X58240D01*
X58157D02*
X58073Y40530D01*
X57823Y40780D02*
X57990D01*
Y40530D01*
X57823D01*
X57990Y40655D02*
X57907D01*
X57574Y40738D02*
X57615Y40780D01*
X57699D01*
X57740Y40738D01*
Y40572D01*
X57699Y40530D01*
X57615D01*
X57574Y40572D01*
Y40655D01*
X57657D01*
X57490Y40530D02*
X57407D01*
X57449D01*
Y40780D01*
X57490Y40738D01*
X57282D02*
X57240Y40780D01*
X57157D01*
X57115Y40738D01*
Y40697D01*
X57157Y40655D01*
X57115Y40613D01*
Y40572D01*
X57157Y40530D01*
X57240D01*
X57282Y40572D01*
Y40613D01*
X57240Y40655D01*
X57282Y40697D01*
Y40738D01*
X57240Y40655D02*
X57157D01*
X24856Y40473D02*
Y40723D01*
X24731D01*
X24689Y40681D01*
Y40598D01*
X24731Y40556D01*
X24856D01*
X24772D02*
X24689Y40473D01*
X24439Y40723D02*
X24606D01*
Y40473D01*
X24439D01*
X24606Y40598D02*
X24522D01*
X24189Y40681D02*
X24231Y40723D01*
X24314D01*
X24356Y40681D01*
Y40514D01*
X24314Y40473D01*
X24231D01*
X24189Y40514D01*
Y40598D01*
X24273D01*
X24106Y40473D02*
X24023D01*
X24064D01*
Y40723D01*
X24106Y40681D01*
X23898Y40723D02*
X23731D01*
Y40681D01*
X23898Y40514D01*
Y40473D01*
X15450Y40530D02*
Y40780D01*
X15325D01*
X15283Y40738D01*
Y40655D01*
X15325Y40613D01*
X15450D01*
X15367D02*
X15283Y40530D01*
X15033Y40780D02*
X15200D01*
Y40530D01*
X15033D01*
X15200Y40655D02*
X15117D01*
X14784Y40738D02*
X14825Y40780D01*
X14909D01*
X14950Y40738D01*
Y40572D01*
X14909Y40530D01*
X14825D01*
X14784Y40572D01*
Y40655D01*
X14867D01*
X14700Y40530D02*
X14617D01*
X14659D01*
Y40780D01*
X14700Y40738D01*
X14325Y40780D02*
X14409Y40738D01*
X14492Y40655D01*
Y40572D01*
X14450Y40530D01*
X14367D01*
X14325Y40572D01*
Y40613D01*
X14367Y40655D01*
X14492D01*
X33454Y40477D02*
Y40727D01*
X33329D01*
X33288Y40686D01*
Y40602D01*
X33329Y40561D01*
X33454D01*
X33371D02*
X33288Y40477D01*
X33038Y40727D02*
X33204D01*
Y40477D01*
X33038D01*
X33204Y40602D02*
X33121D01*
X32788Y40686D02*
X32830Y40727D01*
X32913D01*
X32955Y40686D01*
Y40519D01*
X32913Y40477D01*
X32830D01*
X32788Y40519D01*
Y40602D01*
X32871D01*
X32705Y40477D02*
X32621D01*
X32663D01*
Y40727D01*
X32705Y40686D01*
X32330Y40727D02*
X32496D01*
Y40602D01*
X32413Y40644D01*
X32371D01*
X32330Y40602D01*
Y40519D01*
X32371Y40477D01*
X32455D01*
X32496Y40519D01*
X42248Y40530D02*
Y40780D01*
X42123D01*
X42081Y40738D01*
Y40655D01*
X42123Y40613D01*
X42248D01*
X42165D02*
X42081Y40530D01*
X41831Y40780D02*
X41998D01*
Y40530D01*
X41831D01*
X41998Y40655D02*
X41915D01*
X41581Y40738D02*
X41623Y40780D01*
X41706D01*
X41748Y40738D01*
Y40572D01*
X41706Y40530D01*
X41623D01*
X41581Y40572D01*
Y40655D01*
X41665D01*
X41498Y40530D02*
X41415D01*
X41456D01*
Y40780D01*
X41498Y40738D01*
X41165Y40530D02*
Y40780D01*
X41290Y40655D01*
X41123D01*
X51400Y40530D02*
Y40780D01*
X51275D01*
X51233Y40738D01*
Y40655D01*
X51275Y40613D01*
X51400D01*
X51317D02*
X51233Y40530D01*
X50983Y40780D02*
X51150D01*
Y40530D01*
X50983D01*
X51150Y40655D02*
X51067D01*
X50734Y40738D02*
X50775Y40780D01*
X50859D01*
X50900Y40738D01*
Y40572D01*
X50859Y40530D01*
X50775D01*
X50734Y40572D01*
Y40655D01*
X50817D01*
X50650Y40530D02*
X50567D01*
X50609D01*
Y40780D01*
X50650Y40738D01*
X50442D02*
X50400Y40780D01*
X50317D01*
X50275Y40738D01*
Y40697D01*
X50317Y40655D01*
X50359D01*
X50317D01*
X50275Y40613D01*
Y40572D01*
X50317Y40530D01*
X50400D01*
X50442Y40572D01*
X66840Y40522D02*
Y40772D01*
X66715D01*
X66673Y40731D01*
Y40647D01*
X66715Y40606D01*
X66840D01*
X66757D02*
X66673Y40522D01*
X66423Y40772D02*
X66590D01*
Y40522D01*
X66423D01*
X66590Y40647D02*
X66507D01*
X66174Y40731D02*
X66215Y40772D01*
X66299D01*
X66340Y40731D01*
Y40564D01*
X66299Y40522D01*
X66215D01*
X66174Y40564D01*
Y40647D01*
X66257D01*
X66090Y40522D02*
X66007D01*
X66049D01*
Y40772D01*
X66090Y40731D01*
X65715Y40522D02*
X65882D01*
X65715Y40689D01*
Y40731D01*
X65757Y40772D01*
X65840D01*
X65882Y40731D01*
X75710Y40530D02*
Y40780D01*
X75585D01*
X75543Y40738D01*
Y40655D01*
X75585Y40613D01*
X75710D01*
X75627D02*
X75543Y40530D01*
X75293Y40780D02*
X75460D01*
Y40530D01*
X75293D01*
X75460Y40655D02*
X75377D01*
X75044Y40738D02*
X75085Y40780D01*
X75169D01*
X75210Y40738D01*
Y40572D01*
X75169Y40530D01*
X75085D01*
X75044Y40572D01*
Y40655D01*
X75127D01*
X74960Y40530D02*
X74877D01*
X74919D01*
Y40780D01*
X74960Y40738D01*
X74752Y40530D02*
X74669D01*
X74710D01*
Y40780D01*
X74752Y40738D01*
X84800Y40528D02*
Y40778D01*
X84675D01*
X84633Y40736D01*
Y40653D01*
X84675Y40611D01*
X84800D01*
X84717D02*
X84633Y40528D01*
X84383Y40778D02*
X84550D01*
Y40528D01*
X84383D01*
X84550Y40653D02*
X84467D01*
X84134Y40736D02*
X84175Y40778D01*
X84259D01*
X84300Y40736D01*
Y40569D01*
X84259Y40528D01*
X84175D01*
X84134Y40569D01*
Y40653D01*
X84217D01*
X84050Y40528D02*
X83967D01*
X84009D01*
Y40778D01*
X84050Y40736D01*
X83842D02*
X83800Y40778D01*
X83717D01*
X83675Y40736D01*
Y40569D01*
X83717Y40528D01*
X83800D01*
X83842Y40569D01*
Y40736D01*
X93237Y40501D02*
Y40751D01*
X93112D01*
X93071Y40710D01*
Y40626D01*
X93112Y40585D01*
X93237D01*
X93154D02*
X93071Y40501D01*
X92821Y40751D02*
X92988D01*
Y40501D01*
X92821D01*
X92988Y40626D02*
X92904D01*
X92571Y40710D02*
X92613Y40751D01*
X92696D01*
X92738Y40710D01*
Y40543D01*
X92696Y40501D01*
X92613D01*
X92571Y40543D01*
Y40626D01*
X92654D01*
X92488Y40543D02*
X92446Y40501D01*
X92363D01*
X92321Y40543D01*
Y40710D01*
X92363Y40751D01*
X92446D01*
X92488Y40710D01*
Y40668D01*
X92446Y40626D01*
X92321D01*
X102118Y40528D02*
Y40777D01*
X101993D01*
X101952Y40736D01*
Y40652D01*
X101993Y40611D01*
X102118D01*
X102035D02*
X101952Y40528D01*
X101702Y40777D02*
X101868D01*
Y40528D01*
X101702D01*
X101868Y40652D02*
X101785D01*
X101452Y40736D02*
X101493Y40777D01*
X101577D01*
X101618Y40736D01*
Y40569D01*
X101577Y40528D01*
X101493D01*
X101452Y40569D01*
Y40652D01*
X101535D01*
X101368Y40736D02*
X101327Y40777D01*
X101243D01*
X101202Y40736D01*
Y40694D01*
X101243Y40652D01*
X101202Y40611D01*
Y40569D01*
X101243Y40528D01*
X101327D01*
X101368Y40569D01*
Y40611D01*
X101327Y40652D01*
X101368Y40694D01*
Y40736D01*
X101327Y40652D02*
X101243D01*
X110734Y40578D02*
Y40827D01*
X110609D01*
X110568Y40786D01*
Y40702D01*
X110609Y40661D01*
X110734D01*
X110651D02*
X110568Y40578D01*
X110318Y40827D02*
X110484D01*
Y40578D01*
X110318D01*
X110484Y40702D02*
X110401D01*
X110068Y40786D02*
X110110Y40827D01*
X110193D01*
X110235Y40786D01*
Y40619D01*
X110193Y40578D01*
X110110D01*
X110068Y40619D01*
Y40702D01*
X110151D01*
X109985Y40827D02*
X109818D01*
Y40786D01*
X109985Y40619D01*
Y40578D01*
X60096Y40523D02*
Y40773D01*
X59971D01*
X59929Y40731D01*
Y40648D01*
X59971Y40606D01*
X60096D01*
X60012D02*
X59929Y40523D01*
X59679Y40773D02*
X59846D01*
Y40523D01*
X59679D01*
X59846Y40648D02*
X59762D01*
X59429Y40731D02*
X59471Y40773D01*
X59554D01*
X59596Y40731D01*
Y40564D01*
X59554Y40523D01*
X59471D01*
X59429Y40564D01*
Y40648D01*
X59513D01*
X59179Y40773D02*
X59263Y40731D01*
X59346Y40648D01*
Y40564D01*
X59304Y40523D01*
X59221D01*
X59179Y40564D01*
Y40606D01*
X59221Y40648D01*
X59346D01*
X68937Y40501D02*
Y40751D01*
X68812D01*
X68771Y40710D01*
Y40626D01*
X68812Y40585D01*
X68937D01*
X68854D02*
X68771Y40501D01*
X68521Y40751D02*
X68688D01*
Y40501D01*
X68521D01*
X68688Y40626D02*
X68604D01*
X68271Y40710D02*
X68313Y40751D01*
X68396D01*
X68438Y40710D01*
Y40543D01*
X68396Y40501D01*
X68313D01*
X68271Y40543D01*
Y40626D01*
X68354D01*
X68021Y40751D02*
X68188D01*
Y40626D01*
X68104Y40668D01*
X68063D01*
X68021Y40626D01*
Y40543D01*
X68063Y40501D01*
X68146D01*
X68188Y40543D01*
X77738Y40523D02*
Y40773D01*
X77613D01*
X77571Y40731D01*
Y40648D01*
X77613Y40606D01*
X77738D01*
X77655D02*
X77571Y40523D01*
X77321Y40773D02*
X77488D01*
Y40523D01*
X77321D01*
X77488Y40648D02*
X77405D01*
X77071Y40731D02*
X77113Y40773D01*
X77196D01*
X77238Y40731D01*
Y40564D01*
X77196Y40523D01*
X77113D01*
X77071Y40564D01*
Y40648D01*
X77155D01*
X76863Y40523D02*
Y40773D01*
X76988Y40648D01*
X76821D01*
X86650Y40523D02*
Y40773D01*
X86525D01*
X86483Y40731D01*
Y40648D01*
X86525Y40606D01*
X86650D01*
X86567D02*
X86483Y40523D01*
X86233Y40773D02*
X86400D01*
Y40523D01*
X86233D01*
X86400Y40648D02*
X86317D01*
X85984Y40731D02*
X86025Y40773D01*
X86109D01*
X86150Y40731D01*
Y40564D01*
X86109Y40523D01*
X86025D01*
X85984Y40564D01*
Y40648D01*
X86067D01*
X85900Y40731D02*
X85859Y40773D01*
X85775D01*
X85734Y40731D01*
Y40689D01*
X85775Y40648D01*
X85817D01*
X85775D01*
X85734Y40606D01*
Y40564D01*
X85775Y40523D01*
X85859D01*
X85900Y40564D01*
X95587Y40501D02*
Y40751D01*
X95462D01*
X95421Y40710D01*
Y40626D01*
X95462Y40585D01*
X95587D01*
X95504D02*
X95421Y40501D01*
X95171Y40751D02*
X95338D01*
Y40501D01*
X95171D01*
X95338Y40626D02*
X95254D01*
X94921Y40710D02*
X94963Y40751D01*
X95046D01*
X95088Y40710D01*
Y40543D01*
X95046Y40501D01*
X94963D01*
X94921Y40543D01*
Y40626D01*
X95004D01*
X94671Y40501D02*
X94838D01*
X94671Y40668D01*
Y40710D01*
X94713Y40751D01*
X94796D01*
X94838Y40710D01*
X104637Y40501D02*
Y40751D01*
X104512D01*
X104471Y40710D01*
Y40626D01*
X104512Y40585D01*
X104637D01*
X104554D02*
X104471Y40501D01*
X104221Y40751D02*
X104388D01*
Y40501D01*
X104221D01*
X104388Y40626D02*
X104304D01*
X103971Y40710D02*
X104013Y40751D01*
X104096D01*
X104138Y40710D01*
Y40543D01*
X104096Y40501D01*
X104013D01*
X103971Y40543D01*
Y40626D01*
X104054D01*
X103888Y40501D02*
X103804D01*
X103846D01*
Y40751D01*
X103888Y40710D01*
X80987Y43405D02*
Y43655D01*
X80862D01*
X80821Y43613D01*
Y43530D01*
X80862Y43488D01*
X80987D01*
X80904D02*
X80821Y43405D01*
X80738Y43655D02*
X80571D01*
Y43613D01*
X80738Y43446D01*
Y43405D01*
X126287Y40201D02*
Y40451D01*
X126162D01*
X126121Y40410D01*
Y40326D01*
X126162Y40285D01*
X126287D01*
X126204D02*
X126121Y40201D01*
X125871Y40451D02*
X125954Y40410D01*
X126038Y40326D01*
Y40243D01*
X125996Y40201D01*
X125913D01*
X125871Y40243D01*
Y40285D01*
X125913Y40326D01*
X126038D01*
X81737Y43401D02*
Y43651D01*
X81612D01*
X81571Y43610D01*
Y43526D01*
X81612Y43485D01*
X81737D01*
X81654D02*
X81571Y43401D01*
X81363D02*
Y43651D01*
X81488Y43526D01*
X81321D01*
X82487Y43401D02*
Y43661D01*
X82357D01*
X82314Y43618D01*
Y43531D01*
X82357Y43488D01*
X82487D01*
X82401D02*
X82314Y43401D01*
X82228Y43618D02*
X82184Y43661D01*
X82098D01*
X82054Y43618D01*
Y43575D01*
X82098Y43531D01*
X82141D01*
X82098D01*
X82054Y43488D01*
Y43445D01*
X82098Y43401D01*
X82184D01*
X82228Y43445D01*
X80237Y43401D02*
Y43651D01*
X80112D01*
X80071Y43610D01*
Y43526D01*
X80112Y43485D01*
X80237D01*
X80154D02*
X80071Y43401D01*
X79821D02*
X79988D01*
X79821Y43568D01*
Y43610D01*
X79863Y43651D01*
X79946D01*
X79988Y43610D01*
X79437Y43401D02*
Y43661D01*
X79307D01*
X79264Y43618D01*
Y43531D01*
X79307Y43488D01*
X79437D01*
X79351D02*
X79264Y43401D01*
X79178D02*
X79091D01*
X79134D01*
Y43661D01*
X79178Y43618D01*
X125271Y40410D02*
X125312Y40451D01*
X125396D01*
X125437Y40410D01*
Y40243D01*
X125396Y40201D01*
X125312D01*
X125271Y40243D01*
X125188Y40201D02*
X125104D01*
X125146D01*
Y40451D01*
X125188Y40410D01*
X124979Y40201D02*
X124896D01*
X124938D01*
Y40451D01*
X124979Y40410D01*
X118911Y38385D02*
X118867Y38342D01*
X118781D01*
X118737Y38385D01*
Y38558D01*
X118781Y38601D01*
X118867D01*
X118911Y38558D01*
X118997Y38601D02*
X119084D01*
X119041D01*
Y38342D01*
X118997Y38385D01*
X119214D02*
X119257Y38342D01*
X119344D01*
X119387Y38385D01*
Y38558D01*
X119344Y38601D01*
X119257D01*
X119214Y38558D01*
Y38385D01*
X119761Y38432D02*
X119717Y38388D01*
X119631D01*
X119587Y38432D01*
Y38605D01*
X119631Y38648D01*
X119717D01*
X119761Y38605D01*
X119847D02*
X119891Y38648D01*
X119977D01*
X120021Y38605D01*
Y38432D01*
X119977Y38388D01*
X119891D01*
X119847Y38432D01*
Y38475D01*
X119891Y38518D01*
X120021D01*
X122560Y41417D02*
X122603Y41460D01*
X122690D01*
X122733Y41417D01*
Y41243D01*
X122690Y41200D01*
X122603D01*
X122560Y41243D01*
X122473Y41417D02*
X122430Y41460D01*
X122343D01*
X122300Y41417D01*
Y41373D01*
X122343Y41330D01*
X122300Y41287D01*
Y41243D01*
X122343Y41200D01*
X122430D01*
X122473Y41243D01*
Y41287D01*
X122430Y41330D01*
X122473Y41373D01*
Y41417D01*
X122430Y41330D02*
X122343D01*
X124821Y38510D02*
X124862Y38551D01*
X124946D01*
X124987Y38510D01*
Y38343D01*
X124946Y38301D01*
X124862D01*
X124821Y38343D01*
X124738Y38551D02*
X124571D01*
Y38510D01*
X124738Y38343D01*
Y38301D01*
X124071Y38510D02*
X124112Y38551D01*
X124196D01*
X124237Y38510D01*
Y38343D01*
X124196Y38301D01*
X124112D01*
X124071Y38343D01*
X123821Y38551D02*
X123904Y38510D01*
X123988Y38426D01*
Y38343D01*
X123946Y38301D01*
X123863D01*
X123821Y38343D01*
Y38385D01*
X123863Y38426D01*
X123988D01*
X122511Y38435D02*
X122467Y38392D01*
X122381D01*
X122337Y38435D01*
Y38608D01*
X122381Y38651D01*
X122467D01*
X122511Y38608D01*
X122771Y38392D02*
X122597D01*
Y38521D01*
X122684Y38478D01*
X122727D01*
X122771Y38521D01*
Y38608D01*
X122727Y38651D01*
X122641D01*
X122597Y38608D01*
X123311Y38435D02*
X123267Y38392D01*
X123181D01*
X123137Y38435D01*
Y38608D01*
X123181Y38651D01*
X123267D01*
X123311Y38608D01*
X123527Y38651D02*
Y38392D01*
X123397Y38521D01*
X123571D01*
X127021Y38510D02*
X127062Y38551D01*
X127146D01*
X127187Y38510D01*
Y38343D01*
X127146Y38301D01*
X127062D01*
X127021Y38343D01*
X126938Y38510D02*
X126896Y38551D01*
X126813D01*
X126771Y38510D01*
Y38468D01*
X126813Y38426D01*
X126854D01*
X126813D01*
X126771Y38385D01*
Y38343D01*
X126813Y38301D01*
X126896D01*
X126938Y38343D01*
X126283Y38510D02*
X126325Y38551D01*
X126408D01*
X126450Y38510D01*
Y38343D01*
X126408Y38301D01*
X126325D01*
X126283Y38343D01*
X126033Y38301D02*
X126200D01*
X126033Y38468D01*
Y38510D01*
X126075Y38551D01*
X126158D01*
X126200Y38510D01*
X125463D02*
X125504Y38551D01*
X125587D01*
X125629Y38510D01*
Y38343D01*
X125587Y38301D01*
X125504D01*
X125463Y38343D01*
X125379Y38301D02*
X125296D01*
X125338D01*
Y38551D01*
X125379Y38510D01*
M02*
