G04*
G04 #@! TF.GenerationSoftware,Altium Limited,Altium Designer,20.0.1 (14)*
G04*
G04 Layer_Color=2752767*
%FSLAX24Y24*%
%MOIN*%
G70*
G01*
G75*
%ADD56C,0.0020*%
%ADD57C,0.0027*%
D56*
X79620Y46486D02*
Y46646D01*
X79780D01*
Y46486D01*
X79620D01*
X81895D02*
Y46646D01*
X82055D01*
Y46486D01*
X81895D01*
X82540Y46289D02*
X82460Y46449D01*
X82620D01*
X82540Y46289D01*
X79135D02*
X79055Y46449D01*
X79215D01*
X79135Y46289D01*
X130587Y40221D02*
X130627Y40261D01*
X130667D01*
X130627Y40301D01*
X130667Y40341D01*
X130627D01*
X130587Y40381D01*
X130547Y40341D01*
X130507D01*
X130547Y40301D01*
X130507Y40261D01*
X130547D01*
X130587Y40221D01*
X90137Y38171D02*
X90177Y38211D01*
X90217D01*
X90177Y38251D01*
X90217Y38291D01*
X90177D01*
X90137Y38331D01*
X90097Y38291D01*
X90057D01*
X90097Y38251D01*
X90057Y38211D01*
X90097D01*
X90137Y38171D01*
X131887Y41521D02*
X131927Y41561D01*
X131967D01*
X131927Y41601D01*
X131967Y41641D01*
X131927D01*
X131887Y41681D01*
X131847Y41641D01*
X131807D01*
X131847Y41601D01*
X131807Y41561D01*
X131847D01*
X131887Y41521D01*
X129691Y38418D02*
X129731Y38458D01*
X129771D01*
X129731Y38498D01*
X129771Y38538D01*
X129731D01*
X129691Y38578D01*
X129651Y38538D01*
X129611D01*
X129651Y38498D01*
X129611Y38458D01*
X129651D01*
X129691Y38418D01*
X119287Y37871D02*
X119327Y37911D01*
X119367D01*
X119327Y37951D01*
X119367Y37991D01*
X119327D01*
X119287Y38031D01*
X119247Y37991D01*
X119207D01*
X119247Y37951D01*
X119207Y37911D01*
X119247D01*
X119287Y37871D01*
X121037Y39071D02*
X121077Y39111D01*
X121117D01*
X121077Y39151D01*
X121117Y39191D01*
X121077D01*
X121037Y39231D01*
X120997Y39191D01*
X120957D01*
X120997Y39151D01*
X120957Y39111D01*
X120997D01*
X121037Y39071D01*
X115737Y40321D02*
X115777Y40361D01*
X115817D01*
X115777Y40401D01*
X115817Y40441D01*
X115777D01*
X115737Y40481D01*
X115697Y40441D01*
X115657D01*
X115697Y40401D01*
X115657Y40361D01*
X115697D01*
X115737Y40321D01*
X134087Y37421D02*
X134127Y37461D01*
X134167D01*
X134127Y37501D01*
X134167Y37541D01*
X134127D01*
X134087Y37581D01*
X134047Y37541D01*
X134007D01*
X134047Y37501D01*
X134007Y37461D01*
X134047D01*
X134087Y37421D01*
X132287Y38071D02*
X132327Y38111D01*
X132367D01*
X132327Y38151D01*
X132367Y38191D01*
X132327D01*
X132287Y38231D01*
X132247Y38191D01*
X132207D01*
X132247Y38151D01*
X132207Y38111D01*
X132247D01*
X132287Y38071D01*
X131787Y41221D02*
X131827Y41261D01*
X131867D01*
X131827Y41301D01*
X131867Y41341D01*
X131827D01*
X131787Y41381D01*
X131747Y41341D01*
X131707D01*
X131747Y41301D01*
X131707Y41261D01*
X131747D01*
X131787Y41221D01*
X12037Y44221D02*
X12077Y44261D01*
X12117D01*
X12077Y44301D01*
X12117Y44341D01*
X12077D01*
X12037Y44381D01*
X11997Y44341D01*
X11957D01*
X11997Y44301D01*
X11957Y44261D01*
X11997D01*
X12037Y44221D01*
X18537Y39621D02*
X18577Y39661D01*
X18617D01*
X18577Y39701D01*
X18617Y39741D01*
X18577D01*
X18537Y39781D01*
X18497Y39741D01*
X18457D01*
X18497Y39701D01*
X18457Y39661D01*
X18497D01*
X18537Y39621D01*
X129137Y39371D02*
X129177Y39411D01*
X129217D01*
X129177Y39451D01*
X129217Y39491D01*
X129177D01*
X129137Y39531D01*
X129097Y39491D01*
X129057D01*
X129097Y39451D01*
X129057Y39411D01*
X129097D01*
X129137Y39371D01*
X122187Y38421D02*
X122227Y38461D01*
X122267D01*
X122227Y38501D01*
X122267Y38541D01*
X122227D01*
X122187Y38581D01*
X122147Y38541D01*
X122107D01*
X122147Y38501D01*
X122107Y38461D01*
X122147D01*
X122187Y38421D01*
X118437Y37871D02*
X118477Y37911D01*
X118517D01*
X118477Y37951D01*
X118517Y37991D01*
X118477D01*
X118437Y38031D01*
X118397Y37991D01*
X118357D01*
X118397Y37951D01*
X118357Y37911D01*
X118397D01*
X118437Y37871D01*
X9787Y44471D02*
X9827Y44511D01*
X9867D01*
X9827Y44551D01*
X9867Y44591D01*
X9827D01*
X9787Y44631D01*
X9747Y44591D01*
X9707D01*
X9747Y44551D01*
X9707Y44511D01*
X9747D01*
X9787Y44471D01*
X36987Y38721D02*
X37027Y38761D01*
X37067D01*
X37027Y38801D01*
X37067Y38841D01*
X37027D01*
X36987Y38881D01*
X36947Y38841D01*
X36907D01*
X36947Y38801D01*
X36907Y38761D01*
X36947D01*
X36987Y38721D01*
X63537Y38671D02*
X63577Y38711D01*
X63617D01*
X63577Y38751D01*
X63617Y38791D01*
X63577D01*
X63537Y38831D01*
X63497Y38791D01*
X63457D01*
X63497Y38751D01*
X63457Y38711D01*
X63497D01*
X63537Y38671D01*
X71587Y38221D02*
X71627Y38261D01*
X71667D01*
X71627Y38301D01*
X71667Y38341D01*
X71627D01*
X71587Y38381D01*
X71547Y38341D01*
X71507D01*
X71547Y38301D01*
X71507Y38261D01*
X71547D01*
X71587Y38221D01*
X71537Y38621D02*
X71577Y38661D01*
X71617D01*
X71577Y38701D01*
X71617Y38741D01*
X71577D01*
X71537Y38781D01*
X71497Y38741D01*
X71457D01*
X71497Y38701D01*
X71457Y38661D01*
X71497D01*
X71537Y38621D01*
X89187Y38171D02*
X89227Y38211D01*
X89267D01*
X89227Y38251D01*
X89267Y38291D01*
X89227D01*
X89187Y38331D01*
X89147Y38291D01*
X89107D01*
X89147Y38251D01*
X89107Y38211D01*
X89147D01*
X89187Y38171D01*
X90137Y38671D02*
X90177Y38711D01*
X90217D01*
X90177Y38751D01*
X90217Y38791D01*
X90177D01*
X90137Y38831D01*
X90097Y38791D01*
X90057D01*
X90097Y38751D01*
X90057Y38711D01*
X90097D01*
X90137Y38671D01*
Y39171D02*
X90177Y39211D01*
X90217D01*
X90177Y39251D01*
X90217Y39291D01*
X90177D01*
X90137Y39331D01*
X90097Y39291D01*
X90057D01*
X90097Y39251D01*
X90057Y39211D01*
X90097D01*
X90137Y39171D01*
X98887Y38671D02*
X98927Y38711D01*
X98967D01*
X98927Y38751D01*
X98967Y38791D01*
X98927D01*
X98887Y38831D01*
X98847Y38791D01*
X98807D01*
X98847Y38751D01*
X98807Y38711D01*
X98847D01*
X98887Y38671D01*
Y38171D02*
X98927Y38211D01*
X98967D01*
X98927Y38251D01*
X98967Y38291D01*
X98927D01*
X98887Y38331D01*
X98847Y38291D01*
X98807D01*
X98847Y38251D01*
X98807Y38211D01*
X98847D01*
X98887Y38171D01*
X98037Y38121D02*
X98077Y38161D01*
X98117D01*
X98077Y38201D01*
X98117Y38241D01*
X98077D01*
X98037Y38281D01*
X97997Y38241D01*
X97957D01*
X97997Y38201D01*
X97957Y38161D01*
X97997D01*
X98037Y38121D01*
X130937Y38521D02*
X130977Y38561D01*
X131017D01*
X130977Y38601D01*
X131017Y38641D01*
X130977D01*
X130937Y38681D01*
X130897Y38641D01*
X130857D01*
X130897Y38601D01*
X130857Y38561D01*
X130897D01*
X130937Y38521D01*
X117137Y41271D02*
X117177Y41311D01*
X117217D01*
X117177Y41351D01*
X117217Y41391D01*
X117177D01*
X117137Y41431D01*
X117097Y41391D01*
X117057D01*
X117097Y41351D01*
X117057Y41311D01*
X117097D01*
X117137Y41271D01*
X121037Y39771D02*
X121077Y39811D01*
X121117D01*
X121077Y39851D01*
X121117Y39891D01*
X121077D01*
X121037Y39931D01*
X120997Y39891D01*
X120957D01*
X120997Y39851D01*
X120957Y39811D01*
X120997D01*
X121037Y39771D01*
X129437Y41371D02*
X129477Y41411D01*
X129517D01*
X129477Y41451D01*
X129517Y41491D01*
X129477D01*
X129437Y41531D01*
X129397Y41491D01*
X129357D01*
X129397Y41451D01*
X129357Y41411D01*
X129397D01*
X129437Y41371D01*
X106987Y37471D02*
X107027Y37511D01*
X107067D01*
X107027Y37551D01*
X107067Y37591D01*
X107027D01*
X106987Y37631D01*
X106947Y37591D01*
X106907D01*
X106947Y37551D01*
X106907Y37511D01*
X106947D01*
X106987Y37471D01*
X107787Y38671D02*
X107827Y38711D01*
X107867D01*
X107827Y38751D01*
X107867Y38791D01*
X107827D01*
X107787Y38831D01*
X107747Y38791D01*
X107707D01*
X107747Y38751D01*
X107707Y38711D01*
X107747D01*
X107787Y38671D01*
X59087Y33321D02*
X59127Y33361D01*
X59167D01*
X59127Y33401D01*
X59167Y33441D01*
X59127D01*
X59087Y33481D01*
X59047Y33441D01*
X59007D01*
X59047Y33401D01*
X59007Y33361D01*
X59047D01*
X59087Y33321D01*
X133037Y38971D02*
X133077Y39011D01*
X133117D01*
X133077Y39051D01*
X133117Y39091D01*
X133077D01*
X133037Y39131D01*
X132997Y39091D01*
X132957D01*
X132997Y39051D01*
X132957Y39011D01*
X132997D01*
X133037Y38971D01*
X132687Y39071D02*
X132727Y39111D01*
X132767D01*
X132727Y39151D01*
X132767Y39191D01*
X132727D01*
X132687Y39231D01*
X132647Y39191D01*
X132607D01*
X132647Y39151D01*
X132607Y39111D01*
X132647D01*
X132687Y39071D01*
X6587Y33671D02*
X6627Y33711D01*
X6667D01*
X6627Y33751D01*
X6667Y33791D01*
X6627D01*
X6587Y33831D01*
X6547Y33791D01*
X6507D01*
X6547Y33751D01*
X6507Y33711D01*
X6547D01*
X6587Y33671D01*
X14187Y33621D02*
X14227Y33661D01*
X14267D01*
X14227Y33701D01*
X14267Y33741D01*
X14227D01*
X14187Y33781D01*
X14147Y33741D01*
X14107D01*
X14147Y33701D01*
X14107Y33661D01*
X14147D01*
X14187Y33621D01*
X8537Y26121D02*
X8577Y26161D01*
X8617D01*
X8577Y26201D01*
X8617Y26241D01*
X8577D01*
X8537Y26281D01*
X8497Y26241D01*
X8457D01*
X8497Y26201D01*
X8457Y26161D01*
X8497D01*
X8537Y26121D01*
X9437Y18621D02*
X9477Y18661D01*
X9517D01*
X9477Y18701D01*
X9517Y18741D01*
X9477D01*
X9437Y18781D01*
X9397Y18741D01*
X9357D01*
X9397Y18701D01*
X9357Y18661D01*
X9397D01*
X9437Y18621D01*
X11337Y11071D02*
X11377Y11111D01*
X11417D01*
X11377Y11151D01*
X11417Y11191D01*
X11377D01*
X11337Y11231D01*
X11297Y11191D01*
X11257D01*
X11297Y11151D01*
X11257Y11111D01*
X11297D01*
X11337Y11071D01*
X7587Y3671D02*
X7627Y3711D01*
X7667D01*
X7627Y3751D01*
X7667Y3791D01*
X7627D01*
X7587Y3831D01*
X7547Y3791D01*
X7507D01*
X7547Y3751D01*
X7507Y3711D01*
X7547D01*
X7587Y3671D01*
X16987D02*
X17027Y3711D01*
X17067D01*
X17027Y3751D01*
X17067Y3791D01*
X17027D01*
X16987Y3831D01*
X16947Y3791D01*
X16907D01*
X16947Y3751D01*
X16907Y3711D01*
X16947D01*
X16987Y3671D01*
X21637Y33721D02*
X21677Y33761D01*
X21717D01*
X21677Y33801D01*
X21717Y33841D01*
X21677D01*
X21637Y33881D01*
X21597Y33841D01*
X21557D01*
X21597Y33801D01*
X21557Y33761D01*
X21597D01*
X21637Y33721D01*
X17887Y26171D02*
X17927Y26211D01*
X17967D01*
X17927Y26251D01*
X17967Y26291D01*
X17927D01*
X17887Y26331D01*
X17847Y26291D01*
X17807D01*
X17847Y26251D01*
X17807Y26211D01*
X17847D01*
X17887Y26171D01*
X23537Y11121D02*
X23577Y11161D01*
X23617D01*
X23577Y11201D01*
X23617Y11241D01*
X23577D01*
X23537Y11281D01*
X23497Y11241D01*
X23457D01*
X23497Y11201D01*
X23457Y11161D01*
X23497D01*
X23537Y11121D01*
X19837Y18621D02*
X19877Y18661D01*
X19917D01*
X19877Y18701D01*
X19917Y18741D01*
X19877D01*
X19837Y18781D01*
X19797Y18741D01*
X19757D01*
X19797Y18701D01*
X19757Y18661D01*
X19797D01*
X19837Y18621D01*
X26337Y3671D02*
X26377Y3711D01*
X26417D01*
X26377Y3751D01*
X26417Y3791D01*
X26377D01*
X26337Y3831D01*
X26297Y3791D01*
X26257D01*
X26297Y3751D01*
X26257Y3711D01*
X26297D01*
X26337Y3671D01*
X31037Y11171D02*
X31077Y11211D01*
X31117D01*
X31077Y11251D01*
X31117Y11291D01*
X31077D01*
X31037Y11331D01*
X30997Y11291D01*
X30957D01*
X30997Y11251D01*
X30957Y11211D01*
X30997D01*
X31037Y11171D01*
X27387Y18671D02*
X27427Y18711D01*
X27467D01*
X27427Y18751D01*
X27467Y18791D01*
X27427D01*
X27387Y18831D01*
X27347Y18791D01*
X27307D01*
X27347Y18751D01*
X27307Y18711D01*
X27347D01*
X27387Y18671D01*
X25437Y26221D02*
X25477Y26261D01*
X25517D01*
X25477Y26301D01*
X25517Y26341D01*
X25477D01*
X25437Y26381D01*
X25397Y26341D01*
X25357D01*
X25397Y26301D01*
X25357Y26261D01*
X25397D01*
X25437Y26221D01*
X28137Y39671D02*
X28177Y39711D01*
X28217D01*
X28177Y39751D01*
X28217Y39791D01*
X28177D01*
X28137Y39831D01*
X28097Y39791D01*
X28057D01*
X28097Y39751D01*
X28057Y39711D01*
X28097D01*
X28137Y39671D01*
X36587Y33671D02*
X36627Y33711D01*
X36667D01*
X36627Y33751D01*
X36667Y33791D01*
X36627D01*
X36587Y33831D01*
X36547Y33791D01*
X36507D01*
X36547Y33751D01*
X36507Y33711D01*
X36547D01*
X36587Y33671D01*
X29137Y31821D02*
X29177Y31861D01*
X29217D01*
X29177Y31901D01*
X29217Y31941D01*
X29177D01*
X29137Y31981D01*
X29097Y31941D01*
X29057D01*
X29097Y31901D01*
X29057Y31861D01*
X29097D01*
X29137Y31821D01*
X32937Y26171D02*
X32977Y26211D01*
X33017D01*
X32977Y26251D01*
X33017Y26291D01*
X32977D01*
X32937Y26331D01*
X32897Y26291D01*
X32857D01*
X32897Y26251D01*
X32857Y26211D01*
X32897D01*
X32937Y26171D01*
X34787Y18621D02*
X34827Y18661D01*
X34867D01*
X34827Y18701D01*
X34867Y18741D01*
X34827D01*
X34787Y18781D01*
X34747Y18741D01*
X34707D01*
X34747Y18701D01*
X34707Y18661D01*
X34747D01*
X34787Y18621D01*
X40437Y26271D02*
X40477Y26311D01*
X40517D01*
X40477Y26351D01*
X40517Y26391D01*
X40477D01*
X40437Y26431D01*
X40397Y26391D01*
X40357D01*
X40397Y26351D01*
X40357Y26311D01*
X40397D01*
X40437Y26271D01*
X42287Y18771D02*
X42327Y18811D01*
X42367D01*
X42327Y18851D01*
X42367Y18891D01*
X42327D01*
X42287Y18931D01*
X42247Y18891D01*
X42207D01*
X42247Y18851D01*
X42207Y18811D01*
X42247D01*
X42287Y18771D01*
X38587Y11171D02*
X38627Y11211D01*
X38667D01*
X38627Y11251D01*
X38667Y11291D01*
X38627D01*
X38587Y11331D01*
X38547Y11291D01*
X38507D01*
X38547Y11251D01*
X38507Y11211D01*
X38547D01*
X38587Y11171D01*
X46037Y11071D02*
X46077Y11111D01*
X46117D01*
X46077Y11151D01*
X46117Y11191D01*
X46077D01*
X46037Y11231D01*
X45997Y11191D01*
X45957D01*
X45997Y11151D01*
X45957Y11111D01*
X45997D01*
X46037Y11071D01*
X44137Y33621D02*
X44177Y33661D01*
X44217D01*
X44177Y33701D01*
X44217Y33741D01*
X44177D01*
X44137Y33781D01*
X44097Y33741D01*
X44057D01*
X44097Y33701D01*
X44057Y33661D01*
X44097D01*
X44137Y33621D01*
X47887Y26221D02*
X47927Y26261D01*
X47967D01*
X47927Y26301D01*
X47967Y26341D01*
X47927D01*
X47887Y26381D01*
X47847Y26341D01*
X47807D01*
X47847Y26301D01*
X47807Y26261D01*
X47847D01*
X47887Y26221D01*
X49787Y18571D02*
X49827Y18611D01*
X49867D01*
X49827Y18651D01*
X49867Y18691D01*
X49827D01*
X49787Y18731D01*
X49747Y18691D01*
X49707D01*
X49747Y18651D01*
X49707Y18611D01*
X49747D01*
X49787Y18571D01*
X53487Y11121D02*
X53527Y11161D01*
X53567D01*
X53527Y11201D01*
X53567Y11241D01*
X53527D01*
X53487Y11281D01*
X53447Y11241D01*
X53407D01*
X53447Y11201D01*
X53407Y11161D01*
X53447D01*
X53487Y11121D01*
X54537Y3771D02*
X54577Y3811D01*
X54617D01*
X54577Y3851D01*
X54617Y3891D01*
X54577D01*
X54537Y3931D01*
X54497Y3891D01*
X54457D01*
X54497Y3851D01*
X54457Y3811D01*
X54497D01*
X54537Y3771D01*
X57237Y18621D02*
X57277Y18661D01*
X57317D01*
X57277Y18701D01*
X57317Y18741D01*
X57277D01*
X57237Y18781D01*
X57197Y18741D01*
X57157D01*
X57197Y18701D01*
X57157Y18661D01*
X57197D01*
X57237Y18621D01*
X55387Y24321D02*
X55427Y24361D01*
X55467D01*
X55427Y24401D01*
X55467Y24441D01*
X55427D01*
X55387Y24481D01*
X55347Y24441D01*
X55307D01*
X55347Y24401D01*
X55307Y24361D01*
X55347D01*
X55387Y24321D01*
X51637Y31771D02*
X51677Y31811D01*
X51717D01*
X51677Y31851D01*
X51717Y31891D01*
X51677D01*
X51637Y31931D01*
X51597Y31891D01*
X51557D01*
X51597Y31851D01*
X51557Y31811D01*
X51597D01*
X51637Y31771D01*
X62887Y26071D02*
X62927Y26111D01*
X62967D01*
X62927Y26151D01*
X62967Y26191D01*
X62927D01*
X62887Y26231D01*
X62847Y26191D01*
X62807D01*
X62847Y26151D01*
X62807Y26111D01*
X62847D01*
X62887Y26071D01*
X64787Y18621D02*
X64827Y18661D01*
X64867D01*
X64827Y18701D01*
X64867Y18741D01*
X64827D01*
X64787Y18781D01*
X64747Y18741D01*
X64707D01*
X64747Y18701D01*
X64707Y18661D01*
X64747D01*
X64787Y18621D01*
X61037Y11221D02*
X61077Y11261D01*
X61117D01*
X61077Y11301D01*
X61117Y11341D01*
X61077D01*
X61037Y11381D01*
X60997Y11341D01*
X60957D01*
X60997Y11301D01*
X60957Y11261D01*
X60997D01*
X61037Y11221D01*
X68487Y11371D02*
X68527Y11411D01*
X68567D01*
X68527Y11451D01*
X68567Y11491D01*
X68527D01*
X68487Y11531D01*
X68447Y11491D01*
X68407D01*
X68447Y11451D01*
X68407Y11411D01*
X68447D01*
X68487Y11371D01*
X75987Y11421D02*
X76027Y11461D01*
X76067D01*
X76027Y11501D01*
X76067Y11541D01*
X76027D01*
X75987Y11581D01*
X75947Y11541D01*
X75907D01*
X75947Y11501D01*
X75907Y11461D01*
X75947D01*
X75987Y11421D01*
X72237Y16721D02*
X72277Y16761D01*
X72317D01*
X72277Y16801D01*
X72317Y16841D01*
X72277D01*
X72237Y16881D01*
X72197Y16841D01*
X72157D01*
X72197Y16801D01*
X72157Y16761D01*
X72197D01*
X72237Y16721D01*
X66637Y31721D02*
X66677Y31761D01*
X66717D01*
X66677Y31801D01*
X66717Y31841D01*
X66677D01*
X66637Y31881D01*
X66597Y31841D01*
X66557D01*
X66597Y31801D01*
X66557Y31761D01*
X66597D01*
X66637Y31721D01*
X54687Y38171D02*
X54727Y38211D01*
X54767D01*
X54727Y38251D01*
X54767Y38291D01*
X54727D01*
X54687Y38331D01*
X54647Y38291D01*
X54607D01*
X54647Y38251D01*
X54607Y38211D01*
X54647D01*
X54687Y38171D01*
Y38671D02*
X54727Y38711D01*
X54767D01*
X54727Y38751D01*
X54767Y38791D01*
X54727D01*
X54687Y38831D01*
X54647Y38791D01*
X54607D01*
X54647Y38751D01*
X54607Y38711D01*
X54647D01*
X54687Y38671D01*
X91137Y11521D02*
X91177Y11561D01*
X91217D01*
X91177Y11601D01*
X91217Y11641D01*
X91177D01*
X91137Y11681D01*
X91097Y11641D01*
X91057D01*
X91097Y11601D01*
X91057Y11561D01*
X91097D01*
X91137Y11521D01*
X70437Y26221D02*
X70477Y26261D01*
X70517D01*
X70477Y26301D01*
X70517Y26341D01*
X70477D01*
X70437Y26381D01*
X70397Y26341D01*
X70357D01*
X70397Y26301D01*
X70357Y26261D01*
X70397D01*
X70437Y26221D01*
X79787Y18671D02*
X79827Y18711D01*
X79867D01*
X79827Y18751D01*
X79867Y18791D01*
X79827D01*
X79787Y18831D01*
X79747Y18791D01*
X79707D01*
X79747Y18751D01*
X79707Y18711D01*
X79747D01*
X79787Y18671D01*
X87287Y16871D02*
X87327Y16911D01*
X87367D01*
X87327Y16951D01*
X87367Y16991D01*
X87327D01*
X87287Y17031D01*
X87247Y16991D01*
X87207D01*
X87247Y16951D01*
X87207Y16911D01*
X87247D01*
X87287Y16871D01*
X94837Y16671D02*
X94877Y16711D01*
X94917D01*
X94877Y16751D01*
X94917Y16791D01*
X94877D01*
X94837Y16831D01*
X94797Y16791D01*
X94757D01*
X94797Y16751D01*
X94757Y16711D01*
X94797D01*
X94837Y16671D01*
X91987Y3721D02*
X92027Y3761D01*
X92067D01*
X92027Y3801D01*
X92067Y3841D01*
X92027D01*
X91987Y3881D01*
X91947Y3841D01*
X91907D01*
X91947Y3801D01*
X91907Y3761D01*
X91947D01*
X91987Y3721D01*
X82587Y3671D02*
X82627Y3711D01*
X82667D01*
X82627Y3751D01*
X82667Y3791D01*
X82627D01*
X82587Y3831D01*
X82547Y3791D01*
X82507D01*
X82547Y3751D01*
X82507Y3711D01*
X82547D01*
X82587Y3671D01*
X83537Y11071D02*
X83577Y11111D01*
X83617D01*
X83577Y11151D01*
X83617Y11191D01*
X83577D01*
X83537Y11231D01*
X83497Y11191D01*
X83457D01*
X83497Y11151D01*
X83457Y11111D01*
X83497D01*
X83537Y11071D01*
X101337Y3721D02*
X101377Y3761D01*
X101417D01*
X101377Y3801D01*
X101417Y3841D01*
X101377D01*
X101337Y3881D01*
X101297Y3841D01*
X101257D01*
X101297Y3801D01*
X101257Y3761D01*
X101297D01*
X101337Y3721D01*
X74137Y33621D02*
X74177Y33661D01*
X74217D01*
X74177Y33701D01*
X74217Y33741D01*
X74177D01*
X74137Y33781D01*
X74097Y33741D01*
X74057D01*
X74097Y33701D01*
X74057Y33661D01*
X74097D01*
X74137Y33621D01*
X72387Y38671D02*
X72427Y38711D01*
X72467D01*
X72427Y38751D01*
X72467Y38791D01*
X72427D01*
X72387Y38831D01*
X72347Y38791D01*
X72307D01*
X72347Y38751D01*
X72307Y38711D01*
X72347D01*
X72387Y38671D01*
X77837Y26221D02*
X77877Y26261D01*
X77917D01*
X77877Y26301D01*
X77917Y26341D01*
X77877D01*
X77837Y26381D01*
X77797Y26341D01*
X77757D01*
X77797Y26301D01*
X77757Y26261D01*
X77797D01*
X77837Y26221D01*
X85437Y26171D02*
X85477Y26211D01*
X85517D01*
X85477Y26251D01*
X85517Y26291D01*
X85477D01*
X85437Y26331D01*
X85397Y26291D01*
X85357D01*
X85397Y26251D01*
X85357Y26211D01*
X85397D01*
X85437Y26171D01*
X92937Y26221D02*
X92977Y26261D01*
X93017D01*
X92977Y26301D01*
X93017Y26341D01*
X92977D01*
X92937Y26381D01*
X92897Y26341D01*
X92857D01*
X92897Y26301D01*
X92857Y26261D01*
X92897D01*
X92937Y26221D01*
X99537Y26971D02*
X99577Y27011D01*
X99617D01*
X99577Y27051D01*
X99617Y27091D01*
X99577D01*
X99537Y27131D01*
X99497Y27091D01*
X99457D01*
X99497Y27051D01*
X99457Y27011D01*
X99497D01*
X99537Y26971D01*
X81637Y31921D02*
X81677Y31961D01*
X81717D01*
X81677Y32001D01*
X81717Y32041D01*
X81677D01*
X81637Y32081D01*
X81597Y32041D01*
X81557D01*
X81597Y32001D01*
X81557Y31961D01*
X81597D01*
X81637Y31921D01*
X89137Y31871D02*
X89177Y31911D01*
X89217D01*
X89177Y31951D01*
X89217Y31991D01*
X89177D01*
X89137Y32031D01*
X89097Y31991D01*
X89057D01*
X89097Y31951D01*
X89057Y31911D01*
X89097D01*
X89137Y31871D01*
X96687Y31821D02*
X96727Y31861D01*
X96767D01*
X96727Y31901D01*
X96767Y31941D01*
X96727D01*
X96687Y31981D01*
X96647Y31941D01*
X96607D01*
X96647Y31901D01*
X96607Y31861D01*
X96647D01*
X96687Y31821D01*
X128587Y9321D02*
X128627Y9361D01*
X128667D01*
X128627Y9401D01*
X128667Y9441D01*
X128627D01*
X128587Y9481D01*
X128547Y9441D01*
X128507D01*
X128547Y9401D01*
X128507Y9361D01*
X128547D01*
X128587Y9321D01*
X81237Y38171D02*
X81277Y38211D01*
X81317D01*
X81277Y38251D01*
X81317Y38291D01*
X81277D01*
X81237Y38331D01*
X81197Y38291D01*
X81157D01*
X81197Y38251D01*
X81157Y38211D01*
X81197D01*
X81237Y38171D01*
X80287Y38521D02*
X80327Y38561D01*
X80367D01*
X80327Y38601D01*
X80367Y38641D01*
X80327D01*
X80287Y38681D01*
X80247Y38641D01*
X80207D01*
X80247Y38601D01*
X80207Y38561D01*
X80247D01*
X80287Y38521D01*
X107037Y16871D02*
X107077Y16911D01*
X107117D01*
X107077Y16951D01*
X107117Y16991D01*
X107077D01*
X107037Y17031D01*
X106997Y16991D01*
X106957D01*
X106997Y16951D01*
X106957Y16911D01*
X106997D01*
X107037Y16871D01*
X136087Y3721D02*
X136127Y3761D01*
X136167D01*
X136127Y3801D01*
X136167Y3841D01*
X136127D01*
X136087Y3881D01*
X136047Y3841D01*
X136007D01*
X136047Y3801D01*
X136007Y3761D01*
X136047D01*
X136087Y3721D01*
X105137Y11121D02*
X105177Y11161D01*
X105217D01*
X105177Y11201D01*
X105217Y11241D01*
X105177D01*
X105137Y11281D01*
X105097Y11241D01*
X105057D01*
X105097Y11201D01*
X105057Y11161D01*
X105097D01*
X105137Y11121D01*
X110687Y3671D02*
X110727Y3711D01*
X110767D01*
X110727Y3751D01*
X110767Y3791D01*
X110727D01*
X110687Y3831D01*
X110647Y3791D01*
X110607D01*
X110647Y3751D01*
X110607Y3711D01*
X110647D01*
X110687Y3671D01*
X121037Y3621D02*
X121077Y3661D01*
X121117D01*
X121077Y3701D01*
X121117Y3741D01*
X121077D01*
X121037Y3781D01*
X120997Y3741D01*
X120957D01*
X120997Y3701D01*
X120957Y3661D01*
X120997D01*
X121037Y3621D01*
X128537Y3671D02*
X128577Y3711D01*
X128617D01*
X128577Y3751D01*
X128617Y3791D01*
X128577D01*
X128537Y3831D01*
X128497Y3791D01*
X128457D01*
X128497Y3751D01*
X128457Y3711D01*
X128497D01*
X128537Y3671D01*
X109787Y26071D02*
X109827Y26111D01*
X109867D01*
X109827Y26151D01*
X109867Y26191D01*
X109827D01*
X109787Y26231D01*
X109747Y26191D01*
X109707D01*
X109747Y26151D01*
X109707Y26111D01*
X109747D01*
X109787Y26071D01*
X120987Y26121D02*
X121027Y26161D01*
X121067D01*
X121027Y26201D01*
X121067Y26241D01*
X121027D01*
X120987Y26281D01*
X120947Y26241D01*
X120907D01*
X120947Y26201D01*
X120907Y26161D01*
X120947D01*
X120987Y26121D01*
X128537Y26071D02*
X128577Y26111D01*
X128617D01*
X128577Y26151D01*
X128617Y26191D01*
X128577D01*
X128537Y26231D01*
X128497Y26191D01*
X128457D01*
X128497Y26151D01*
X128457Y26111D01*
X128497D01*
X128537Y26071D01*
X135987Y26221D02*
X136027Y26261D01*
X136067D01*
X136027Y26301D01*
X136067Y26341D01*
X136027D01*
X135987Y26381D01*
X135947Y26341D01*
X135907D01*
X135947Y26301D01*
X135907Y26261D01*
X135947D01*
X135987Y26221D01*
X107887Y31821D02*
X107927Y31861D01*
X107967D01*
X107927Y31901D01*
X107967Y31941D01*
X107927D01*
X107887Y31981D01*
X107847Y31941D01*
X107807D01*
X107847Y31901D01*
X107807Y31861D01*
X107847D01*
X107887Y31821D01*
X121037D02*
X121077Y31861D01*
X121117D01*
X121077Y31901D01*
X121117Y31941D01*
X121077D01*
X121037Y31981D01*
X120997Y31941D01*
X120957D01*
X120997Y31901D01*
X120957Y31861D01*
X120997D01*
X121037Y31821D01*
X128587D02*
X128627Y31861D01*
X128667D01*
X128627Y31901D01*
X128667Y31941D01*
X128627D01*
X128587Y31981D01*
X128547Y31941D01*
X128507D01*
X128547Y31901D01*
X128507Y31861D01*
X128547D01*
X128587Y31821D01*
X136087D02*
X136127Y31861D01*
X136167D01*
X136127Y31901D01*
X136167Y31941D01*
X136127D01*
X136087Y31981D01*
X136047Y31941D01*
X136007D01*
X136047Y31901D01*
X136007Y31861D01*
X136047D01*
X136087Y31821D01*
X98887Y39671D02*
X98927Y39711D01*
X98967D01*
X98927Y39751D01*
X98967Y39791D01*
X98927D01*
X98887Y39831D01*
X98847Y39791D01*
X98807D01*
X98847Y39751D01*
X98807Y39711D01*
X98847D01*
X98887Y39671D01*
Y39171D02*
X98927Y39211D01*
X98967D01*
X98927Y39251D01*
X98967Y39291D01*
X98927D01*
X98887Y39331D01*
X98847Y39291D01*
X98807D01*
X98847Y39251D01*
X98807Y39211D01*
X98847D01*
X98887Y39171D01*
X98087Y39621D02*
X98127Y39661D01*
X98167D01*
X98127Y39701D01*
X98167Y39741D01*
X98127D01*
X98087Y39781D01*
X98047Y39741D01*
X98007D01*
X98047Y39701D01*
X98007Y39661D01*
X98047D01*
X98087Y39621D01*
X106937D02*
X106977Y39661D01*
X107017D01*
X106977Y39701D01*
X107017Y39741D01*
X106977D01*
X106937Y39781D01*
X106897Y39741D01*
X106857D01*
X106897Y39701D01*
X106857Y39661D01*
X106897D01*
X106937Y39621D01*
X18537Y39121D02*
X18577Y39161D01*
X18617D01*
X18577Y39201D01*
X18617Y39241D01*
X18577D01*
X18537Y39281D01*
X18497Y39241D01*
X18457D01*
X18497Y39201D01*
X18457Y39161D01*
X18497D01*
X18537Y39121D01*
Y38621D02*
X18577Y38661D01*
X18617D01*
X18577Y38701D01*
X18617Y38741D01*
X18577D01*
X18537Y38781D01*
X18497Y38741D01*
X18457D01*
X18497Y38701D01*
X18457Y38661D01*
X18497D01*
X18537Y38621D01*
X18487Y38121D02*
X18527Y38161D01*
X18567D01*
X18527Y38201D01*
X18567Y38241D01*
X18527D01*
X18487Y38281D01*
X18447Y38241D01*
X18407D01*
X18447Y38201D01*
X18407Y38161D01*
X18447D01*
X18487Y38121D01*
X27287Y39621D02*
X27327Y39661D01*
X27367D01*
X27327Y39701D01*
X27367Y39741D01*
X27327D01*
X27287Y39781D01*
X27247Y39741D01*
X27207D01*
X27247Y39701D01*
X27207Y39661D01*
X27247D01*
X27287Y39621D01*
Y39121D02*
X27327Y39161D01*
X27367D01*
X27327Y39201D01*
X27367Y39241D01*
X27327D01*
X27287Y39281D01*
X27247Y39241D01*
X27207D01*
X27247Y39201D01*
X27207Y39161D01*
X27247D01*
X27287Y39121D01*
Y38621D02*
X27327Y38661D01*
X27367D01*
X27327Y38701D01*
X27367Y38741D01*
X27327D01*
X27287Y38781D01*
X27247Y38741D01*
X27207D01*
X27247Y38701D01*
X27207Y38661D01*
X27247D01*
X27287Y38621D01*
X27237Y38121D02*
X27277Y38161D01*
X27317D01*
X27277Y38201D01*
X27317Y38241D01*
X27277D01*
X27237Y38281D01*
X27197Y38241D01*
X27157D01*
X27197Y38201D01*
X27157Y38161D01*
X27197D01*
X27237Y38121D01*
X36187Y39621D02*
X36227Y39661D01*
X36267D01*
X36227Y39701D01*
X36267Y39741D01*
X36227D01*
X36187Y39781D01*
X36147Y39741D01*
X36107D01*
X36147Y39701D01*
X36107Y39661D01*
X36147D01*
X36187Y39621D01*
Y39121D02*
X36227Y39161D01*
X36267D01*
X36227Y39201D01*
X36267Y39241D01*
X36227D01*
X36187Y39281D01*
X36147Y39241D01*
X36107D01*
X36147Y39201D01*
X36107Y39161D01*
X36147D01*
X36187Y39121D01*
Y38621D02*
X36227Y38661D01*
X36267D01*
X36227Y38701D01*
X36267Y38741D01*
X36227D01*
X36187Y38781D01*
X36147Y38741D01*
X36107D01*
X36147Y38701D01*
X36107Y38661D01*
X36147D01*
X36187Y38621D01*
X36137Y38121D02*
X36177Y38161D01*
X36217D01*
X36177Y38201D01*
X36217Y38241D01*
X36177D01*
X36137Y38281D01*
X36097Y38241D01*
X36057D01*
X36097Y38201D01*
X36057Y38161D01*
X36097D01*
X36137Y38121D01*
X45037Y39621D02*
X45077Y39661D01*
X45117D01*
X45077Y39701D01*
X45117Y39741D01*
X45077D01*
X45037Y39781D01*
X44997Y39741D01*
X44957D01*
X44997Y39701D01*
X44957Y39661D01*
X44997D01*
X45037Y39621D01*
Y39121D02*
X45077Y39161D01*
X45117D01*
X45077Y39201D01*
X45117Y39241D01*
X45077D01*
X45037Y39281D01*
X44997Y39241D01*
X44957D01*
X44997Y39201D01*
X44957Y39161D01*
X44997D01*
X45037Y39121D01*
Y38621D02*
X45077Y38661D01*
X45117D01*
X45077Y38701D01*
X45117Y38741D01*
X45077D01*
X45037Y38781D01*
X44997Y38741D01*
X44957D01*
X44997Y38701D01*
X44957Y38661D01*
X44997D01*
X45037Y38621D01*
X44987Y38121D02*
X45027Y38161D01*
X45067D01*
X45027Y38201D01*
X45067Y38241D01*
X45027D01*
X44987Y38281D01*
X44947Y38241D01*
X44907D01*
X44947Y38201D01*
X44907Y38161D01*
X44947D01*
X44987Y38121D01*
X53837Y39621D02*
X53877Y39661D01*
X53917D01*
X53877Y39701D01*
X53917Y39741D01*
X53877D01*
X53837Y39781D01*
X53797Y39741D01*
X53757D01*
X53797Y39701D01*
X53757Y39661D01*
X53797D01*
X53837Y39621D01*
Y39121D02*
X53877Y39161D01*
X53917D01*
X53877Y39201D01*
X53917Y39241D01*
X53877D01*
X53837Y39281D01*
X53797Y39241D01*
X53757D01*
X53797Y39201D01*
X53757Y39161D01*
X53797D01*
X53837Y39121D01*
Y38621D02*
X53877Y38661D01*
X53917D01*
X53877Y38701D01*
X53917Y38741D01*
X53877D01*
X53837Y38781D01*
X53797Y38741D01*
X53757D01*
X53797Y38701D01*
X53757Y38661D01*
X53797D01*
X53837Y38621D01*
X53787Y38121D02*
X53827Y38161D01*
X53867D01*
X53827Y38201D01*
X53867Y38241D01*
X53827D01*
X53787Y38281D01*
X53747Y38241D01*
X53707D01*
X53747Y38201D01*
X53707Y38161D01*
X53747D01*
X53787Y38121D01*
X62687Y39621D02*
X62727Y39661D01*
X62767D01*
X62727Y39701D01*
X62767Y39741D01*
X62727D01*
X62687Y39781D01*
X62647Y39741D01*
X62607D01*
X62647Y39701D01*
X62607Y39661D01*
X62647D01*
X62687Y39621D01*
Y39121D02*
X62727Y39161D01*
X62767D01*
X62727Y39201D01*
X62767Y39241D01*
X62727D01*
X62687Y39281D01*
X62647Y39241D01*
X62607D01*
X62647Y39201D01*
X62607Y39161D01*
X62647D01*
X62687Y39121D01*
Y38621D02*
X62727Y38661D01*
X62767D01*
X62727Y38701D01*
X62767Y38741D01*
X62727D01*
X62687Y38781D01*
X62647Y38741D01*
X62607D01*
X62647Y38701D01*
X62607Y38661D01*
X62647D01*
X62687Y38621D01*
X62637Y38121D02*
X62677Y38161D01*
X62717D01*
X62677Y38201D01*
X62717Y38241D01*
X62677D01*
X62637Y38281D01*
X62597Y38241D01*
X62557D01*
X62597Y38201D01*
X62557Y38161D01*
X62597D01*
X62637Y38121D01*
X71537Y39621D02*
X71577Y39661D01*
X71617D01*
X71577Y39701D01*
X71617Y39741D01*
X71577D01*
X71537Y39781D01*
X71497Y39741D01*
X71457D01*
X71497Y39701D01*
X71457Y39661D01*
X71497D01*
X71537Y39621D01*
Y39121D02*
X71577Y39161D01*
X71617D01*
X71577Y39201D01*
X71617Y39241D01*
X71577D01*
X71537Y39281D01*
X71497Y39241D01*
X71457D01*
X71497Y39201D01*
X71457Y39161D01*
X71497D01*
X71537Y39121D01*
X80387Y39621D02*
X80427Y39661D01*
X80467D01*
X80427Y39701D01*
X80467Y39741D01*
X80427D01*
X80387Y39781D01*
X80347Y39741D01*
X80307D01*
X80347Y39701D01*
X80307Y39661D01*
X80347D01*
X80387Y39621D01*
Y39121D02*
X80427Y39161D01*
X80467D01*
X80427Y39201D01*
X80467Y39241D01*
X80427D01*
X80387Y39281D01*
X80347Y39241D01*
X80307D01*
X80347Y39201D01*
X80307Y39161D01*
X80347D01*
X80387Y39121D01*
X80337Y38121D02*
X80377Y38161D01*
X80417D01*
X80377Y38201D01*
X80417Y38241D01*
X80377D01*
X80337Y38281D01*
X80297Y38241D01*
X80257D01*
X80297Y38201D01*
X80257Y38161D01*
X80297D01*
X80337Y38121D01*
X89187Y39621D02*
X89227Y39661D01*
X89267D01*
X89227Y39701D01*
X89267Y39741D01*
X89227D01*
X89187Y39781D01*
X89147Y39741D01*
X89107D01*
X89147Y39701D01*
X89107Y39661D01*
X89147D01*
X89187Y39621D01*
Y39121D02*
X89227Y39161D01*
X89267D01*
X89227Y39201D01*
X89267Y39241D01*
X89227D01*
X89187Y39281D01*
X89147Y39241D01*
X89107D01*
X89147Y39201D01*
X89107Y39161D01*
X89147D01*
X89187Y39121D01*
Y38621D02*
X89227Y38661D01*
X89267D01*
X89227Y38701D01*
X89267Y38741D01*
X89227D01*
X89187Y38781D01*
X89147Y38741D01*
X89107D01*
X89147Y38701D01*
X89107Y38661D01*
X89147D01*
X89187Y38621D01*
X98087Y39121D02*
X98127Y39161D01*
X98167D01*
X98127Y39201D01*
X98167Y39241D01*
X98127D01*
X98087Y39281D01*
X98047Y39241D01*
X98007D01*
X98047Y39201D01*
X98007Y39161D01*
X98047D01*
X98087Y39121D01*
Y38621D02*
X98127Y38661D01*
X98167D01*
X98127Y38701D01*
X98167Y38741D01*
X98127D01*
X98087Y38781D01*
X98047Y38741D01*
X98007D01*
X98047Y38701D01*
X98007Y38661D01*
X98047D01*
X98087Y38621D01*
X106887Y38121D02*
X106927Y38161D01*
X106967D01*
X106927Y38201D01*
X106967Y38241D01*
X106927D01*
X106887Y38281D01*
X106847Y38241D01*
X106807D01*
X106847Y38201D01*
X106807Y38161D01*
X106847D01*
X106887Y38121D01*
X106937Y38621D02*
X106977Y38661D01*
X107017D01*
X106977Y38701D01*
X107017Y38741D01*
X106977D01*
X106937Y38781D01*
X106897Y38741D01*
X106857D01*
X106897Y38701D01*
X106857Y38661D01*
X106897D01*
X106937Y38621D01*
Y39121D02*
X106977Y39161D01*
X107017D01*
X106977Y39201D01*
X107017Y39241D01*
X106977D01*
X106937Y39281D01*
X106897Y39241D01*
X106857D01*
X106897Y39201D01*
X106857Y39161D01*
X106897D01*
X106937Y39121D01*
X19237Y39671D02*
X19277Y39711D01*
X19317D01*
X19277Y39751D01*
X19317Y39791D01*
X19277D01*
X19237Y39831D01*
X19197Y39791D01*
X19157D01*
X19197Y39751D01*
X19157Y39711D01*
X19197D01*
X19237Y39671D01*
X19287Y39171D02*
X19327Y39211D01*
X19367D01*
X19327Y39251D01*
X19367Y39291D01*
X19327D01*
X19287Y39331D01*
X19247Y39291D01*
X19207D01*
X19247Y39251D01*
X19207Y39211D01*
X19247D01*
X19287Y39171D01*
Y38671D02*
X19327Y38711D01*
X19367D01*
X19327Y38751D01*
X19367Y38791D01*
X19327D01*
X19287Y38831D01*
X19247Y38791D01*
X19207D01*
X19247Y38751D01*
X19207Y38711D01*
X19247D01*
X19287Y38671D01*
X28187Y39171D02*
X28227Y39211D01*
X28267D01*
X28227Y39251D01*
X28267Y39291D01*
X28227D01*
X28187Y39331D01*
X28147Y39291D01*
X28107D01*
X28147Y39251D01*
X28107Y39211D01*
X28147D01*
X28187Y39171D01*
Y38671D02*
X28227Y38711D01*
X28267D01*
X28227Y38751D01*
X28267Y38791D01*
X28227D01*
X28187Y38831D01*
X28147Y38791D01*
X28107D01*
X28147Y38751D01*
X28107Y38711D01*
X28147D01*
X28187Y38671D01*
Y38171D02*
X28227Y38211D01*
X28267D01*
X28227Y38251D01*
X28267Y38291D01*
X28227D01*
X28187Y38331D01*
X28147Y38291D01*
X28107D01*
X28147Y38251D01*
X28107Y38211D01*
X28147D01*
X28187Y38171D01*
X36987Y39671D02*
X37027Y39711D01*
X37067D01*
X37027Y39751D01*
X37067Y39791D01*
X37027D01*
X36987Y39831D01*
X36947Y39791D01*
X36907D01*
X36947Y39751D01*
X36907Y39711D01*
X36947D01*
X36987Y39671D01*
X37037Y39171D02*
X37077Y39211D01*
X37117D01*
X37077Y39251D01*
X37117Y39291D01*
X37077D01*
X37037Y39331D01*
X36997Y39291D01*
X36957D01*
X36997Y39251D01*
X36957Y39211D01*
X36997D01*
X37037Y39171D01*
Y38171D02*
X37077Y38211D01*
X37117D01*
X37077Y38251D01*
X37117Y38291D01*
X37077D01*
X37037Y38331D01*
X36997Y38291D01*
X36957D01*
X36997Y38251D01*
X36957Y38211D01*
X36997D01*
X37037Y38171D01*
X45837Y39671D02*
X45877Y39711D01*
X45917D01*
X45877Y39751D01*
X45917Y39791D01*
X45877D01*
X45837Y39831D01*
X45797Y39791D01*
X45757D01*
X45797Y39751D01*
X45757Y39711D01*
X45797D01*
X45837Y39671D01*
X45887Y39171D02*
X45927Y39211D01*
X45967D01*
X45927Y39251D01*
X45967Y39291D01*
X45927D01*
X45887Y39331D01*
X45847Y39291D01*
X45807D01*
X45847Y39251D01*
X45807Y39211D01*
X45847D01*
X45887Y39171D01*
Y38671D02*
X45927Y38711D01*
X45967D01*
X45927Y38751D01*
X45967Y38791D01*
X45927D01*
X45887Y38831D01*
X45847Y38791D01*
X45807D01*
X45847Y38751D01*
X45807Y38711D01*
X45847D01*
X45887Y38671D01*
Y38171D02*
X45927Y38211D01*
X45967D01*
X45927Y38251D01*
X45967Y38291D01*
X45927D01*
X45887Y38331D01*
X45847Y38291D01*
X45807D01*
X45847Y38251D01*
X45807Y38211D01*
X45847D01*
X45887Y38171D01*
X54637Y39671D02*
X54677Y39711D01*
X54717D01*
X54677Y39751D01*
X54717Y39791D01*
X54677D01*
X54637Y39831D01*
X54597Y39791D01*
X54557D01*
X54597Y39751D01*
X54557Y39711D01*
X54597D01*
X54637Y39671D01*
X54687Y39171D02*
X54727Y39211D01*
X54767D01*
X54727Y39251D01*
X54767Y39291D01*
X54727D01*
X54687Y39331D01*
X54647Y39291D01*
X54607D01*
X54647Y39251D01*
X54607Y39211D01*
X54647D01*
X54687Y39171D01*
X63487Y39671D02*
X63527Y39711D01*
X63567D01*
X63527Y39751D01*
X63567Y39791D01*
X63527D01*
X63487Y39831D01*
X63447Y39791D01*
X63407D01*
X63447Y39751D01*
X63407Y39711D01*
X63447D01*
X63487Y39671D01*
X63537Y39171D02*
X63577Y39211D01*
X63617D01*
X63577Y39251D01*
X63617Y39291D01*
X63577D01*
X63537Y39331D01*
X63497Y39291D01*
X63457D01*
X63497Y39251D01*
X63457Y39211D01*
X63497D01*
X63537Y39171D01*
Y38171D02*
X63577Y38211D01*
X63617D01*
X63577Y38251D01*
X63617Y38291D01*
X63577D01*
X63537Y38331D01*
X63497Y38291D01*
X63457D01*
X63497Y38251D01*
X63457Y38211D01*
X63497D01*
X63537Y38171D01*
X72337Y39671D02*
X72377Y39711D01*
X72417D01*
X72377Y39751D01*
X72417Y39791D01*
X72377D01*
X72337Y39831D01*
X72297Y39791D01*
X72257D01*
X72297Y39751D01*
X72257Y39711D01*
X72297D01*
X72337Y39671D01*
X72387Y39171D02*
X72427Y39211D01*
X72467D01*
X72427Y39251D01*
X72467Y39291D01*
X72427D01*
X72387Y39331D01*
X72347Y39291D01*
X72307D01*
X72347Y39251D01*
X72307Y39211D01*
X72347D01*
X72387Y39171D01*
Y38171D02*
X72427Y38211D01*
X72467D01*
X72427Y38251D01*
X72467Y38291D01*
X72427D01*
X72387Y38331D01*
X72347Y38291D01*
X72307D01*
X72347Y38251D01*
X72307Y38211D01*
X72347D01*
X72387Y38171D01*
X81187Y39671D02*
X81227Y39711D01*
X81267D01*
X81227Y39751D01*
X81267Y39791D01*
X81227D01*
X81187Y39831D01*
X81147Y39791D01*
X81107D01*
X81147Y39751D01*
X81107Y39711D01*
X81147D01*
X81187Y39671D01*
X81237Y39171D02*
X81277Y39211D01*
X81317D01*
X81277Y39251D01*
X81317Y39291D01*
X81277D01*
X81237Y39331D01*
X81197Y39291D01*
X81157D01*
X81197Y39251D01*
X81157Y39211D01*
X81197D01*
X81237Y39171D01*
Y38671D02*
X81277Y38711D01*
X81317D01*
X81277Y38751D01*
X81317Y38791D01*
X81277D01*
X81237Y38831D01*
X81197Y38791D01*
X81157D01*
X81197Y38751D01*
X81157Y38711D01*
X81197D01*
X81237Y38671D01*
X90087Y39671D02*
X90127Y39711D01*
X90167D01*
X90127Y39751D01*
X90167Y39791D01*
X90127D01*
X90087Y39831D01*
X90047Y39791D01*
X90007D01*
X90047Y39751D01*
X90007Y39711D01*
X90047D01*
X90087Y39671D01*
X107737Y38171D02*
X107777Y38211D01*
X107817D01*
X107777Y38251D01*
X107817Y38291D01*
X107777D01*
X107737Y38331D01*
X107697Y38291D01*
X107657D01*
X107697Y38251D01*
X107657Y38211D01*
X107697D01*
X107737Y38171D01*
X107787Y39171D02*
X107827Y39211D01*
X107867D01*
X107827Y39251D01*
X107867Y39291D01*
X107827D01*
X107787Y39331D01*
X107747Y39291D01*
X107707D01*
X107747Y39251D01*
X107707Y39211D01*
X107747D01*
X107787Y39171D01*
Y39671D02*
X107827Y39711D01*
X107867D01*
X107827Y39751D01*
X107867Y39791D01*
X107827D01*
X107787Y39831D01*
X107747Y39791D01*
X107707D01*
X107747Y39751D01*
X107707Y39711D01*
X107747D01*
X107787Y39671D01*
X6637Y43071D02*
X6677Y43111D01*
X6717D01*
X6677Y43151D01*
X6717Y43191D01*
X6677D01*
X6637Y43231D01*
X6597Y43191D01*
X6557D01*
X6597Y43151D01*
X6557Y43111D01*
X6597D01*
X6637Y43071D01*
X21637Y42971D02*
X21677Y43011D01*
X21717D01*
X21677Y43051D01*
X21717Y43091D01*
X21677D01*
X21637Y43131D01*
X21597Y43091D01*
X21557D01*
X21597Y43051D01*
X21557Y43011D01*
X21597D01*
X21637Y42971D01*
X29137Y43021D02*
X29177Y43061D01*
X29217D01*
X29177Y43101D01*
X29217Y43141D01*
X29177D01*
X29137Y43181D01*
X29097Y43141D01*
X29057D01*
X29097Y43101D01*
X29057Y43061D01*
X29097D01*
X29137Y43021D01*
X36637Y43071D02*
X36677Y43111D01*
X36717D01*
X36677Y43151D01*
X36717Y43191D01*
X36677D01*
X36637Y43231D01*
X36597Y43191D01*
X36557D01*
X36597Y43151D01*
X36557Y43111D01*
X36597D01*
X36637Y43071D01*
X44137Y43121D02*
X44177Y43161D01*
X44217D01*
X44177Y43201D01*
X44217Y43241D01*
X44177D01*
X44137Y43281D01*
X44097Y43241D01*
X44057D01*
X44097Y43201D01*
X44057Y43161D01*
X44097D01*
X44137Y43121D01*
X55387Y43071D02*
X55427Y43111D01*
X55467D01*
X55427Y43151D01*
X55467Y43191D01*
X55427D01*
X55387Y43231D01*
X55347Y43191D01*
X55307D01*
X55347Y43151D01*
X55307Y43111D01*
X55347D01*
X55387Y43071D01*
X62887D02*
X62927Y43111D01*
X62967D01*
X62927Y43151D01*
X62967Y43191D01*
X62927D01*
X62887Y43231D01*
X62847Y43191D01*
X62807D01*
X62847Y43151D01*
X62807Y43111D01*
X62847D01*
X62887Y43071D01*
X70387Y43121D02*
X70427Y43161D01*
X70467D01*
X70427Y43201D01*
X70467Y43241D01*
X70427D01*
X70387Y43281D01*
X70347Y43241D01*
X70307D01*
X70347Y43201D01*
X70307Y43161D01*
X70347D01*
X70387Y43121D01*
X77887D02*
X77927Y43161D01*
X77967D01*
X77927Y43201D01*
X77967Y43241D01*
X77927D01*
X77887Y43281D01*
X77847Y43241D01*
X77807D01*
X77847Y43201D01*
X77807Y43161D01*
X77847D01*
X77887Y43121D01*
X89087Y43171D02*
X89127Y43211D01*
X89167D01*
X89127Y43251D01*
X89167Y43291D01*
X89127D01*
X89087Y43331D01*
X89047Y43291D01*
X89007D01*
X89047Y43251D01*
X89007Y43211D01*
X89047D01*
X89087Y43171D01*
X96587Y43021D02*
X96627Y43061D01*
X96667D01*
X96627Y43101D01*
X96667Y43141D01*
X96627D01*
X96587Y43181D01*
X96547Y43141D01*
X96507D01*
X96547Y43101D01*
X96507Y43061D01*
X96547D01*
X96587Y43021D01*
X104137Y43071D02*
X104177Y43111D01*
X104217D01*
X104177Y43151D01*
X104217Y43191D01*
X104177D01*
X104137Y43231D01*
X104097Y43191D01*
X104057D01*
X104097Y43151D01*
X104057Y43111D01*
X104097D01*
X104137Y43071D01*
X111687Y43121D02*
X111727Y43161D01*
X111767D01*
X111727Y43201D01*
X111767Y43241D01*
X111727D01*
X111687Y43281D01*
X111647Y43241D01*
X111607D01*
X111647Y43201D01*
X111607Y43161D01*
X111647D01*
X111687Y43121D01*
X120987Y43071D02*
X121027Y43111D01*
X121067D01*
X121027Y43151D01*
X121067Y43191D01*
X121027D01*
X120987Y43231D01*
X120947Y43191D01*
X120907D01*
X120947Y43151D01*
X120907Y43111D01*
X120947D01*
X120987Y43071D01*
X128537Y43121D02*
X128577Y43161D01*
X128617D01*
X128577Y43201D01*
X128617Y43241D01*
X128577D01*
X128537Y43281D01*
X128497Y43241D01*
X128457D01*
X128497Y43201D01*
X128457Y43161D01*
X128497D01*
X128537Y43121D01*
X136087Y43071D02*
X136127Y43111D01*
X136167D01*
X136127Y43151D01*
X136167Y43191D01*
X136127D01*
X136087Y43231D01*
X136047Y43191D01*
X136007D01*
X136047Y43151D01*
X136007Y43111D01*
X136047D01*
X136087Y43071D01*
D57*
X82620Y47944D02*
G03*
X82620Y47944I-80J0D01*
G01*
X79215D02*
G03*
X79215Y47944I-80J0D01*
G01*
M02*
